<?xml version="1.0" encoding="utf-8" standalone="no"?>
<!DOCTYPE svg PUBLIC "-//W3C//DTD SVG 1.1//EN"
  "http://www.w3.org/Graphics/SVG/1.1/DTD/svg11.dtd">
<svg xmlns:xlink="http://www.w3.org/1999/xlink" width="365.76pt" height="374.544pt" viewBox="0 0 365.76 374.544" xmlns="http://www.w3.org/2000/svg" version="1.1">
 <metadata>
  <rdf:RDF xmlns:dc="http://purl.org/dc/elements/1.1/" xmlns:cc="http://creativecommons.org/ns#" xmlns:rdf="http://www.w3.org/1999/02/22-rdf-syntax-ns#">
   <cc:Work>
    <dc:type rdf:resource="http://purl.org/dc/dcmitype/StillImage"/>
    <dc:date>2026-06-23T11:22:45.588984</dc:date>
    <dc:format>image/svg+xml</dc:format>
    <dc:creator>
     <cc:Agent>
      <dc:title>Matplotlib v3.10.9, https://matplotlib.org/</dc:title>
     </cc:Agent>
    </dc:creator>
   </cc:Work>
  </rdf:RDF>
 </metadata>
 <defs>
  <style type="text/css">*{stroke-linejoin: round; stroke-linecap: butt}</style>
 </defs>
 <g id="figure_1">
  <g id="patch_1">
   <path d="M -0 374.544 
L 365.76 374.544 
L 365.76 0 
L -0 0 
L -0 374.544 
z
" style="fill: none; opacity: 0"/>
  </g>
  <g id="axes_1">
   <g id="patch_2">
    <path d="M 25.152 87.9552 
L 138.24 87.9552 
Q 147.168 87.9552 147.168 80.1144 
L 147.168 53.9784 
Q 147.168 46.1376 138.24 46.1376 
L 25.152 46.1376 
Q 16.224 46.1376 16.224 53.9784 
L 16.224 80.1144 
Q 16.224 87.9552 25.152 87.9552 
z
" clip-path="url(#p4180bfa25a)" style="fill: #201d1b; stroke: #6fd48d; stroke-width: 1.6; stroke-linejoin: miter"/>
   </g>
   <g id="patch_3">
    <path d="M 25.152 202.9536 
L 138.24 202.9536 
Q 147.168 202.9536 147.168 195.1128 
L 147.168 168.9768 
Q 147.168 161.136 138.24 161.136 
L 25.152 161.136 
Q 16.224 161.136 16.224 168.9768 
L 16.224 195.1128 
Q 16.224 202.9536 25.152 202.9536 
z
" clip-path="url(#p4180bfa25a)" style="fill: #201d1b; stroke: #ffb052; stroke-width: 1.6; stroke-linejoin: miter"/>
   </g>
   <g id="patch_4">
    <path d="M 25.152 317.952 
L 138.24 317.952 
Q 147.168 317.952 147.168 310.1112 
L 147.168 283.9752 
Q 147.168 276.1344 138.24 276.1344 
L 25.152 276.1344 
Q 16.224 276.1344 16.224 283.9752 
L 16.224 310.1112 
Q 16.224 317.952 25.152 317.952 
z
" clip-path="url(#p4180bfa25a)" style="fill: #201d1b; stroke: #c99cff; stroke-width: 1.6; stroke-linejoin: miter"/>
   </g>
   <g id="patch_5">
    <path d="M 194.784 108.864 
L 349.536 108.864 
Q 358.464 108.864 358.464 101.0232 
L 358.464 33.0696 
Q 358.464 25.2288 349.536 25.2288 
L 194.784 25.2288 
Q 185.856 25.2288 185.856 33.0696 
L 185.856 101.0232 
Q 185.856 108.864 194.784 108.864 
z
" clip-path="url(#p4180bfa25a)" style="fill: #201d1b; stroke: #6fd48d; stroke-width: 1.6; stroke-linejoin: miter"/>
   </g>
   <g id="patch_6">
    <path d="M 227.52 202.9536 
L 316.8 202.9536 
Q 325.728 202.9536 325.728 195.1128 
L 325.728 168.9768 
Q 325.728 161.136 316.8 161.136 
L 227.52 161.136 
Q 218.592 161.136 218.592 168.9768 
L 218.592 195.1128 
Q 218.592 202.9536 227.52 202.9536 
z
" clip-path="url(#p4180bfa25a)" style="fill: #201d1b; stroke: #ffb052; stroke-width: 1.6; stroke-linejoin: miter"/>
   </g>
   <g id="patch_7">
    <path d="M 194.784 346.7016 
L 349.536 346.7016 
Q 358.464 346.7016 358.464 338.8608 
L 358.464 255.2256 
Q 358.464 247.3848 349.536 247.3848 
L 194.784 247.3848 
Q 185.856 247.3848 185.856 255.2256 
L 185.856 338.8608 
Q 185.856 346.7016 194.784 346.7016 
z
" clip-path="url(#p4180bfa25a)" style="fill: #201d1b; stroke: #c99cff; stroke-width: 1.6; stroke-linejoin: miter"/>
   </g>
   <g id="patch_8">
    <path d="M 81.696 87.9552 
Q 81.696 124.5456 81.696 159.682556 
" clip-path="url(#p4180bfa25a)" style="fill: none; stroke: #a89f94; stroke-width: 1.3; stroke-linecap: round"/>
    <path d="M 84.096 154.882556 
L 81.696 159.682556 
L 79.296 154.882556 
z
" clip-path="url(#p4180bfa25a)" style="fill: #a89f94; stroke: #a89f94; stroke-width: 1.3; stroke-linecap: round"/>
   </g>
   <g id="patch_9">
    <path d="M 81.696 202.9536 
Q 81.696 239.544 81.696 274.680956 
" clip-path="url(#p4180bfa25a)" style="fill: none; stroke: #a89f94; stroke-width: 1.3; stroke-linecap: round"/>
    <path d="M 84.096 269.880956 
L 81.696 274.680956 
L 79.296 269.880956 
z
" clip-path="url(#p4180bfa25a)" style="fill: #a89f94; stroke: #a89f94; stroke-width: 1.3; stroke-linecap: round"/>
   </g>
   <g id="patch_10">
    <path d="M 147.168 67.0464 
Q 166.512 67.0464 184.402556 67.0464 
" clip-path="url(#p4180bfa25a)" style="fill: none; stroke: #a89f94; stroke-width: 1.3; stroke-linecap: round"/>
    <path d="M 179.602556 64.6464 
L 184.402556 67.0464 
L 179.602556 69.4464 
z
" clip-path="url(#p4180bfa25a)" style="fill: #a89f94; stroke: #a89f94; stroke-width: 1.3; stroke-linecap: round"/>
   </g>
   <g id="patch_11">
    <path d="M 147.168 182.0448 
Q 182.88 182.0448 217.138556 182.0448 
" clip-path="url(#p4180bfa25a)" style="fill: none; stroke: #a89f94; stroke-width: 1.3; stroke-linecap: round"/>
    <path d="M 212.338556 179.6448 
L 217.138556 182.0448 
L 212.338556 184.4448 
z
" clip-path="url(#p4180bfa25a)" style="fill: #a89f94; stroke: #a89f94; stroke-width: 1.3; stroke-linecap: round"/>
   </g>
   <g id="patch_12">
    <path d="M 147.168 297.0432 
Q 166.512 297.0432 184.402556 297.0432 
" clip-path="url(#p4180bfa25a)" style="fill: none; stroke: #a89f94; stroke-width: 1.3; stroke-linecap: round"/>
    <path d="M 179.602556 294.6432 
L 184.402556 297.0432 
L 179.602556 299.4432 
z
" clip-path="url(#p4180bfa25a)" style="fill: #a89f94; stroke: #a89f94; stroke-width: 1.3; stroke-linecap: round"/>
   </g>
   <g id="text_1">
    <!-- carrying a parcel? -->
    <g style="fill: #fff7eb" transform="translate(36.875687 69.805775) scale(0.1 -0.1)">
     <defs>
      <path id="DejaVuSans-63" d="M 3122 3366 
L 3122 2828 
Q 2878 2963 2633 3030 
Q 2388 3097 2138 3097 
Q 1578 3097 1268 2742 
Q 959 2388 959 1747 
Q 959 1106 1268 751 
Q 1578 397 2138 397 
Q 2388 397 2633 464 
Q 2878 531 3122 666 
L 3122 134 
Q 2881 22 2623 -34 
Q 2366 -91 2075 -91 
Q 1284 -91 818 406 
Q 353 903 353 1747 
Q 353 2603 823 3093 
Q 1294 3584 2113 3584 
Q 2378 3584 2631 3529 
Q 2884 3475 3122 3366 
z
" transform="scale(0.015625)"/>
      <path id="DejaVuSans-61" d="M 2194 1759 
Q 1497 1759 1228 1600 
Q 959 1441 959 1056 
Q 959 750 1161 570 
Q 1363 391 1709 391 
Q 2188 391 2477 730 
Q 2766 1069 2766 1631 
L 2766 1759 
L 2194 1759 
z
M 3341 1997 
L 3341 0 
L 2766 0 
L 2766 531 
Q 2569 213 2275 61 
Q 1981 -91 1556 -91 
Q 1019 -91 701 211 
Q 384 513 384 1019 
Q 384 1609 779 1909 
Q 1175 2209 1959 2209 
L 2766 2209 
L 2766 2266 
Q 2766 2663 2505 2880 
Q 2244 3097 1772 3097 
Q 1472 3097 1187 3025 
Q 903 2953 641 2809 
L 641 3341 
Q 956 3463 1253 3523 
Q 1550 3584 1831 3584 
Q 2591 3584 2966 3190 
Q 3341 2797 3341 1997 
z
" transform="scale(0.015625)"/>
      <path id="DejaVuSans-72" d="M 2631 2963 
Q 2534 3019 2420 3045 
Q 2306 3072 2169 3072 
Q 1681 3072 1420 2755 
Q 1159 2438 1159 1844 
L 1159 0 
L 581 0 
L 581 3500 
L 1159 3500 
L 1159 2956 
Q 1341 3275 1631 3429 
Q 1922 3584 2338 3584 
Q 2397 3584 2469 3576 
Q 2541 3569 2628 3553 
L 2631 2963 
z
" transform="scale(0.015625)"/>
      <path id="DejaVuSans-79" d="M 2059 -325 
Q 1816 -950 1584 -1140 
Q 1353 -1331 966 -1331 
L 506 -1331 
L 506 -850 
L 844 -850 
Q 1081 -850 1212 -737 
Q 1344 -625 1503 -206 
L 1606 56 
L 191 3500 
L 800 3500 
L 1894 763 
L 2988 3500 
L 3597 3500 
L 2059 -325 
z
" transform="scale(0.015625)"/>
      <path id="DejaVuSans-69" d="M 603 3500 
L 1178 3500 
L 1178 0 
L 603 0 
L 603 3500 
z
M 603 4863 
L 1178 4863 
L 1178 4134 
L 603 4134 
L 603 4863 
z
" transform="scale(0.015625)"/>
      <path id="DejaVuSans-6e" d="M 3513 2113 
L 3513 0 
L 2938 0 
L 2938 2094 
Q 2938 2591 2744 2837 
Q 2550 3084 2163 3084 
Q 1697 3084 1428 2787 
Q 1159 2491 1159 1978 
L 1159 0 
L 581 0 
L 581 3500 
L 1159 3500 
L 1159 2956 
Q 1366 3272 1645 3428 
Q 1925 3584 2291 3584 
Q 2894 3584 3203 3211 
Q 3513 2838 3513 2113 
z
" transform="scale(0.015625)"/>
      <path id="DejaVuSans-67" d="M 2906 1791 
Q 2906 2416 2648 2759 
Q 2391 3103 1925 3103 
Q 1463 3103 1205 2759 
Q 947 2416 947 1791 
Q 947 1169 1205 825 
Q 1463 481 1925 481 
Q 2391 481 2648 825 
Q 2906 1169 2906 1791 
z
M 3481 434 
Q 3481 -459 3084 -895 
Q 2688 -1331 1869 -1331 
Q 1566 -1331 1297 -1286 
Q 1028 -1241 775 -1147 
L 775 -588 
Q 1028 -725 1275 -790 
Q 1522 -856 1778 -856 
Q 2344 -856 2625 -561 
Q 2906 -266 2906 331 
L 2906 616 
Q 2728 306 2450 153 
Q 2172 0 1784 0 
Q 1141 0 747 490 
Q 353 981 353 1791 
Q 353 2603 747 3093 
Q 1141 3584 1784 3584 
Q 2172 3584 2450 3431 
Q 2728 3278 2906 2969 
L 2906 3500 
L 3481 3500 
L 3481 434 
z
" transform="scale(0.015625)"/>
      <path id="DejaVuSans-20" transform="scale(0.015625)"/>
      <path id="DejaVuSans-70" d="M 1159 525 
L 1159 -1331 
L 581 -1331 
L 581 3500 
L 1159 3500 
L 1159 2969 
Q 1341 3281 1617 3432 
Q 1894 3584 2278 3584 
Q 2916 3584 3314 3078 
Q 3713 2572 3713 1747 
Q 3713 922 3314 415 
Q 2916 -91 2278 -91 
Q 1894 -91 1617 61 
Q 1341 213 1159 525 
z
M 3116 1747 
Q 3116 2381 2855 2742 
Q 2594 3103 2138 3103 
Q 1681 3103 1420 2742 
Q 1159 2381 1159 1747 
Q 1159 1113 1420 752 
Q 1681 391 2138 391 
Q 2594 391 2855 752 
Q 3116 1113 3116 1747 
z
" transform="scale(0.015625)"/>
      <path id="DejaVuSans-65" d="M 3597 1894 
L 3597 1613 
L 953 1613 
Q 991 1019 1311 708 
Q 1631 397 2203 397 
Q 2534 397 2845 478 
Q 3156 559 3463 722 
L 3463 178 
Q 3153 47 2828 -22 
Q 2503 -91 2169 -91 
Q 1331 -91 842 396 
Q 353 884 353 1716 
Q 353 2575 817 3079 
Q 1281 3584 2069 3584 
Q 2775 3584 3186 3129 
Q 3597 2675 3597 1894 
z
M 3022 2063 
Q 3016 2534 2758 2815 
Q 2500 3097 2075 3097 
Q 1594 3097 1305 2825 
Q 1016 2553 972 2059 
L 3022 2063 
z
" transform="scale(0.015625)"/>
      <path id="DejaVuSans-6c" d="M 603 4863 
L 1178 4863 
L 1178 0 
L 603 0 
L 603 4863 
z
" transform="scale(0.015625)"/>
      <path id="DejaVuSans-3f" d="M 1222 794 
L 1856 794 
L 1856 0 
L 1222 0 
L 1222 794 
z
M 1838 1253 
L 1241 1253 
L 1241 1734 
Q 1241 2050 1328 2253 
Q 1416 2456 1697 2725 
L 1978 3003 
Q 2156 3169 2236 3316 
Q 2316 3463 2316 3616 
Q 2316 3894 2111 4066 
Q 1906 4238 1569 4238 
Q 1322 4238 1042 4128 
Q 763 4019 459 3809 
L 459 4397 
Q 753 4575 1054 4662 
Q 1356 4750 1678 4750 
Q 2253 4750 2601 4447 
Q 2950 4144 2950 3647 
Q 2950 3409 2837 3195 
Q 2725 2981 2444 2713 
L 2169 2444 
Q 2022 2297 1961 2214 
Q 1900 2131 1875 2053 
Q 1856 1988 1847 1894 
Q 1838 1800 1838 1638 
L 1838 1253 
z
" transform="scale(0.015625)"/>
     </defs>
     <use xlink:href="#DejaVuSans-63"/>
     <use xlink:href="#DejaVuSans-61" transform="translate(54.980469 0)"/>
     <use xlink:href="#DejaVuSans-72" transform="translate(116.259766 0)"/>
     <use xlink:href="#DejaVuSans-72" transform="translate(155.623047 0)"/>
     <use xlink:href="#DejaVuSans-79" transform="translate(196.736328 0)"/>
     <use xlink:href="#DejaVuSans-69" transform="translate(255.916016 0)"/>
     <use xlink:href="#DejaVuSans-6e" transform="translate(283.699219 0)"/>
     <use xlink:href="#DejaVuSans-67" transform="translate(347.078125 0)"/>
     <use xlink:href="#DejaVuSans-20" transform="translate(410.554688 0)"/>
     <use xlink:href="#DejaVuSans-61" transform="translate(442.341797 0)"/>
     <use xlink:href="#DejaVuSans-20" transform="translate(503.621094 0)"/>
     <use xlink:href="#DejaVuSans-70" transform="translate(535.408203 0)"/>
     <use xlink:href="#DejaVuSans-61" transform="translate(598.884766 0)"/>
     <use xlink:href="#DejaVuSans-72" transform="translate(660.164062 0)"/>
     <use xlink:href="#DejaVuSans-63" transform="translate(699.027344 0)"/>
     <use xlink:href="#DejaVuSans-65" transform="translate(754.007812 0)"/>
     <use xlink:href="#DejaVuSans-6c" transform="translate(815.53125 0)"/>
     <use xlink:href="#DejaVuSans-3f" transform="translate(843.314453 0)"/>
    </g>
   </g>
   <g id="text_2">
    <!-- best pickup? -->
    <g style="fill: #fff7eb" transform="translate(50.242875 178.008815) scale(0.1 -0.1)">
     <defs>
      <path id="DejaVuSans-62" d="M 3116 1747 
Q 3116 2381 2855 2742 
Q 2594 3103 2138 3103 
Q 1681 3103 1420 2742 
Q 1159 2381 1159 1747 
Q 1159 1113 1420 752 
Q 1681 391 2138 391 
Q 2594 391 2855 752 
Q 3116 1113 3116 1747 
z
M 1159 2969 
Q 1341 3281 1617 3432 
Q 1894 3584 2278 3584 
Q 2916 3584 3314 3078 
Q 3713 2572 3713 1747 
Q 3713 922 3314 415 
Q 2916 -91 2278 -91 
Q 1894 -91 1617 61 
Q 1341 213 1159 525 
L 1159 0 
L 581 0 
L 581 4863 
L 1159 4863 
L 1159 2969 
z
" transform="scale(0.015625)"/>
      <path id="DejaVuSans-73" d="M 2834 3397 
L 2834 2853 
Q 2591 2978 2328 3040 
Q 2066 3103 1784 3103 
Q 1356 3103 1142 2972 
Q 928 2841 928 2578 
Q 928 2378 1081 2264 
Q 1234 2150 1697 2047 
L 1894 2003 
Q 2506 1872 2764 1633 
Q 3022 1394 3022 966 
Q 3022 478 2636 193 
Q 2250 -91 1575 -91 
Q 1294 -91 989 -36 
Q 684 19 347 128 
L 347 722 
Q 666 556 975 473 
Q 1284 391 1588 391 
Q 1994 391 2212 530 
Q 2431 669 2431 922 
Q 2431 1156 2273 1281 
Q 2116 1406 1581 1522 
L 1381 1569 
Q 847 1681 609 1914 
Q 372 2147 372 2553 
Q 372 3047 722 3315 
Q 1072 3584 1716 3584 
Q 2034 3584 2315 3537 
Q 2597 3491 2834 3397 
z
" transform="scale(0.015625)"/>
      <path id="DejaVuSans-74" d="M 1172 4494 
L 1172 3500 
L 2356 3500 
L 2356 3053 
L 1172 3053 
L 1172 1153 
Q 1172 725 1289 603 
Q 1406 481 1766 481 
L 2356 481 
L 2356 0 
L 1766 0 
Q 1100 0 847 248 
Q 594 497 594 1153 
L 594 3053 
L 172 3053 
L 172 3500 
L 594 3500 
L 594 4494 
L 1172 4494 
z
" transform="scale(0.015625)"/>
      <path id="DejaVuSans-6b" d="M 581 4863 
L 1159 4863 
L 1159 1991 
L 2875 3500 
L 3609 3500 
L 1753 1863 
L 3688 0 
L 2938 0 
L 1159 1709 
L 1159 0 
L 581 0 
L 581 4863 
z
" transform="scale(0.015625)"/>
      <path id="DejaVuSans-75" d="M 544 1381 
L 544 3500 
L 1119 3500 
L 1119 1403 
Q 1119 906 1312 657 
Q 1506 409 1894 409 
Q 2359 409 2629 706 
Q 2900 1003 2900 1516 
L 2900 3500 
L 3475 3500 
L 3475 0 
L 2900 0 
L 2900 538 
Q 2691 219 2414 64 
Q 2138 -91 1772 -91 
Q 1169 -91 856 284 
Q 544 659 544 1381 
z
M 1991 3584 
L 1991 3584 
z
" transform="scale(0.015625)"/>
     </defs>
     <use xlink:href="#DejaVuSans-62"/>
     <use xlink:href="#DejaVuSans-65" transform="translate(63.476562 0)"/>
     <use xlink:href="#DejaVuSans-73" transform="translate(125 0)"/>
     <use xlink:href="#DejaVuSans-74" transform="translate(177.099609 0)"/>
     <use xlink:href="#DejaVuSans-20" transform="translate(216.308594 0)"/>
     <use xlink:href="#DejaVuSans-70" transform="translate(248.095703 0)"/>
     <use xlink:href="#DejaVuSans-69" transform="translate(311.572266 0)"/>
     <use xlink:href="#DejaVuSans-63" transform="translate(339.355469 0)"/>
     <use xlink:href="#DejaVuSans-6b" transform="translate(394.335938 0)"/>
     <use xlink:href="#DejaVuSans-75" transform="translate(449.121094 0)"/>
     <use xlink:href="#DejaVuSans-70" transform="translate(512.5 0)"/>
     <use xlink:href="#DejaVuSans-3f" transform="translate(575.976562 0)"/>
    </g>
   </g>
   <g id="text_3">
    <!-- best parcel in beliefs / view -->
    <g style="fill: #a89f94" transform="translate(35.195156 194.898295) scale(0.068 -0.068)">
     <defs>
      <path id="DejaVuSans-66" d="M 2375 4863 
L 2375 4384 
L 1825 4384 
Q 1516 4384 1395 4259 
Q 1275 4134 1275 3809 
L 1275 3500 
L 2222 3500 
L 2222 3053 
L 1275 3053 
L 1275 0 
L 697 0 
L 697 3053 
L 147 3053 
L 147 3500 
L 697 3500 
L 697 3744 
Q 697 4328 969 4595 
Q 1241 4863 1831 4863 
L 2375 4863 
z
" transform="scale(0.015625)"/>
      <path id="DejaVuSans-2f" d="M 1625 4666 
L 2156 4666 
L 531 -594 
L 0 -594 
L 1625 4666 
z
" transform="scale(0.015625)"/>
      <path id="DejaVuSans-76" d="M 191 3500 
L 800 3500 
L 1894 563 
L 2988 3500 
L 3597 3500 
L 2284 0 
L 1503 0 
L 191 3500 
z
" transform="scale(0.015625)"/>
      <path id="DejaVuSans-77" d="M 269 3500 
L 844 3500 
L 1563 769 
L 2278 3500 
L 2956 3500 
L 3675 769 
L 4391 3500 
L 4966 3500 
L 4050 0 
L 3372 0 
L 2619 2869 
L 1863 0 
L 1184 0 
L 269 3500 
z
" transform="scale(0.015625)"/>
     </defs>
     <use xlink:href="#DejaVuSans-62"/>
     <use xlink:href="#DejaVuSans-65" transform="translate(63.476562 0)"/>
     <use xlink:href="#DejaVuSans-73" transform="translate(125 0)"/>
     <use xlink:href="#DejaVuSans-74" transform="translate(177.099609 0)"/>
     <use xlink:href="#DejaVuSans-20" transform="translate(216.308594 0)"/>
     <use xlink:href="#DejaVuSans-70" transform="translate(248.095703 0)"/>
     <use xlink:href="#DejaVuSans-61" transform="translate(311.572266 0)"/>
     <use xlink:href="#DejaVuSans-72" transform="translate(372.851562 0)"/>
     <use xlink:href="#DejaVuSans-63" transform="translate(411.714844 0)"/>
     <use xlink:href="#DejaVuSans-65" transform="translate(466.695312 0)"/>
     <use xlink:href="#DejaVuSans-6c" transform="translate(528.21875 0)"/>
     <use xlink:href="#DejaVuSans-20" transform="translate(556.001953 0)"/>
     <use xlink:href="#DejaVuSans-69" transform="translate(587.789062 0)"/>
     <use xlink:href="#DejaVuSans-6e" transform="translate(615.572266 0)"/>
     <use xlink:href="#DejaVuSans-20" transform="translate(678.951172 0)"/>
     <use xlink:href="#DejaVuSans-62" transform="translate(710.738281 0)"/>
     <use xlink:href="#DejaVuSans-65" transform="translate(774.214844 0)"/>
     <use xlink:href="#DejaVuSans-6c" transform="translate(835.738281 0)"/>
     <use xlink:href="#DejaVuSans-69" transform="translate(863.521484 0)"/>
     <use xlink:href="#DejaVuSans-65" transform="translate(891.304688 0)"/>
     <use xlink:href="#DejaVuSans-66" transform="translate(952.828125 0)"/>
     <use xlink:href="#DejaVuSans-73" transform="translate(988.033203 0)"/>
     <use xlink:href="#DejaVuSans-20" transform="translate(1040.132812 0)"/>
     <use xlink:href="#DejaVuSans-2f" transform="translate(1071.919922 0)"/>
     <use xlink:href="#DejaVuSans-20" transform="translate(1105.611328 0)"/>
     <use xlink:href="#DejaVuSans-76" transform="translate(1137.398438 0)"/>
     <use xlink:href="#DejaVuSans-69" transform="translate(1196.578125 0)"/>
     <use xlink:href="#DejaVuSans-65" transform="translate(1224.361328 0)"/>
     <use xlink:href="#DejaVuSans-77" transform="translate(1285.884766 0)"/>
    </g>
   </g>
   <g id="text_4">
    <!-- explore / patrol -->
    <g style="fill: #fff7eb" transform="translate(43.653031 293.007215) scale(0.1 -0.1)">
     <defs>
      <path id="DejaVuSans-78" d="M 3513 3500 
L 2247 1797 
L 3578 0 
L 2900 0 
L 1881 1375 
L 863 0 
L 184 0 
L 1544 1831 
L 300 3500 
L 978 3500 
L 1906 2253 
L 2834 3500 
L 3513 3500 
z
" transform="scale(0.015625)"/>
      <path id="DejaVuSans-6f" d="M 1959 3097 
Q 1497 3097 1228 2736 
Q 959 2375 959 1747 
Q 959 1119 1226 758 
Q 1494 397 1959 397 
Q 2419 397 2687 759 
Q 2956 1122 2956 1747 
Q 2956 2369 2687 2733 
Q 2419 3097 1959 3097 
z
M 1959 3584 
Q 2709 3584 3137 3096 
Q 3566 2609 3566 1747 
Q 3566 888 3137 398 
Q 2709 -91 1959 -91 
Q 1206 -91 779 398 
Q 353 888 353 1747 
Q 353 2609 779 3096 
Q 1206 3584 1959 3584 
z
" transform="scale(0.015625)"/>
     </defs>
     <use xlink:href="#DejaVuSans-65"/>
     <use xlink:href="#DejaVuSans-78" transform="translate(59.773438 0)"/>
     <use xlink:href="#DejaVuSans-70" transform="translate(118.953125 0)"/>
     <use xlink:href="#DejaVuSans-6c" transform="translate(182.429688 0)"/>
     <use xlink:href="#DejaVuSans-6f" transform="translate(210.212891 0)"/>
     <use xlink:href="#DejaVuSans-72" transform="translate(271.394531 0)"/>
     <use xlink:href="#DejaVuSans-65" transform="translate(310.257812 0)"/>
     <use xlink:href="#DejaVuSans-20" transform="translate(371.78125 0)"/>
     <use xlink:href="#DejaVuSans-2f" transform="translate(403.568359 0)"/>
     <use xlink:href="#DejaVuSans-20" transform="translate(437.259766 0)"/>
     <use xlink:href="#DejaVuSans-70" transform="translate(469.046875 0)"/>
     <use xlink:href="#DejaVuSans-61" transform="translate(532.523438 0)"/>
     <use xlink:href="#DejaVuSans-74" transform="translate(593.802734 0)"/>
     <use xlink:href="#DejaVuSans-72" transform="translate(633.011719 0)"/>
     <use xlink:href="#DejaVuSans-6f" transform="translate(671.875 0)"/>
     <use xlink:href="#DejaVuSans-6c" transform="translate(733.056641 0)"/>
    </g>
   </g>
   <g id="text_5">
    <!-- spawners -->
    <g style="fill: #a89f94" transform="translate(65.4865 309.896695) scale(0.068 -0.068)">
     <use xlink:href="#DejaVuSans-73"/>
     <use xlink:href="#DejaVuSans-70" transform="translate(52.099609 0)"/>
     <use xlink:href="#DejaVuSans-61" transform="translate(115.576172 0)"/>
     <use xlink:href="#DejaVuSans-77" transform="translate(176.855469 0)"/>
     <use xlink:href="#DejaVuSans-6e" transform="translate(258.642578 0)"/>
     <use xlink:href="#DejaVuSans-65" transform="translate(322.021484 0)"/>
     <use xlink:href="#DejaVuSans-72" transform="translate(383.544922 0)"/>
     <use xlink:href="#DejaVuSans-73" transform="translate(424.658203 0)"/>
    </g>
   </g>
   <g id="text_6">
    <!-- deliver  vs.  detour -->
    <g style="fill: #6fd48d" transform="translate(227.391992 42.225006) scale(0.095 -0.095)">
     <defs>
      <path id="DejaVuSans-64" d="M 2906 2969 
L 2906 4863 
L 3481 4863 
L 3481 0 
L 2906 0 
L 2906 525 
Q 2725 213 2448 61 
Q 2172 -91 1784 -91 
Q 1150 -91 751 415 
Q 353 922 353 1747 
Q 353 2572 751 3078 
Q 1150 3584 1784 3584 
Q 2172 3584 2448 3432 
Q 2725 3281 2906 2969 
z
M 947 1747 
Q 947 1113 1208 752 
Q 1469 391 1925 391 
Q 2381 391 2643 752 
Q 2906 1113 2906 1747 
Q 2906 2381 2643 2742 
Q 2381 3103 1925 3103 
Q 1469 3103 1208 2742 
Q 947 2381 947 1747 
z
" transform="scale(0.015625)"/>
      <path id="DejaVuSans-2e" d="M 684 794 
L 1344 794 
L 1344 0 
L 684 0 
L 684 794 
z
" transform="scale(0.015625)"/>
     </defs>
     <use xlink:href="#DejaVuSans-64"/>
     <use xlink:href="#DejaVuSans-65" transform="translate(63.476562 0)"/>
     <use xlink:href="#DejaVuSans-6c" transform="translate(125 0)"/>
     <use xlink:href="#DejaVuSans-69" transform="translate(152.783203 0)"/>
     <use xlink:href="#DejaVuSans-76" transform="translate(180.566406 0)"/>
     <use xlink:href="#DejaVuSans-65" transform="translate(239.746094 0)"/>
     <use xlink:href="#DejaVuSans-72" transform="translate(301.269531 0)"/>
     <use xlink:href="#DejaVuSans-20" transform="translate(342.382812 0)"/>
     <use xlink:href="#DejaVuSans-20" transform="translate(374.169922 0)"/>
     <use xlink:href="#DejaVuSans-76" transform="translate(405.957031 0)"/>
     <use xlink:href="#DejaVuSans-73" transform="translate(465.136719 0)"/>
     <use xlink:href="#DejaVuSans-2e" transform="translate(517.236328 0)"/>
     <use xlink:href="#DejaVuSans-20" transform="translate(549.023438 0)"/>
     <use xlink:href="#DejaVuSans-20" transform="translate(580.810547 0)"/>
     <use xlink:href="#DejaVuSans-64" transform="translate(612.597656 0)"/>
     <use xlink:href="#DejaVuSans-65" transform="translate(676.074219 0)"/>
     <use xlink:href="#DejaVuSans-74" transform="translate(737.597656 0)"/>
     <use xlink:href="#DejaVuSans-6f" transform="translate(776.806641 0)"/>
     <use xlink:href="#DejaVuSans-75" transform="translate(837.988281 0)"/>
     <use xlink:href="#DejaVuSans-72" transform="translate(901.367188 0)"/>
    </g>
   </g>
   <g id="text_7">
    <!-- • worth grabbing another → go_pick_up -->
    <g style="fill: #a89f94" transform="translate(197.76 61.039819) scale(0.07 -0.07)">
     <defs>
      <path id="DejaVuSans-2022" d="M 959 2381 
Q 959 2769 1229 3036 
Q 1500 3303 1894 3303 
Q 2281 3303 2548 3036 
Q 2816 2769 2816 2381 
Q 2816 1991 2547 1722 
Q 2278 1453 1888 1453 
Q 1497 1453 1228 1722 
Q 959 1991 959 2381 
z
" transform="scale(0.015625)"/>
      <path id="DejaVuSans-68" d="M 3513 2113 
L 3513 0 
L 2938 0 
L 2938 2094 
Q 2938 2591 2744 2837 
Q 2550 3084 2163 3084 
Q 1697 3084 1428 2787 
Q 1159 2491 1159 1978 
L 1159 0 
L 581 0 
L 581 4863 
L 1159 4863 
L 1159 2956 
Q 1366 3272 1645 3428 
Q 1925 3584 2291 3584 
Q 2894 3584 3203 3211 
Q 3513 2838 3513 2113 
z
" transform="scale(0.015625)"/>
      <path id="DejaVuSans-2192" d="M 5050 2147 
L 5050 1866 
L 3822 638 
L 3447 1013 
L 4175 1741 
L 366 1741 
L 366 2272 
L 4175 2272 
L 3447 3000 
L 3822 3375 
L 5050 2147 
z
" transform="scale(0.015625)"/>
      <path id="DejaVuSans-5f" d="M 3263 -1063 
L 3263 -1509 
L -63 -1509 
L -63 -1063 
L 3263 -1063 
z
" transform="scale(0.015625)"/>
     </defs>
     <use xlink:href="#DejaVuSans-2022"/>
     <use xlink:href="#DejaVuSans-20" transform="translate(58.984375 0)"/>
     <use xlink:href="#DejaVuSans-77" transform="translate(90.771484 0)"/>
     <use xlink:href="#DejaVuSans-6f" transform="translate(172.558594 0)"/>
     <use xlink:href="#DejaVuSans-72" transform="translate(233.740234 0)"/>
     <use xlink:href="#DejaVuSans-74" transform="translate(274.853516 0)"/>
     <use xlink:href="#DejaVuSans-68" transform="translate(314.0625 0)"/>
     <use xlink:href="#DejaVuSans-20" transform="translate(377.441406 0)"/>
     <use xlink:href="#DejaVuSans-67" transform="translate(409.228516 0)"/>
     <use xlink:href="#DejaVuSans-72" transform="translate(472.705078 0)"/>
     <use xlink:href="#DejaVuSans-61" transform="translate(513.818359 0)"/>
     <use xlink:href="#DejaVuSans-62" transform="translate(575.097656 0)"/>
     <use xlink:href="#DejaVuSans-62" transform="translate(638.574219 0)"/>
     <use xlink:href="#DejaVuSans-69" transform="translate(702.050781 0)"/>
     <use xlink:href="#DejaVuSans-6e" transform="translate(729.833984 0)"/>
     <use xlink:href="#DejaVuSans-67" transform="translate(793.212891 0)"/>
     <use xlink:href="#DejaVuSans-20" transform="translate(856.689453 0)"/>
     <use xlink:href="#DejaVuSans-61" transform="translate(888.476562 0)"/>
     <use xlink:href="#DejaVuSans-6e" transform="translate(949.755859 0)"/>
     <use xlink:href="#DejaVuSans-6f" transform="translate(1013.134766 0)"/>
     <use xlink:href="#DejaVuSans-74" transform="translate(1074.316406 0)"/>
     <use xlink:href="#DejaVuSans-68" transform="translate(1113.525391 0)"/>
     <use xlink:href="#DejaVuSans-65" transform="translate(1176.904297 0)"/>
     <use xlink:href="#DejaVuSans-72" transform="translate(1238.427734 0)"/>
     <use xlink:href="#DejaVuSans-20" transform="translate(1279.541016 0)"/>
     <use xlink:href="#DejaVuSans-2192" transform="translate(1311.328125 0)"/>
     <use xlink:href="#DejaVuSans-20" transform="translate(1395.117188 0)"/>
     <use xlink:href="#DejaVuSans-67" transform="translate(1426.904297 0)"/>
     <use xlink:href="#DejaVuSans-6f" transform="translate(1490.380859 0)"/>
     <use xlink:href="#DejaVuSans-5f" transform="translate(1551.5625 0)"/>
     <use xlink:href="#DejaVuSans-70" transform="translate(1601.5625 0)"/>
     <use xlink:href="#DejaVuSans-69" transform="translate(1665.039062 0)"/>
     <use xlink:href="#DejaVuSans-63" transform="translate(1692.822266 0)"/>
     <use xlink:href="#DejaVuSans-6b" transform="translate(1747.802734 0)"/>
     <use xlink:href="#DejaVuSans-5f" transform="translate(1805.712891 0)"/>
     <use xlink:href="#DejaVuSans-75" transform="translate(1855.712891 0)"/>
     <use xlink:href="#DejaVuSans-70" transform="translate(1919.091797 0)"/>
    </g>
   </g>
   <g id="text_8">
    <!-- • else → go_deliver -->
    <g style="fill: #a89f94" transform="translate(197.76 79.857739) scale(0.07 -0.07)">
     <use xlink:href="#DejaVuSans-2022"/>
     <use xlink:href="#DejaVuSans-20" transform="translate(58.984375 0)"/>
     <use xlink:href="#DejaVuSans-65" transform="translate(90.771484 0)"/>
     <use xlink:href="#DejaVuSans-6c" transform="translate(152.294922 0)"/>
     <use xlink:href="#DejaVuSans-73" transform="translate(180.078125 0)"/>
     <use xlink:href="#DejaVuSans-65" transform="translate(232.177734 0)"/>
     <use xlink:href="#DejaVuSans-20" transform="translate(293.701172 0)"/>
     <use xlink:href="#DejaVuSans-2192" transform="translate(325.488281 0)"/>
     <use xlink:href="#DejaVuSans-20" transform="translate(409.277344 0)"/>
     <use xlink:href="#DejaVuSans-67" transform="translate(441.064453 0)"/>
     <use xlink:href="#DejaVuSans-6f" transform="translate(504.541016 0)"/>
     <use xlink:href="#DejaVuSans-5f" transform="translate(565.722656 0)"/>
     <use xlink:href="#DejaVuSans-64" transform="translate(615.722656 0)"/>
     <use xlink:href="#DejaVuSans-65" transform="translate(679.199219 0)"/>
     <use xlink:href="#DejaVuSans-6c" transform="translate(740.722656 0)"/>
     <use xlink:href="#DejaVuSans-69" transform="translate(768.505859 0)"/>
     <use xlink:href="#DejaVuSans-76" transform="translate(796.289062 0)"/>
     <use xlink:href="#DejaVuSans-65" transform="translate(855.46875 0)"/>
     <use xlink:href="#DejaVuSans-72" transform="translate(916.992188 0)"/>
    </g>
   </g>
   <g id="text_9">
    <!-- go_pick_up -->
    <g style="fill: #fff7eb" transform="translate(244.375625 184.665113) scale(0.1 -0.1)">
     <use xlink:href="#DejaVuSans-67"/>
     <use xlink:href="#DejaVuSans-6f" transform="translate(63.476562 0)"/>
     <use xlink:href="#DejaVuSans-5f" transform="translate(124.658203 0)"/>
     <use xlink:href="#DejaVuSans-70" transform="translate(174.658203 0)"/>
     <use xlink:href="#DejaVuSans-69" transform="translate(238.134766 0)"/>
     <use xlink:href="#DejaVuSans-63" transform="translate(265.917969 0)"/>
     <use xlink:href="#DejaVuSans-6b" transform="translate(320.898438 0)"/>
     <use xlink:href="#DejaVuSans-5f" transform="translate(378.808594 0)"/>
     <use xlink:href="#DejaVuSans-75" transform="translate(428.808594 0)"/>
     <use xlink:href="#DejaVuSans-70" transform="translate(492.1875 0)"/>
    </g>
   </g>
   <g id="text_10">
    <!-- exploration modes -->
    <g style="fill: #c99cff" transform="translate(227.849922 264.381006) scale(0.095 -0.095)">
     <defs>
      <path id="DejaVuSans-6d" d="M 3328 2828 
Q 3544 3216 3844 3400 
Q 4144 3584 4550 3584 
Q 5097 3584 5394 3201 
Q 5691 2819 5691 2113 
L 5691 0 
L 5113 0 
L 5113 2094 
Q 5113 2597 4934 2840 
Q 4756 3084 4391 3084 
Q 3944 3084 3684 2787 
Q 3425 2491 3425 1978 
L 3425 0 
L 2847 0 
L 2847 2094 
Q 2847 2600 2669 2842 
Q 2491 3084 2119 3084 
Q 1678 3084 1418 2786 
Q 1159 2488 1159 1978 
L 1159 0 
L 581 0 
L 581 3500 
L 1159 3500 
L 1159 2956 
Q 1356 3278 1631 3431 
Q 1906 3584 2284 3584 
Q 2666 3584 2933 3390 
Q 3200 3197 3328 2828 
z
" transform="scale(0.015625)"/>
     </defs>
     <use xlink:href="#DejaVuSans-65"/>
     <use xlink:href="#DejaVuSans-78" transform="translate(59.773438 0)"/>
     <use xlink:href="#DejaVuSans-70" transform="translate(118.953125 0)"/>
     <use xlink:href="#DejaVuSans-6c" transform="translate(182.429688 0)"/>
     <use xlink:href="#DejaVuSans-6f" transform="translate(210.212891 0)"/>
     <use xlink:href="#DejaVuSans-72" transform="translate(271.394531 0)"/>
     <use xlink:href="#DejaVuSans-61" transform="translate(312.507812 0)"/>
     <use xlink:href="#DejaVuSans-74" transform="translate(373.787109 0)"/>
     <use xlink:href="#DejaVuSans-69" transform="translate(412.996094 0)"/>
     <use xlink:href="#DejaVuSans-6f" transform="translate(440.779297 0)"/>
     <use xlink:href="#DejaVuSans-6e" transform="translate(501.960938 0)"/>
     <use xlink:href="#DejaVuSans-20" transform="translate(565.339844 0)"/>
     <use xlink:href="#DejaVuSans-6d" transform="translate(597.126953 0)"/>
     <use xlink:href="#DejaVuSans-6f" transform="translate(694.539062 0)"/>
     <use xlink:href="#DejaVuSans-64" transform="translate(755.720703 0)"/>
     <use xlink:href="#DejaVuSans-65" transform="translate(819.197266 0)"/>
     <use xlink:href="#DejaVuSans-73" transform="translate(880.720703 0)"/>
    </g>
   </g>
   <g id="text_11">
    <!-- • frequent → camp nearest -->
    <g style="fill: #a89f94" transform="translate(197.76 283.293162) scale(0.07 -0.07)">
     <defs>
      <path id="DejaVuSans-71" d="M 947 1747 
Q 947 1113 1208 752 
Q 1469 391 1925 391 
Q 2381 391 2643 752 
Q 2906 1113 2906 1747 
Q 2906 2381 2643 2742 
Q 2381 3103 1925 3103 
Q 1469 3103 1208 2742 
Q 947 2381 947 1747 
z
M 2906 525 
Q 2725 213 2448 61 
Q 2172 -91 1784 -91 
Q 1150 -91 751 415 
Q 353 922 353 1747 
Q 353 2572 751 3078 
Q 1150 3584 1784 3584 
Q 2172 3584 2448 3432 
Q 2725 3281 2906 2969 
L 2906 3500 
L 3481 3500 
L 3481 -1331 
L 2906 -1331 
L 2906 525 
z
" transform="scale(0.015625)"/>
     </defs>
     <use xlink:href="#DejaVuSans-2022"/>
     <use xlink:href="#DejaVuSans-20" transform="translate(58.984375 0)"/>
     <use xlink:href="#DejaVuSans-66" transform="translate(90.771484 0)"/>
     <use xlink:href="#DejaVuSans-72" transform="translate(125.976562 0)"/>
     <use xlink:href="#DejaVuSans-65" transform="translate(164.839844 0)"/>
     <use xlink:href="#DejaVuSans-71" transform="translate(226.363281 0)"/>
     <use xlink:href="#DejaVuSans-75" transform="translate(289.839844 0)"/>
     <use xlink:href="#DejaVuSans-65" transform="translate(353.21875 0)"/>
     <use xlink:href="#DejaVuSans-6e" transform="translate(414.742188 0)"/>
     <use xlink:href="#DejaVuSans-74" transform="translate(478.121094 0)"/>
     <use xlink:href="#DejaVuSans-20" transform="translate(517.330078 0)"/>
     <use xlink:href="#DejaVuSans-2192" transform="translate(549.117188 0)"/>
     <use xlink:href="#DejaVuSans-20" transform="translate(632.90625 0)"/>
     <use xlink:href="#DejaVuSans-63" transform="translate(664.693359 0)"/>
     <use xlink:href="#DejaVuSans-61" transform="translate(719.673828 0)"/>
     <use xlink:href="#DejaVuSans-6d" transform="translate(780.953125 0)"/>
     <use xlink:href="#DejaVuSans-70" transform="translate(878.365234 0)"/>
     <use xlink:href="#DejaVuSans-20" transform="translate(941.841797 0)"/>
     <use xlink:href="#DejaVuSans-6e" transform="translate(973.628906 0)"/>
     <use xlink:href="#DejaVuSans-65" transform="translate(1037.007812 0)"/>
     <use xlink:href="#DejaVuSans-61" transform="translate(1098.53125 0)"/>
     <use xlink:href="#DejaVuSans-72" transform="translate(1159.810547 0)"/>
     <use xlink:href="#DejaVuSans-65" transform="translate(1198.673828 0)"/>
     <use xlink:href="#DejaVuSans-73" transform="translate(1260.197266 0)"/>
     <use xlink:href="#DejaVuSans-74" transform="translate(1312.296875 0)"/>
    </g>
   </g>
   <g id="text_12">
    <!-- • sparse / rare → patrol + dwell -->
    <g style="fill: #a89f94" transform="translate(197.76 302.111083) scale(0.07 -0.07)">
     <defs>
      <path id="DejaVuSans-2b" d="M 2944 4013 
L 2944 2272 
L 4684 2272 
L 4684 1741 
L 2944 1741 
L 2944 0 
L 2419 0 
L 2419 1741 
L 678 1741 
L 678 2272 
L 2419 2272 
L 2419 4013 
L 2944 4013 
z
" transform="scale(0.015625)"/>
     </defs>
     <use xlink:href="#DejaVuSans-2022"/>
     <use xlink:href="#DejaVuSans-20" transform="translate(58.984375 0)"/>
     <use xlink:href="#DejaVuSans-73" transform="translate(90.771484 0)"/>
     <use xlink:href="#DejaVuSans-70" transform="translate(142.871094 0)"/>
     <use xlink:href="#DejaVuSans-61" transform="translate(206.347656 0)"/>
     <use xlink:href="#DejaVuSans-72" transform="translate(267.626953 0)"/>
     <use xlink:href="#DejaVuSans-73" transform="translate(308.740234 0)"/>
     <use xlink:href="#DejaVuSans-65" transform="translate(360.839844 0)"/>
     <use xlink:href="#DejaVuSans-20" transform="translate(422.363281 0)"/>
     <use xlink:href="#DejaVuSans-2f" transform="translate(454.150391 0)"/>
     <use xlink:href="#DejaVuSans-20" transform="translate(487.841797 0)"/>
     <use xlink:href="#DejaVuSans-72" transform="translate(519.628906 0)"/>
     <use xlink:href="#DejaVuSans-61" transform="translate(560.742188 0)"/>
     <use xlink:href="#DejaVuSans-72" transform="translate(622.021484 0)"/>
     <use xlink:href="#DejaVuSans-65" transform="translate(660.884766 0)"/>
     <use xlink:href="#DejaVuSans-20" transform="translate(722.408203 0)"/>
     <use xlink:href="#DejaVuSans-2192" transform="translate(754.195312 0)"/>
     <use xlink:href="#DejaVuSans-20" transform="translate(837.984375 0)"/>
     <use xlink:href="#DejaVuSans-70" transform="translate(869.771484 0)"/>
     <use xlink:href="#DejaVuSans-61" transform="translate(933.248047 0)"/>
     <use xlink:href="#DejaVuSans-74" transform="translate(994.527344 0)"/>
     <use xlink:href="#DejaVuSans-72" transform="translate(1033.736328 0)"/>
     <use xlink:href="#DejaVuSans-6f" transform="translate(1072.599609 0)"/>
     <use xlink:href="#DejaVuSans-6c" transform="translate(1133.78125 0)"/>
     <use xlink:href="#DejaVuSans-20" transform="translate(1161.564453 0)"/>
     <use xlink:href="#DejaVuSans-2b" transform="translate(1193.351562 0)"/>
     <use xlink:href="#DejaVuSans-20" transform="translate(1277.140625 0)"/>
     <use xlink:href="#DejaVuSans-64" transform="translate(1308.927734 0)"/>
     <use xlink:href="#DejaVuSans-77" transform="translate(1372.404297 0)"/>
     <use xlink:href="#DejaVuSans-65" transform="translate(1454.191406 0)"/>
     <use xlink:href="#DejaVuSans-6c" transform="translate(1515.714844 0)"/>
     <use xlink:href="#DejaVuSans-6c" transform="translate(1543.498047 0)"/>
    </g>
   </g>
   <g id="text_13">
    <!-- • no zone spawner → half-point -->
    <g style="fill: #a89f94" transform="translate(197.76 320.929002) scale(0.07 -0.07)">
     <defs>
      <path id="DejaVuSans-7a" d="M 353 3500 
L 3084 3500 
L 3084 2975 
L 922 459 
L 3084 459 
L 3084 0 
L 275 0 
L 275 525 
L 2438 3041 
L 353 3041 
L 353 3500 
z
" transform="scale(0.015625)"/>
      <path id="DejaVuSans-2d" d="M 313 2009 
L 1997 2009 
L 1997 1497 
L 313 1497 
L 313 2009 
z
" transform="scale(0.015625)"/>
     </defs>
     <use xlink:href="#DejaVuSans-2022"/>
     <use xlink:href="#DejaVuSans-20" transform="translate(58.984375 0)"/>
     <use xlink:href="#DejaVuSans-6e" transform="translate(90.771484 0)"/>
     <use xlink:href="#DejaVuSans-6f" transform="translate(154.150391 0)"/>
     <use xlink:href="#DejaVuSans-20" transform="translate(215.332031 0)"/>
     <use xlink:href="#DejaVuSans-7a" transform="translate(247.119141 0)"/>
     <use xlink:href="#DejaVuSans-6f" transform="translate(299.609375 0)"/>
     <use xlink:href="#DejaVuSans-6e" transform="translate(360.791016 0)"/>
     <use xlink:href="#DejaVuSans-65" transform="translate(424.169922 0)"/>
     <use xlink:href="#DejaVuSans-20" transform="translate(485.693359 0)"/>
     <use xlink:href="#DejaVuSans-73" transform="translate(517.480469 0)"/>
     <use xlink:href="#DejaVuSans-70" transform="translate(569.580078 0)"/>
     <use xlink:href="#DejaVuSans-61" transform="translate(633.056641 0)"/>
     <use xlink:href="#DejaVuSans-77" transform="translate(694.335938 0)"/>
     <use xlink:href="#DejaVuSans-6e" transform="translate(776.123047 0)"/>
     <use xlink:href="#DejaVuSans-65" transform="translate(839.501953 0)"/>
     <use xlink:href="#DejaVuSans-72" transform="translate(901.025391 0)"/>
     <use xlink:href="#DejaVuSans-20" transform="translate(942.138672 0)"/>
     <use xlink:href="#DejaVuSans-2192" transform="translate(973.925781 0)"/>
     <use xlink:href="#DejaVuSans-20" transform="translate(1057.714844 0)"/>
     <use xlink:href="#DejaVuSans-68" transform="translate(1089.501953 0)"/>
     <use xlink:href="#DejaVuSans-61" transform="translate(1152.880859 0)"/>
     <use xlink:href="#DejaVuSans-6c" transform="translate(1214.160156 0)"/>
     <use xlink:href="#DejaVuSans-66" transform="translate(1241.943359 0)"/>
     <use xlink:href="#DejaVuSans-2d" transform="translate(1271.648438 0)"/>
     <use xlink:href="#DejaVuSans-70" transform="translate(1307.732422 0)"/>
     <use xlink:href="#DejaVuSans-6f" transform="translate(1371.208984 0)"/>
     <use xlink:href="#DejaVuSans-69" transform="translate(1432.390625 0)"/>
     <use xlink:href="#DejaVuSans-6e" transform="translate(1460.173828 0)"/>
     <use xlink:href="#DejaVuSans-74" transform="translate(1523.552734 0)"/>
    </g>
   </g>
   <g id="text_14">
    <!-- no -->
    <g style="fill: #a89f94" transform="translate(94.5695 126.7531) scale(0.08 -0.08)">
     <use xlink:href="#DejaVuSans-6e"/>
     <use xlink:href="#DejaVuSans-6f" transform="translate(63.378906 0)"/>
    </g>
   </g>
   <g id="text_15">
    <!-- none -->
    <g style="fill: #a89f94" transform="translate(89.57325 241.7515) scale(0.08 -0.08)">
     <use xlink:href="#DejaVuSans-6e"/>
     <use xlink:href="#DejaVuSans-6f" transform="translate(63.378906 0)"/>
     <use xlink:href="#DejaVuSans-6e" transform="translate(124.560547 0)"/>
     <use xlink:href="#DejaVuSans-65" transform="translate(187.939453 0)"/>
    </g>
   </g>
   <g id="text_16">
    <!-- yes -->
    <g style="fill: #a89f94" transform="translate(159.5995 60.36766) scale(0.08 -0.08)">
     <use xlink:href="#DejaVuSans-79"/>
     <use xlink:href="#DejaVuSans-65" transform="translate(59.179688 0)"/>
     <use xlink:href="#DejaVuSans-73" transform="translate(120.703125 0)"/>
    </g>
   </g>
   <g id="text_17">
    <!-- yes -->
    <g style="fill: #a89f94" transform="translate(175.9675 175.36606) scale(0.08 -0.08)">
     <use xlink:href="#DejaVuSans-79"/>
     <use xlink:href="#DejaVuSans-65" transform="translate(59.179688 0)"/>
     <use xlink:href="#DejaVuSans-73" transform="translate(120.703125 0)"/>
    </g>
   </g>
  </g>
 </g>
 <defs>
  <clipPath id="p4180bfa25a">
   <rect x="4.32" y="4.32" width="357.12" height="365.904"/>
  </clipPath>
 </defs>
</svg>
