<?xml version="1.0" encoding="utf-8" standalone="no"?>
<!DOCTYPE svg PUBLIC "-//W3C//DTD SVG 1.1//EN"
  "http://www.w3.org/Graphics/SVG/1.1/DTD/svg11.dtd">
<svg xmlns:xlink="http://www.w3.org/1999/xlink" width="309.96pt" height="418.896pt" viewBox="0 0 309.96 418.896" xmlns="http://www.w3.org/2000/svg" version="1.1">
 <metadata>
  <rdf:RDF xmlns:dc="http://purl.org/dc/elements/1.1/" xmlns:cc="http://creativecommons.org/ns#" xmlns:rdf="http://www.w3.org/1999/02/22-rdf-syntax-ns#">
   <cc:Work>
    <dc:type rdf:resource="http://purl.org/dc/dcmitype/StillImage"/>
    <dc:date>2026-06-20T16:57:17.084800</dc:date>
    <dc:format>image/svg+xml</dc:format>
    <dc:creator>
     <cc:Agent>
      <dc:title>Matplotlib v3.10.9, https://matplotlib.org/</dc:title>
     </cc:Agent>
    </dc:creator>
   </cc:Work>
  </rdf:RDF>
 </metadata>
 <defs>
  <style type="text/css">*{stroke-linejoin: round; stroke-linecap: butt}</style>
 </defs>
 <g id="figure_1">
  <g id="patch_1">
   <path d="M -0 418.896 
L 309.96 418.896 
L 309.96 0 
L -0 0 
L -0 418.896 
z
" style="fill: none; opacity: 0"/>
  </g>
  <g id="axes_1">
   <g id="patch_2">
    <path d="M 34.452 64.3932 
L 154.98 64.3932 
Q 164.0196 64.3932 164.0196 55.602 
L 164.0196 23.3676 
Q 164.0196 14.5764 154.98 14.5764 
L 34.452 14.5764 
Q 25.4124 14.5764 25.4124 23.3676 
L 25.4124 55.602 
Q 25.4124 64.3932 34.452 64.3932 
z
" clip-path="url(#p4312638512)" style="fill: #201d1b; stroke: #55c3ff; stroke-width: 1.6; stroke-linejoin: miter"/>
   </g>
   <g id="patch_3">
    <path d="M 34.452 146.4444 
L 154.98 146.4444 
Q 164.0196 146.4444 164.0196 137.6532 
L 164.0196 105.4188 
Q 164.0196 96.6276 154.98 96.6276 
L 34.452 96.6276 
Q 25.4124 96.6276 25.4124 105.4188 
L 25.4124 137.6532 
Q 25.4124 146.4444 34.452 146.4444 
z
" clip-path="url(#p4312638512)" style="fill: #201d1b; stroke: #6fd48d; stroke-width: 1.6; stroke-linejoin: miter"/>
   </g>
   <g id="patch_4">
    <path d="M 34.452 228.4956 
L 154.98 228.4956 
Q 164.0196 228.4956 164.0196 219.7044 
L 164.0196 187.47 
Q 164.0196 178.6788 154.98 178.6788 
L 34.452 178.6788 
Q 25.4124 178.6788 25.4124 187.47 
L 25.4124 219.7044 
Q 25.4124 228.4956 34.452 228.4956 
z
" clip-path="url(#p4312638512)" style="fill: #201d1b; stroke: #ffb052; stroke-width: 1.6; stroke-linejoin: miter"/>
   </g>
   <g id="patch_5">
    <path d="M 34.452 310.5468 
L 154.98 310.5468 
Q 164.0196 310.5468 164.0196 301.7556 
L 164.0196 269.5212 
Q 164.0196 260.73 154.98 260.73 
L 34.452 260.73 
Q 25.4124 260.73 25.4124 269.5212 
L 25.4124 301.7556 
Q 25.4124 310.5468 34.452 310.5468 
z
" clip-path="url(#p4312638512)" style="fill: #201d1b; stroke: #ffb052; stroke-width: 1.6; stroke-linejoin: miter"/>
   </g>
   <g id="patch_6">
    <path d="M 37.4652 398.4588 
L 212.2308 398.4588 
Q 221.2704 398.4588 221.2704 389.6676 
L 221.2704 357.4332 
Q 221.2704 348.642 212.2308 348.642 
L 37.4652 348.642 
Q 28.4256 348.642 28.4256 357.4332 
L 28.4256 389.6676 
Q 28.4256 398.4588 37.4652 398.4588 
z
" clip-path="url(#p4312638512)" style="fill: #201d1b; stroke: #c99cff; stroke-width: 1.6; stroke-linejoin: miter"/>
   </g>
   <g id="patch_7">
    <path d="M 212.2308 64.3932 
L 272.4948 64.3932 
Q 281.5344 64.3932 281.5344 55.602 
L 281.5344 23.3676 
Q 281.5344 14.5764 272.4948 14.5764 
L 212.2308 14.5764 
Q 203.1912 14.5764 203.1912 23.3676 
L 203.1912 55.602 
Q 203.1912 64.3932 212.2308 64.3932 
z
" clip-path="url(#p4312638512)" style="fill: #201d1b; stroke: #7a7268; stroke-width: 1.6; stroke-linejoin: miter"/>
   </g>
   <g id="patch_8">
    <path d="M 194.1516 146.4444 
L 290.574 146.4444 
Q 299.6136 146.4444 299.6136 137.6532 
L 299.6136 105.4188 
Q 299.6136 96.6276 290.574 96.6276 
L 194.1516 96.6276 
Q 185.112 96.6276 185.112 105.4188 
L 185.112 137.6532 
Q 185.112 146.4444 194.1516 146.4444 
z
" clip-path="url(#p4312638512)" style="fill: #201d1b; stroke: #6fd48d; stroke-width: 1.6; stroke-linejoin: miter"/>
   </g>
   <g id="patch_9">
    <path d="M 194.1516 228.4956 
L 290.574 228.4956 
Q 299.6136 228.4956 299.6136 219.7044 
L 299.6136 187.47 
Q 299.6136 178.6788 290.574 178.6788 
L 194.1516 178.6788 
Q 185.112 178.6788 185.112 187.47 
L 185.112 219.7044 
Q 185.112 228.4956 194.1516 228.4956 
z
" clip-path="url(#p4312638512)" style="fill: #201d1b; stroke: #ffb052; stroke-width: 1.6; stroke-linejoin: miter"/>
   </g>
   <g id="patch_10">
    <path d="M 194.1516 310.5468 
L 290.574 310.5468 
Q 299.6136 310.5468 299.6136 301.7556 
L 299.6136 269.5212 
Q 299.6136 260.73 290.574 260.73 
L 194.1516 260.73 
Q 185.112 260.73 185.112 269.5212 
L 185.112 301.7556 
Q 185.112 310.5468 194.1516 310.5468 
z
" clip-path="url(#p4312638512)" style="fill: #201d1b; stroke: #ffb052; stroke-width: 1.6; stroke-linejoin: miter"/>
   </g>
   <g id="patch_11">
    <path d="M 94.716 64.3932 
Q 94.716 80.5104 94.716 95.174156 
" clip-path="url(#p4312638512)" style="fill: none; stroke: #a89f94; stroke-width: 1.3; stroke-linecap: round"/>
    <path d="M 97.116 90.374156 
L 94.716 95.174156 
L 92.316 90.374156 
z
" clip-path="url(#p4312638512)" style="fill: #a89f94; stroke: #a89f94; stroke-width: 1.3; stroke-linecap: round"/>
   </g>
   <g id="patch_12">
    <path d="M 94.716 146.4444 
Q 94.716 162.5616 94.716 177.225356 
" clip-path="url(#p4312638512)" style="fill: none; stroke: #a89f94; stroke-width: 1.3; stroke-linecap: round"/>
    <path d="M 97.116 172.425356 
L 94.716 177.225356 
L 92.316 172.425356 
z
" clip-path="url(#p4312638512)" style="fill: #a89f94; stroke: #a89f94; stroke-width: 1.3; stroke-linecap: round"/>
   </g>
   <g id="patch_13">
    <path d="M 94.716 228.4956 
Q 94.716 244.6128 94.716 259.276556 
" clip-path="url(#p4312638512)" style="fill: none; stroke: #a89f94; stroke-width: 1.3; stroke-linecap: round"/>
    <path d="M 97.116 254.476556 
L 94.716 259.276556 
L 92.316 254.476556 
z
" clip-path="url(#p4312638512)" style="fill: #a89f94; stroke: #a89f94; stroke-width: 1.3; stroke-linecap: round"/>
   </g>
   <g id="patch_14">
    <path d="M 94.716 310.5468 
Q 94.716 329.5944 94.716 347.188556 
" clip-path="url(#p4312638512)" style="fill: none; stroke: #a89f94; stroke-width: 1.3; stroke-linecap: round"/>
    <path d="M 97.116 342.388556 
L 94.716 347.188556 
L 92.316 342.388556 
z
" clip-path="url(#p4312638512)" style="fill: #a89f94; stroke: #a89f94; stroke-width: 1.3; stroke-linecap: round"/>
   </g>
   <g id="patch_15">
    <path d="M 164.0196 39.4848 
Q 183.6054 39.4848 201.737756 39.4848 
" clip-path="url(#p4312638512)" style="fill: none; stroke: #a89f94; stroke-width: 1.3; stroke-linecap: round"/>
    <path d="M 196.937756 37.0848 
L 201.737756 39.4848 
L 196.937756 41.8848 
z
" clip-path="url(#p4312638512)" style="fill: #a89f94; stroke: #a89f94; stroke-width: 1.3; stroke-linecap: round"/>
   </g>
   <g id="patch_16">
    <path d="M 164.0196 121.536 
Q 174.5658 121.536 183.658556 121.536 
" clip-path="url(#p4312638512)" style="fill: none; stroke: #a89f94; stroke-width: 1.3; stroke-linecap: round"/>
    <path d="M 178.858556 119.136 
L 183.658556 121.536 
L 178.858556 123.936 
z
" clip-path="url(#p4312638512)" style="fill: #a89f94; stroke: #a89f94; stroke-width: 1.3; stroke-linecap: round"/>
   </g>
   <g id="patch_17">
    <path d="M 164.0196 203.5872 
Q 174.5658 203.5872 183.658556 203.5872 
" clip-path="url(#p4312638512)" style="fill: none; stroke: #a89f94; stroke-width: 1.3; stroke-linecap: round"/>
    <path d="M 178.858556 201.1872 
L 183.658556 203.5872 
L 178.858556 205.9872 
z
" clip-path="url(#p4312638512)" style="fill: #a89f94; stroke: #a89f94; stroke-width: 1.3; stroke-linecap: round"/>
   </g>
   <g id="patch_18">
    <path d="M 164.0196 285.6384 
Q 174.5658 285.6384 183.658556 285.6384 
" clip-path="url(#p4312638512)" style="fill: none; stroke: #a89f94; stroke-width: 1.3; stroke-linecap: round"/>
    <path d="M 178.858556 283.2384 
L 183.658556 285.6384 
L 178.858556 288.0384 
z
" clip-path="url(#p4312638512)" style="fill: #a89f94; stroke: #a89f94; stroke-width: 1.3; stroke-linecap: round"/>
   </g>
   <g id="text_1">
    <!-- position known? -->
    <g style="fill: #fff7eb" transform="translate(52.265648 42.382144) scale(0.105 -0.105)">
     <defs>
      <path id="DejaVuSans-70" d="M 1159 525 
L 1159 -1331 
L 581 -1331 
L 581 3500 
L 1159 3500 
L 1159 2969 
Q 1341 3281 1617 3432 
Q 1894 3584 2278 3584 
Q 2916 3584 3314 3078 
Q 3713 2572 3713 1747 
Q 3713 922 3314 415 
Q 2916 -91 2278 -91 
Q 1894 -91 1617 61 
Q 1341 213 1159 525 
z
M 3116 1747 
Q 3116 2381 2855 2742 
Q 2594 3103 2138 3103 
Q 1681 3103 1420 2742 
Q 1159 2381 1159 1747 
Q 1159 1113 1420 752 
Q 1681 391 2138 391 
Q 2594 391 2855 752 
Q 3116 1113 3116 1747 
z
" transform="scale(0.015625)"/>
      <path id="DejaVuSans-6f" d="M 1959 3097 
Q 1497 3097 1228 2736 
Q 959 2375 959 1747 
Q 959 1119 1226 758 
Q 1494 397 1959 397 
Q 2419 397 2687 759 
Q 2956 1122 2956 1747 
Q 2956 2369 2687 2733 
Q 2419 3097 1959 3097 
z
M 1959 3584 
Q 2709 3584 3137 3096 
Q 3566 2609 3566 1747 
Q 3566 888 3137 398 
Q 2709 -91 1959 -91 
Q 1206 -91 779 398 
Q 353 888 353 1747 
Q 353 2609 779 3096 
Q 1206 3584 1959 3584 
z
" transform="scale(0.015625)"/>
      <path id="DejaVuSans-73" d="M 2834 3397 
L 2834 2853 
Q 2591 2978 2328 3040 
Q 2066 3103 1784 3103 
Q 1356 3103 1142 2972 
Q 928 2841 928 2578 
Q 928 2378 1081 2264 
Q 1234 2150 1697 2047 
L 1894 2003 
Q 2506 1872 2764 1633 
Q 3022 1394 3022 966 
Q 3022 478 2636 193 
Q 2250 -91 1575 -91 
Q 1294 -91 989 -36 
Q 684 19 347 128 
L 347 722 
Q 666 556 975 473 
Q 1284 391 1588 391 
Q 1994 391 2212 530 
Q 2431 669 2431 922 
Q 2431 1156 2273 1281 
Q 2116 1406 1581 1522 
L 1381 1569 
Q 847 1681 609 1914 
Q 372 2147 372 2553 
Q 372 3047 722 3315 
Q 1072 3584 1716 3584 
Q 2034 3584 2315 3537 
Q 2597 3491 2834 3397 
z
" transform="scale(0.015625)"/>
      <path id="DejaVuSans-69" d="M 603 3500 
L 1178 3500 
L 1178 0 
L 603 0 
L 603 3500 
z
M 603 4863 
L 1178 4863 
L 1178 4134 
L 603 4134 
L 603 4863 
z
" transform="scale(0.015625)"/>
      <path id="DejaVuSans-74" d="M 1172 4494 
L 1172 3500 
L 2356 3500 
L 2356 3053 
L 1172 3053 
L 1172 1153 
Q 1172 725 1289 603 
Q 1406 481 1766 481 
L 2356 481 
L 2356 0 
L 1766 0 
Q 1100 0 847 248 
Q 594 497 594 1153 
L 594 3053 
L 172 3053 
L 172 3500 
L 594 3500 
L 594 4494 
L 1172 4494 
z
" transform="scale(0.015625)"/>
      <path id="DejaVuSans-6e" d="M 3513 2113 
L 3513 0 
L 2938 0 
L 2938 2094 
Q 2938 2591 2744 2837 
Q 2550 3084 2163 3084 
Q 1697 3084 1428 2787 
Q 1159 2491 1159 1978 
L 1159 0 
L 581 0 
L 581 3500 
L 1159 3500 
L 1159 2956 
Q 1366 3272 1645 3428 
Q 1925 3584 2291 3584 
Q 2894 3584 3203 3211 
Q 3513 2838 3513 2113 
z
" transform="scale(0.015625)"/>
      <path id="DejaVuSans-20" transform="scale(0.015625)"/>
      <path id="DejaVuSans-6b" d="M 581 4863 
L 1159 4863 
L 1159 1991 
L 2875 3500 
L 3609 3500 
L 1753 1863 
L 3688 0 
L 2938 0 
L 1159 1709 
L 1159 0 
L 581 0 
L 581 4863 
z
" transform="scale(0.015625)"/>
      <path id="DejaVuSans-77" d="M 269 3500 
L 844 3500 
L 1563 769 
L 2278 3500 
L 2956 3500 
L 3675 769 
L 4391 3500 
L 4966 3500 
L 4050 0 
L 3372 0 
L 2619 2869 
L 1863 0 
L 1184 0 
L 269 3500 
z
" transform="scale(0.015625)"/>
      <path id="DejaVuSans-3f" d="M 1222 794 
L 1856 794 
L 1856 0 
L 1222 0 
L 1222 794 
z
M 1838 1253 
L 1241 1253 
L 1241 1734 
Q 1241 2050 1328 2253 
Q 1416 2456 1697 2725 
L 1978 3003 
Q 2156 3169 2236 3316 
Q 2316 3463 2316 3616 
Q 2316 3894 2111 4066 
Q 1906 4238 1569 4238 
Q 1322 4238 1042 4128 
Q 763 4019 459 3809 
L 459 4397 
Q 753 4575 1054 4662 
Q 1356 4750 1678 4750 
Q 2253 4750 2601 4447 
Q 2950 4144 2950 3647 
Q 2950 3409 2837 3195 
Q 2725 2981 2444 2713 
L 2169 2444 
Q 2022 2297 1961 2214 
Q 1900 2131 1875 2053 
Q 1856 1988 1847 1894 
Q 1838 1800 1838 1638 
L 1838 1253 
z
" transform="scale(0.015625)"/>
     </defs>
     <use xlink:href="#DejaVuSans-70"/>
     <use xlink:href="#DejaVuSans-6f" transform="translate(63.476562 0)"/>
     <use xlink:href="#DejaVuSans-73" transform="translate(124.658203 0)"/>
     <use xlink:href="#DejaVuSans-69" transform="translate(176.757812 0)"/>
     <use xlink:href="#DejaVuSans-74" transform="translate(204.541016 0)"/>
     <use xlink:href="#DejaVuSans-69" transform="translate(243.75 0)"/>
     <use xlink:href="#DejaVuSans-6f" transform="translate(271.533203 0)"/>
     <use xlink:href="#DejaVuSans-6e" transform="translate(332.714844 0)"/>
     <use xlink:href="#DejaVuSans-20" transform="translate(396.09375 0)"/>
     <use xlink:href="#DejaVuSans-6b" transform="translate(427.880859 0)"/>
     <use xlink:href="#DejaVuSans-6e" transform="translate(485.791016 0)"/>
     <use xlink:href="#DejaVuSans-6f" transform="translate(549.169922 0)"/>
     <use xlink:href="#DejaVuSans-77" transform="translate(610.351562 0)"/>
     <use xlink:href="#DejaVuSans-6e" transform="translate(692.138672 0)"/>
     <use xlink:href="#DejaVuSans-3f" transform="translate(755.517578 0)"/>
    </g>
   </g>
   <g id="text_2">
    <!-- carrying a parcel? -->
    <g style="fill: #fff7eb" transform="translate(47.654672 124.433344) scale(0.105 -0.105)">
     <defs>
      <path id="DejaVuSans-63" d="M 3122 3366 
L 3122 2828 
Q 2878 2963 2633 3030 
Q 2388 3097 2138 3097 
Q 1578 3097 1268 2742 
Q 959 2388 959 1747 
Q 959 1106 1268 751 
Q 1578 397 2138 397 
Q 2388 397 2633 464 
Q 2878 531 3122 666 
L 3122 134 
Q 2881 22 2623 -34 
Q 2366 -91 2075 -91 
Q 1284 -91 818 406 
Q 353 903 353 1747 
Q 353 2603 823 3093 
Q 1294 3584 2113 3584 
Q 2378 3584 2631 3529 
Q 2884 3475 3122 3366 
z
" transform="scale(0.015625)"/>
      <path id="DejaVuSans-61" d="M 2194 1759 
Q 1497 1759 1228 1600 
Q 959 1441 959 1056 
Q 959 750 1161 570 
Q 1363 391 1709 391 
Q 2188 391 2477 730 
Q 2766 1069 2766 1631 
L 2766 1759 
L 2194 1759 
z
M 3341 1997 
L 3341 0 
L 2766 0 
L 2766 531 
Q 2569 213 2275 61 
Q 1981 -91 1556 -91 
Q 1019 -91 701 211 
Q 384 513 384 1019 
Q 384 1609 779 1909 
Q 1175 2209 1959 2209 
L 2766 2209 
L 2766 2266 
Q 2766 2663 2505 2880 
Q 2244 3097 1772 3097 
Q 1472 3097 1187 3025 
Q 903 2953 641 2809 
L 641 3341 
Q 956 3463 1253 3523 
Q 1550 3584 1831 3584 
Q 2591 3584 2966 3190 
Q 3341 2797 3341 1997 
z
" transform="scale(0.015625)"/>
      <path id="DejaVuSans-72" d="M 2631 2963 
Q 2534 3019 2420 3045 
Q 2306 3072 2169 3072 
Q 1681 3072 1420 2755 
Q 1159 2438 1159 1844 
L 1159 0 
L 581 0 
L 581 3500 
L 1159 3500 
L 1159 2956 
Q 1341 3275 1631 3429 
Q 1922 3584 2338 3584 
Q 2397 3584 2469 3576 
Q 2541 3569 2628 3553 
L 2631 2963 
z
" transform="scale(0.015625)"/>
      <path id="DejaVuSans-79" d="M 2059 -325 
Q 1816 -950 1584 -1140 
Q 1353 -1331 966 -1331 
L 506 -1331 
L 506 -850 
L 844 -850 
Q 1081 -850 1212 -737 
Q 1344 -625 1503 -206 
L 1606 56 
L 191 3500 
L 800 3500 
L 1894 763 
L 2988 3500 
L 3597 3500 
L 2059 -325 
z
" transform="scale(0.015625)"/>
      <path id="DejaVuSans-67" d="M 2906 1791 
Q 2906 2416 2648 2759 
Q 2391 3103 1925 3103 
Q 1463 3103 1205 2759 
Q 947 2416 947 1791 
Q 947 1169 1205 825 
Q 1463 481 1925 481 
Q 2391 481 2648 825 
Q 2906 1169 2906 1791 
z
M 3481 434 
Q 3481 -459 3084 -895 
Q 2688 -1331 1869 -1331 
Q 1566 -1331 1297 -1286 
Q 1028 -1241 775 -1147 
L 775 -588 
Q 1028 -725 1275 -790 
Q 1522 -856 1778 -856 
Q 2344 -856 2625 -561 
Q 2906 -266 2906 331 
L 2906 616 
Q 2728 306 2450 153 
Q 2172 0 1784 0 
Q 1141 0 747 490 
Q 353 981 353 1791 
Q 353 2603 747 3093 
Q 1141 3584 1784 3584 
Q 2172 3584 2450 3431 
Q 2728 3278 2906 2969 
L 2906 3500 
L 3481 3500 
L 3481 434 
z
" transform="scale(0.015625)"/>
      <path id="DejaVuSans-65" d="M 3597 1894 
L 3597 1613 
L 953 1613 
Q 991 1019 1311 708 
Q 1631 397 2203 397 
Q 2534 397 2845 478 
Q 3156 559 3463 722 
L 3463 178 
Q 3153 47 2828 -22 
Q 2503 -91 2169 -91 
Q 1331 -91 842 396 
Q 353 884 353 1716 
Q 353 2575 817 3079 
Q 1281 3584 2069 3584 
Q 2775 3584 3186 3129 
Q 3597 2675 3597 1894 
z
M 3022 2063 
Q 3016 2534 2758 2815 
Q 2500 3097 2075 3097 
Q 1594 3097 1305 2825 
Q 1016 2553 972 2059 
L 3022 2063 
z
" transform="scale(0.015625)"/>
      <path id="DejaVuSans-6c" d="M 603 4863 
L 1178 4863 
L 1178 0 
L 603 0 
L 603 4863 
z
" transform="scale(0.015625)"/>
     </defs>
     <use xlink:href="#DejaVuSans-63"/>
     <use xlink:href="#DejaVuSans-61" transform="translate(54.980469 0)"/>
     <use xlink:href="#DejaVuSans-72" transform="translate(116.259766 0)"/>
     <use xlink:href="#DejaVuSans-72" transform="translate(155.623047 0)"/>
     <use xlink:href="#DejaVuSans-79" transform="translate(196.736328 0)"/>
     <use xlink:href="#DejaVuSans-69" transform="translate(255.916016 0)"/>
     <use xlink:href="#DejaVuSans-6e" transform="translate(283.699219 0)"/>
     <use xlink:href="#DejaVuSans-67" transform="translate(347.078125 0)"/>
     <use xlink:href="#DejaVuSans-20" transform="translate(410.554688 0)"/>
     <use xlink:href="#DejaVuSans-61" transform="translate(442.341797 0)"/>
     <use xlink:href="#DejaVuSans-20" transform="translate(503.621094 0)"/>
     <use xlink:href="#DejaVuSans-70" transform="translate(535.408203 0)"/>
     <use xlink:href="#DejaVuSans-61" transform="translate(598.884766 0)"/>
     <use xlink:href="#DejaVuSans-72" transform="translate(660.164062 0)"/>
     <use xlink:href="#DejaVuSans-63" transform="translate(699.027344 0)"/>
     <use xlink:href="#DejaVuSans-65" transform="translate(754.007812 0)"/>
     <use xlink:href="#DejaVuSans-6c" transform="translate(815.53125 0)"/>
     <use xlink:href="#DejaVuSans-3f" transform="translate(843.314453 0)"/>
    </g>
   </g>
   <g id="text_3">
    <!-- parcel on my tile? -->
    <g style="fill: #fff7eb" transform="translate(47.791664 206.484544) scale(0.105 -0.105)">
     <defs>
      <path id="DejaVuSans-6d" d="M 3328 2828 
Q 3544 3216 3844 3400 
Q 4144 3584 4550 3584 
Q 5097 3584 5394 3201 
Q 5691 2819 5691 2113 
L 5691 0 
L 5113 0 
L 5113 2094 
Q 5113 2597 4934 2840 
Q 4756 3084 4391 3084 
Q 3944 3084 3684 2787 
Q 3425 2491 3425 1978 
L 3425 0 
L 2847 0 
L 2847 2094 
Q 2847 2600 2669 2842 
Q 2491 3084 2119 3084 
Q 1678 3084 1418 2786 
Q 1159 2488 1159 1978 
L 1159 0 
L 581 0 
L 581 3500 
L 1159 3500 
L 1159 2956 
Q 1356 3278 1631 3431 
Q 1906 3584 2284 3584 
Q 2666 3584 2933 3390 
Q 3200 3197 3328 2828 
z
" transform="scale(0.015625)"/>
     </defs>
     <use xlink:href="#DejaVuSans-70"/>
     <use xlink:href="#DejaVuSans-61" transform="translate(63.476562 0)"/>
     <use xlink:href="#DejaVuSans-72" transform="translate(124.755859 0)"/>
     <use xlink:href="#DejaVuSans-63" transform="translate(163.619141 0)"/>
     <use xlink:href="#DejaVuSans-65" transform="translate(218.599609 0)"/>
     <use xlink:href="#DejaVuSans-6c" transform="translate(280.123047 0)"/>
     <use xlink:href="#DejaVuSans-20" transform="translate(307.90625 0)"/>
     <use xlink:href="#DejaVuSans-6f" transform="translate(339.693359 0)"/>
     <use xlink:href="#DejaVuSans-6e" transform="translate(400.875 0)"/>
     <use xlink:href="#DejaVuSans-20" transform="translate(464.253906 0)"/>
     <use xlink:href="#DejaVuSans-6d" transform="translate(496.041016 0)"/>
     <use xlink:href="#DejaVuSans-79" transform="translate(593.453125 0)"/>
     <use xlink:href="#DejaVuSans-20" transform="translate(652.632812 0)"/>
     <use xlink:href="#DejaVuSans-74" transform="translate(684.419922 0)"/>
     <use xlink:href="#DejaVuSans-69" transform="translate(723.628906 0)"/>
     <use xlink:href="#DejaVuSans-6c" transform="translate(751.412109 0)"/>
     <use xlink:href="#DejaVuSans-65" transform="translate(779.195312 0)"/>
     <use xlink:href="#DejaVuSans-3f" transform="translate(840.71875 0)"/>
    </g>
   </g>
   <g id="text_4">
    <!-- best scored pickup? -->
    <g style="fill: #fff7eb" transform="translate(42.58432 288.535744) scale(0.105 -0.105)">
     <defs>
      <path id="DejaVuSans-62" d="M 3116 1747 
Q 3116 2381 2855 2742 
Q 2594 3103 2138 3103 
Q 1681 3103 1420 2742 
Q 1159 2381 1159 1747 
Q 1159 1113 1420 752 
Q 1681 391 2138 391 
Q 2594 391 2855 752 
Q 3116 1113 3116 1747 
z
M 1159 2969 
Q 1341 3281 1617 3432 
Q 1894 3584 2278 3584 
Q 2916 3584 3314 3078 
Q 3713 2572 3713 1747 
Q 3713 922 3314 415 
Q 2916 -91 2278 -91 
Q 1894 -91 1617 61 
Q 1341 213 1159 525 
L 1159 0 
L 581 0 
L 581 4863 
L 1159 4863 
L 1159 2969 
z
" transform="scale(0.015625)"/>
      <path id="DejaVuSans-64" d="M 2906 2969 
L 2906 4863 
L 3481 4863 
L 3481 0 
L 2906 0 
L 2906 525 
Q 2725 213 2448 61 
Q 2172 -91 1784 -91 
Q 1150 -91 751 415 
Q 353 922 353 1747 
Q 353 2572 751 3078 
Q 1150 3584 1784 3584 
Q 2172 3584 2448 3432 
Q 2725 3281 2906 2969 
z
M 947 1747 
Q 947 1113 1208 752 
Q 1469 391 1925 391 
Q 2381 391 2643 752 
Q 2906 1113 2906 1747 
Q 2906 2381 2643 2742 
Q 2381 3103 1925 3103 
Q 1469 3103 1208 2742 
Q 947 2381 947 1747 
z
" transform="scale(0.015625)"/>
      <path id="DejaVuSans-75" d="M 544 1381 
L 544 3500 
L 1119 3500 
L 1119 1403 
Q 1119 906 1312 657 
Q 1506 409 1894 409 
Q 2359 409 2629 706 
Q 2900 1003 2900 1516 
L 2900 3500 
L 3475 3500 
L 3475 0 
L 2900 0 
L 2900 538 
Q 2691 219 2414 64 
Q 2138 -91 1772 -91 
Q 1169 -91 856 284 
Q 544 659 544 1381 
z
M 1991 3584 
L 1991 3584 
z
" transform="scale(0.015625)"/>
     </defs>
     <use xlink:href="#DejaVuSans-62"/>
     <use xlink:href="#DejaVuSans-65" transform="translate(63.476562 0)"/>
     <use xlink:href="#DejaVuSans-73" transform="translate(125 0)"/>
     <use xlink:href="#DejaVuSans-74" transform="translate(177.099609 0)"/>
     <use xlink:href="#DejaVuSans-20" transform="translate(216.308594 0)"/>
     <use xlink:href="#DejaVuSans-73" transform="translate(248.095703 0)"/>
     <use xlink:href="#DejaVuSans-63" transform="translate(300.195312 0)"/>
     <use xlink:href="#DejaVuSans-6f" transform="translate(355.175781 0)"/>
     <use xlink:href="#DejaVuSans-72" transform="translate(416.357422 0)"/>
     <use xlink:href="#DejaVuSans-65" transform="translate(455.220703 0)"/>
     <use xlink:href="#DejaVuSans-64" transform="translate(516.744141 0)"/>
     <use xlink:href="#DejaVuSans-20" transform="translate(580.220703 0)"/>
     <use xlink:href="#DejaVuSans-70" transform="translate(612.007812 0)"/>
     <use xlink:href="#DejaVuSans-69" transform="translate(675.484375 0)"/>
     <use xlink:href="#DejaVuSans-63" transform="translate(703.267578 0)"/>
     <use xlink:href="#DejaVuSans-6b" transform="translate(758.248047 0)"/>
     <use xlink:href="#DejaVuSans-75" transform="translate(813.033203 0)"/>
     <use xlink:href="#DejaVuSans-70" transform="translate(876.412109 0)"/>
     <use xlink:href="#DejaVuSans-3f" transform="translate(939.888672 0)"/>
    </g>
   </g>
   <g id="text_5">
    <!-- explore / patrol spawners -->
    <g style="fill: #fff7eb" transform="translate(58.204992 376.447744) scale(0.105 -0.105)">
     <defs>
      <path id="DejaVuSans-78" d="M 3513 3500 
L 2247 1797 
L 3578 0 
L 2900 0 
L 1881 1375 
L 863 0 
L 184 0 
L 1544 1831 
L 300 3500 
L 978 3500 
L 1906 2253 
L 2834 3500 
L 3513 3500 
z
" transform="scale(0.015625)"/>
      <path id="DejaVuSans-2f" d="M 1625 4666 
L 2156 4666 
L 531 -594 
L 0 -594 
L 1625 4666 
z
" transform="scale(0.015625)"/>
     </defs>
     <use xlink:href="#DejaVuSans-65"/>
     <use xlink:href="#DejaVuSans-78" transform="translate(59.773438 0)"/>
     <use xlink:href="#DejaVuSans-70" transform="translate(118.953125 0)"/>
     <use xlink:href="#DejaVuSans-6c" transform="translate(182.429688 0)"/>
     <use xlink:href="#DejaVuSans-6f" transform="translate(210.212891 0)"/>
     <use xlink:href="#DejaVuSans-72" transform="translate(271.394531 0)"/>
     <use xlink:href="#DejaVuSans-65" transform="translate(310.257812 0)"/>
     <use xlink:href="#DejaVuSans-20" transform="translate(371.78125 0)"/>
     <use xlink:href="#DejaVuSans-2f" transform="translate(403.568359 0)"/>
     <use xlink:href="#DejaVuSans-20" transform="translate(437.259766 0)"/>
     <use xlink:href="#DejaVuSans-70" transform="translate(469.046875 0)"/>
     <use xlink:href="#DejaVuSans-61" transform="translate(532.523438 0)"/>
     <use xlink:href="#DejaVuSans-74" transform="translate(593.802734 0)"/>
     <use xlink:href="#DejaVuSans-72" transform="translate(633.011719 0)"/>
     <use xlink:href="#DejaVuSans-6f" transform="translate(671.875 0)"/>
     <use xlink:href="#DejaVuSans-6c" transform="translate(733.056641 0)"/>
     <use xlink:href="#DejaVuSans-20" transform="translate(760.839844 0)"/>
     <use xlink:href="#DejaVuSans-73" transform="translate(792.626953 0)"/>
     <use xlink:href="#DejaVuSans-70" transform="translate(844.726562 0)"/>
     <use xlink:href="#DejaVuSans-61" transform="translate(908.203125 0)"/>
     <use xlink:href="#DejaVuSans-77" transform="translate(969.482422 0)"/>
     <use xlink:href="#DejaVuSans-6e" transform="translate(1051.269531 0)"/>
     <use xlink:href="#DejaVuSans-65" transform="translate(1114.648438 0)"/>
     <use xlink:href="#DejaVuSans-72" transform="translate(1176.171875 0)"/>
     <use xlink:href="#DejaVuSans-73" transform="translate(1217.285156 0)"/>
    </g>
   </g>
   <g id="text_6">
    <!-- wait -->
    <g style="fill: #a89f94" transform="translate(231.335339 42.382144) scale(0.105 -0.105)">
     <use xlink:href="#DejaVuSans-77"/>
     <use xlink:href="#DejaVuSans-61" transform="translate(81.787109 0)"/>
     <use xlink:href="#DejaVuSans-69" transform="translate(143.066406 0)"/>
     <use xlink:href="#DejaVuSans-74" transform="translate(170.849609 0)"/>
    </g>
   </g>
   <g id="text_7">
    <!-- go_deliver -->
    <g style="fill: #fff7eb" transform="translate(215.216198 116.668288) scale(0.105 -0.105)">
     <defs>
      <path id="DejaVuSans-5f" d="M 3263 -1063 
L 3263 -1509 
L -63 -1509 
L -63 -1063 
L 3263 -1063 
z
" transform="scale(0.015625)"/>
      <path id="DejaVuSans-76" d="M 191 3500 
L 800 3500 
L 1894 563 
L 2988 3500 
L 3597 3500 
L 2284 0 
L 1503 0 
L 191 3500 
z
" transform="scale(0.015625)"/>
     </defs>
     <use xlink:href="#DejaVuSans-67"/>
     <use xlink:href="#DejaVuSans-6f" transform="translate(63.476562 0)"/>
     <use xlink:href="#DejaVuSans-5f" transform="translate(124.658203 0)"/>
     <use xlink:href="#DejaVuSans-64" transform="translate(174.658203 0)"/>
     <use xlink:href="#DejaVuSans-65" transform="translate(238.134766 0)"/>
     <use xlink:href="#DejaVuSans-6c" transform="translate(299.658203 0)"/>
     <use xlink:href="#DejaVuSans-69" transform="translate(327.441406 0)"/>
     <use xlink:href="#DejaVuSans-76" transform="translate(355.224609 0)"/>
     <use xlink:href="#DejaVuSans-65" transform="translate(414.404297 0)"/>
     <use xlink:href="#DejaVuSans-72" transform="translate(475.927734 0)"/>
    </g>
   </g>
   <g id="text_8">
    <!-- best tile · maybe detour -->
    <g style="fill: #a89f94" transform="translate(200.212409 135.189162) scale(0.07 -0.07)">
     <defs>
      <path id="DejaVuSans-b7" d="M 684 2619 
L 1344 2619 
L 1344 1825 
L 684 1825 
L 684 2619 
z
" transform="scale(0.015625)"/>
     </defs>
     <use xlink:href="#DejaVuSans-62"/>
     <use xlink:href="#DejaVuSans-65" transform="translate(63.476562 0)"/>
     <use xlink:href="#DejaVuSans-73" transform="translate(125 0)"/>
     <use xlink:href="#DejaVuSans-74" transform="translate(177.099609 0)"/>
     <use xlink:href="#DejaVuSans-20" transform="translate(216.308594 0)"/>
     <use xlink:href="#DejaVuSans-74" transform="translate(248.095703 0)"/>
     <use xlink:href="#DejaVuSans-69" transform="translate(287.304688 0)"/>
     <use xlink:href="#DejaVuSans-6c" transform="translate(315.087891 0)"/>
     <use xlink:href="#DejaVuSans-65" transform="translate(342.871094 0)"/>
     <use xlink:href="#DejaVuSans-20" transform="translate(404.394531 0)"/>
     <use xlink:href="#DejaVuSans-b7" transform="translate(436.181641 0)"/>
     <use xlink:href="#DejaVuSans-20" transform="translate(467.96875 0)"/>
     <use xlink:href="#DejaVuSans-6d" transform="translate(499.755859 0)"/>
     <use xlink:href="#DejaVuSans-61" transform="translate(597.167969 0)"/>
     <use xlink:href="#DejaVuSans-79" transform="translate(658.447266 0)"/>
     <use xlink:href="#DejaVuSans-62" transform="translate(717.626953 0)"/>
     <use xlink:href="#DejaVuSans-65" transform="translate(781.103516 0)"/>
     <use xlink:href="#DejaVuSans-20" transform="translate(842.626953 0)"/>
     <use xlink:href="#DejaVuSans-64" transform="translate(874.414062 0)"/>
     <use xlink:href="#DejaVuSans-65" transform="translate(937.890625 0)"/>
     <use xlink:href="#DejaVuSans-74" transform="translate(999.414062 0)"/>
     <use xlink:href="#DejaVuSans-6f" transform="translate(1038.623047 0)"/>
     <use xlink:href="#DejaVuSans-75" transform="translate(1099.804688 0)"/>
     <use xlink:href="#DejaVuSans-72" transform="translate(1163.183594 0)"/>
    </g>
   </g>
   <g id="text_9">
    <!-- go_pick_up -->
    <g style="fill: #fff7eb" transform="translate(213.189206 206.338528) scale(0.105 -0.105)">
     <use xlink:href="#DejaVuSans-67"/>
     <use xlink:href="#DejaVuSans-6f" transform="translate(63.476562 0)"/>
     <use xlink:href="#DejaVuSans-5f" transform="translate(124.658203 0)"/>
     <use xlink:href="#DejaVuSans-70" transform="translate(174.658203 0)"/>
     <use xlink:href="#DejaVuSans-69" transform="translate(238.134766 0)"/>
     <use xlink:href="#DejaVuSans-63" transform="translate(265.917969 0)"/>
     <use xlink:href="#DejaVuSans-6b" transform="translate(320.898438 0)"/>
     <use xlink:href="#DejaVuSans-5f" transform="translate(378.808594 0)"/>
     <use xlink:href="#DejaVuSans-75" transform="translate(428.808594 0)"/>
     <use xlink:href="#DejaVuSans-70" transform="translate(492.1875 0)"/>
    </g>
   </g>
   <g id="text_10">
    <!-- go_pick_up -->
    <g style="fill: #fff7eb" transform="translate(213.189206 288.389728) scale(0.105 -0.105)">
     <use xlink:href="#DejaVuSans-67"/>
     <use xlink:href="#DejaVuSans-6f" transform="translate(63.476562 0)"/>
     <use xlink:href="#DejaVuSans-5f" transform="translate(124.658203 0)"/>
     <use xlink:href="#DejaVuSans-70" transform="translate(174.658203 0)"/>
     <use xlink:href="#DejaVuSans-69" transform="translate(238.134766 0)"/>
     <use xlink:href="#DejaVuSans-63" transform="translate(265.917969 0)"/>
     <use xlink:href="#DejaVuSans-6b" transform="translate(320.898438 0)"/>
     <use xlink:href="#DejaVuSans-5f" transform="translate(378.808594 0)"/>
     <use xlink:href="#DejaVuSans-75" transform="translate(428.808594 0)"/>
     <use xlink:href="#DejaVuSans-70" transform="translate(492.1875 0)"/>
    </g>
   </g>
   <g id="text_11">
    <!-- yes -->
    <g style="fill: #a89f94" transform="translate(105.8827 82.7179) scale(0.08 -0.08)">
     <use xlink:href="#DejaVuSans-79"/>
     <use xlink:href="#DejaVuSans-65" transform="translate(59.179688 0)"/>
     <use xlink:href="#DejaVuSans-73" transform="translate(120.703125 0)"/>
    </g>
   </g>
   <g id="text_12">
    <!-- no -->
    <g style="fill: #a89f94" transform="translate(107.8127 164.7691) scale(0.08 -0.08)">
     <use xlink:href="#DejaVuSans-6e"/>
     <use xlink:href="#DejaVuSans-6f" transform="translate(63.378906 0)"/>
    </g>
   </g>
   <g id="text_13">
    <!-- no -->
    <g style="fill: #a89f94" transform="translate(107.8127 246.8203) scale(0.08 -0.08)">
     <use xlink:href="#DejaVuSans-6e"/>
     <use xlink:href="#DejaVuSans-6f" transform="translate(63.378906 0)"/>
    </g>
   </g>
   <g id="text_14">
    <!-- none -->
    <g style="fill: #a89f94" transform="translate(102.81645 331.8019) scale(0.08 -0.08)">
     <use xlink:href="#DejaVuSans-6e"/>
     <use xlink:href="#DejaVuSans-6f" transform="translate(63.378906 0)"/>
     <use xlink:href="#DejaVuSans-6e" transform="translate(124.560547 0)"/>
     <use xlink:href="#DejaVuSans-65" transform="translate(187.939453 0)"/>
    </g>
   </g>
   <g id="text_15">
    <!-- no -->
    <g style="fill: #a89f94" transform="translate(178.6229 31.72894) scale(0.08 -0.08)">
     <use xlink:href="#DejaVuSans-6e"/>
     <use xlink:href="#DejaVuSans-6f" transform="translate(63.378906 0)"/>
    </g>
   </g>
   <g id="text_16">
    <!-- yes -->
    <g style="fill: #a89f94" transform="translate(167.6533 113.78014) scale(0.08 -0.08)">
     <use xlink:href="#DejaVuSans-79"/>
     <use xlink:href="#DejaVuSans-65" transform="translate(59.179688 0)"/>
     <use xlink:href="#DejaVuSans-73" transform="translate(120.703125 0)"/>
    </g>
   </g>
   <g id="text_17">
    <!-- yes -->
    <g style="fill: #a89f94" transform="translate(167.6533 195.83134) scale(0.08 -0.08)">
     <use xlink:href="#DejaVuSans-79"/>
     <use xlink:href="#DejaVuSans-65" transform="translate(59.179688 0)"/>
     <use xlink:href="#DejaVuSans-73" transform="translate(120.703125 0)"/>
    </g>
   </g>
   <g id="text_18">
    <!-- yes -->
    <g style="fill: #a89f94" transform="translate(167.6533 277.88254) scale(0.08 -0.08)">
     <use xlink:href="#DejaVuSans-79"/>
     <use xlink:href="#DejaVuSans-65" transform="translate(59.179688 0)"/>
     <use xlink:href="#DejaVuSans-73" transform="translate(120.703125 0)"/>
    </g>
   </g>
  </g>
 </g>
 <defs>
  <clipPath id="p4312638512">
   <rect x="4.32" y="4.32" width="301.32" height="410.256"/>
  </clipPath>
 </defs>
</svg>
