<?xml version="1.0" encoding="utf-8" standalone="no"?>
<!DOCTYPE svg PUBLIC "-//W3C//DTD SVG 1.1//EN"
  "http://www.w3.org/Graphics/SVG/1.1/DTD/svg11.dtd">
<svg xmlns:xlink="http://www.w3.org/1999/xlink" width="379.8pt" height="399.6pt" viewBox="0 0 379.8 399.6" xmlns="http://www.w3.org/2000/svg" version="1.1">
 <metadata>
  <rdf:RDF xmlns:dc="http://purl.org/dc/elements/1.1/" xmlns:cc="http://creativecommons.org/ns#" xmlns:rdf="http://www.w3.org/1999/02/22-rdf-syntax-ns#">
   <cc:Work>
    <dc:type rdf:resource="http://purl.org/dc/dcmitype/StillImage"/>
    <dc:format>image/svg+xml</dc:format>
    <dc:creator>
     <cc:Agent>
      <dc:title>Matplotlib v3.10.9, https://matplotlib.org/</dc:title>
     </cc:Agent>
    </dc:creator>
   </cc:Work>
  </rdf:RDF>
 </metadata>
 <defs>
  <style type="text/css">*{stroke-linejoin: round; stroke-linecap: butt}</style>
 </defs>
 <g id="figure_1">
  <g id="patch_1">
   <path d="M 0 399.6 
L 379.8 399.6 
L 379.8 0 
L 0 0 
L 0 399.6 
z
" style="fill: none; opacity: 0"/>
  </g>
  <g id="axes_1">
   <g id="patch_2">
    <path d="M 34.988571 74.88675 
L 151.902857 74.88675 
Q 160.671429 74.88675 160.671429 67.61025 
L 160.671429 50.63175 
Q 160.671429 43.35525 151.902857 43.35525 
L 34.988571 43.35525 
Q 26.22 43.35525 26.22 50.63175 
L 26.22 67.61025 
Q 26.22 74.88675 34.988571 74.88675 
z
" clip-path="url(#pc77883b842)" style="fill: #201d1b; stroke: #6fd48d; stroke-width: 1.6; stroke-linejoin: miter"/>
   </g>
   <g id="patch_3">
    <path d="M 34.988571 142.80075 
L 151.902857 142.80075 
Q 160.671429 142.80075 160.671429 135.52425 
L 160.671429 118.54575 
Q 160.671429 111.26925 151.902857 111.26925 
L 34.988571 111.26925 
Q 26.22 111.26925 26.22 118.54575 
L 26.22 135.52425 
Q 26.22 142.80075 34.988571 142.80075 
z
" clip-path="url(#pc77883b842)" style="fill: #201d1b; stroke: #55c3ff; stroke-width: 1.6; stroke-linejoin: miter"/>
   </g>
   <g id="patch_4">
    <path d="M 34.988571 210.71475 
L 151.902857 210.71475 
Q 160.671429 210.71475 160.671429 203.43825 
L 160.671429 186.45975 
Q 160.671429 179.18325 151.902857 179.18325 
L 34.988571 179.18325 
Q 26.22 179.18325 26.22 186.45975 
L 26.22 203.43825 
Q 26.22 210.71475 34.988571 210.71475 
z
" clip-path="url(#pc77883b842)" style="fill: #201d1b; stroke: #55c3ff; stroke-width: 1.6; stroke-linejoin: miter"/>
   </g>
   <g id="patch_5">
    <path d="M 34.988571 278.62875 
L 151.902857 278.62875 
Q 160.671429 278.62875 160.671429 271.35225 
L 160.671429 254.37375 
Q 160.671429 247.09725 151.902857 247.09725 
L 34.988571 247.09725 
Q 26.22 247.09725 26.22 254.37375 
L 26.22 271.35225 
Q 26.22 278.62875 34.988571 278.62875 
z
" clip-path="url(#pc77883b842)" style="fill: #201d1b; stroke: #ffb052; stroke-width: 1.6; stroke-linejoin: miter"/>
   </g>
   <g id="patch_6">
    <path d="M 93.445714 74.88675 
Q 93.445714 93.078 93.445714 109.927609 
" clip-path="url(#pc77883b842)" style="fill: none; stroke: #a89f94; stroke-width: 1.2; stroke-linecap: round"/>
    <path d="M 95.645714 105.527609 
L 93.445714 109.927609 
L 91.245714 105.527609 
z
" clip-path="url(#pc77883b842)" style="fill: #a89f94; stroke: #a89f94; stroke-width: 1.2; stroke-linecap: round"/>
   </g>
   <g id="patch_7">
    <path d="M 93.445714 142.80075 
Q 93.445714 160.992 93.445714 177.841609 
" clip-path="url(#pc77883b842)" style="fill: none; stroke: #a89f94; stroke-width: 1.2; stroke-linecap: round"/>
    <path d="M 95.645714 173.441609 
L 93.445714 177.841609 
L 91.245714 173.441609 
z
" clip-path="url(#pc77883b842)" style="fill: #a89f94; stroke: #a89f94; stroke-width: 1.2; stroke-linecap: round"/>
   </g>
   <g id="patch_8">
    <path d="M 93.445714 210.71475 
Q 93.445714 228.906 93.445714 245.755609 
" clip-path="url(#pc77883b842)" style="fill: none; stroke: #a89f94; stroke-width: 1.2; stroke-linecap: round"/>
    <path d="M 95.645714 241.355609 
L 93.445714 245.755609 
L 91.245714 241.355609 
z
" clip-path="url(#pc77883b842)" style="fill: #a89f94; stroke: #a89f94; stroke-width: 1.2; stroke-linecap: round"/>
   </g>
   <g id="patch_9">
    <path d="M 198.668571 97.929 
L 350.657143 97.929 
Q 359.425714 97.929 359.425714 90.6525 
L 359.425714 27.5895 
Q 359.425714 20.313 350.657143 20.313 
L 198.668571 20.313 
Q 189.9 20.313 189.9 27.5895 
L 189.9 90.6525 
Q 189.9 97.929 198.668571 97.929 
z
" clip-path="url(#pc77883b842)" style="fill: #201d1b; stroke: #6fd48d; stroke-width: 1.6; stroke-linejoin: miter"/>
   </g>
   <g id="patch_10">
    <path d="M 160.671429 59.121 
Q 175.285714 59.121 188.558359 59.121 
" clip-path="url(#pc77883b842)" style="fill: none; stroke: #a89f94; stroke-width: 1.2; stroke-linecap: round"/>
    <path d="M 184.158359 56.921 
L 188.558359 59.121 
L 184.158359 61.321 
z
" clip-path="url(#pc77883b842)" style="fill: #a89f94; stroke: #a89f94; stroke-width: 1.2; stroke-linecap: round"/>
   </g>
   <g id="patch_11">
    <path d="M 198.668571 156.141 
L 350.657143 156.141 
Q 359.425714 156.141 359.425714 148.8645 
L 359.425714 105.2055 
Q 359.425714 97.929 350.657143 97.929 
L 198.668571 97.929 
Q 189.9 97.929 189.9 105.2055 
L 189.9 148.8645 
Q 189.9 156.141 198.668571 156.141 
z
" clip-path="url(#pc77883b842)" style="fill: #201d1b; stroke: #ffb052; stroke-width: 1.6; stroke-linejoin: miter"/>
   </g>
   <g id="patch_12">
    <path d="M 160.671429 127.035 
Q 175.285714 127.035 188.558359 127.035 
" clip-path="url(#pc77883b842)" style="fill: none; stroke: #a89f94; stroke-width: 1.2; stroke-linecap: round"/>
    <path d="M 184.158359 124.835 
L 188.558359 127.035 
L 184.158359 129.235 
z
" clip-path="url(#pc77883b842)" style="fill: #a89f94; stroke: #a89f94; stroke-width: 1.2; stroke-linecap: round"/>
   </g>
   <g id="patch_13">
    <path d="M 210.36 210.71475 
L 338.965714 210.71475 
Q 347.734286 210.71475 347.734286 203.43825 
L 347.734286 186.45975 
Q 347.734286 179.18325 338.965714 179.18325 
L 210.36 179.18325 
Q 201.591429 179.18325 201.591429 186.45975 
L 201.591429 203.43825 
Q 201.591429 210.71475 210.36 210.71475 
z
" clip-path="url(#pc77883b842)" style="fill: #201d1b; stroke: #c99cff; stroke-width: 1.6; stroke-linejoin: miter"/>
   </g>
   <g id="patch_14">
    <path d="M 160.671429 194.949 
Q 181.131429 194.949 200.249788 194.949 
" clip-path="url(#pc77883b842)" style="fill: none; stroke: #a89f94; stroke-width: 1.2; stroke-linecap: round"/>
    <path d="M 195.849788 192.749 
L 200.249788 194.949 
L 195.849788 197.149 
z
" clip-path="url(#pc77883b842)" style="fill: #a89f94; stroke: #a89f94; stroke-width: 1.2; stroke-linecap: round"/>
   </g>
   <g id="patch_15">
    <path d="M 210.36 259.22475 
L 338.965714 259.22475 
Q 347.734286 259.22475 347.734286 251.94825 
L 347.734286 239.82075 
Q 347.734286 232.54425 338.965714 232.54425 
L 210.36 232.54425 
Q 201.591429 232.54425 201.591429 239.82075 
L 201.591429 251.94825 
Q 201.591429 259.22475 210.36 259.22475 
z
" clip-path="url(#pc77883b842)" style="fill: #201d1b; stroke: #6fd48d; stroke-width: 1.6; stroke-linejoin: miter"/>
   </g>
   <g id="patch_16">
    <path d="M 210.36 293.18175 
L 338.965714 293.18175 
Q 347.734286 293.18175 347.734286 285.90525 
L 347.734286 273.77775 
Q 347.734286 266.50125 338.965714 266.50125 
L 210.36 266.50125 
Q 201.591429 266.50125 201.591429 273.77775 
L 201.591429 285.90525 
Q 201.591429 293.18175 210.36 293.18175 
z
" clip-path="url(#pc77883b842)" style="fill: #201d1b; stroke: #7a7268; stroke-width: 1.6; stroke-linejoin: miter"/>
   </g>
   <g id="patch_17">
    <path d="M 160.671429 258.012 
Q 181.131429 251.94825 200.305092 246.265733 
" clip-path="url(#pc77883b842)" style="fill: none; stroke: #7a7268; stroke-width: 1.2; stroke-linecap: round"/>
    <path d="M 195.461327 245.406698 
L 200.305092 246.265733 
L 196.711605 249.625324 
z
" clip-path="url(#pc77883b842)" style="fill: #7a7268; stroke: #7a7268; stroke-width: 1.2; stroke-linecap: round"/>
   </g>
   <g id="patch_18">
    <path d="M 160.671429 267.714 
Q 181.131429 273.77775 200.305092 279.460267 
" clip-path="url(#pc77883b842)" style="fill: none; stroke: #7a7268; stroke-width: 1.2; stroke-linecap: round"/>
    <path d="M 196.711605 276.100676 
L 200.305092 279.460267 
L 195.461327 280.319302 
z
" clip-path="url(#pc77883b842)" style="fill: #7a7268; stroke: #7a7268; stroke-width: 1.2; stroke-linecap: round"/>
   </g>
   <g id="patch_19">
    <path d="M 93.445714 278.62875 
Q 93.445714 302.277375 93.445714 324.584359 
" clip-path="url(#pc77883b842)" style="fill: none; stroke: #ffb052; stroke-width: 1.2; stroke-linecap: round"/>
    <path d="M 95.645714 320.184359 
L 93.445714 324.584359 
L 91.245714 320.184359 
z
" clip-path="url(#pc77883b842)" style="fill: #ffb052; stroke: #ffb052; stroke-width: 1.2; stroke-linecap: round"/>
   </g>
   <g id="patch_20">
    <path d="M 23.297143 386.5635 
L 350.657143 386.5635 
Q 359.425714 386.5635 359.425714 379.287 
L 359.425714 340.479 
Q 359.425714 333.2025 350.657143 333.2025 
L 23.297143 333.2025 
Q 14.528571 333.2025 14.528571 340.479 
L 14.528571 379.287 
Q 14.528571 386.5635 23.297143 386.5635 
z
" clip-path="url(#pc77883b842)" style="fill: #201d1b; stroke: #ffb052; stroke-width: 1.6; stroke-linejoin: miter"/>
   </g>
   <g id="text_1">
    <!-- at target? -->
    <g style="fill: #fff7eb" transform="translate(70.198917 61.742406) scale(0.095 -0.095)">
     <defs>
      <path id="DejaVuSans-61" d="M 2194 1759 
Q 1497 1759 1228 1600 
Q 959 1441 959 1056 
Q 959 750 1161 570 
Q 1363 391 1709 391 
Q 2188 391 2477 730 
Q 2766 1069 2766 1631 
L 2766 1759 
L 2194 1759 
z
M 3341 1997 
L 3341 0 
L 2766 0 
L 2766 531 
Q 2569 213 2275 61 
Q 1981 -91 1556 -91 
Q 1019 -91 701 211 
Q 384 513 384 1019 
Q 384 1609 779 1909 
Q 1175 2209 1959 2209 
L 2766 2209 
L 2766 2266 
Q 2766 2663 2505 2880 
Q 2244 3097 1772 3097 
Q 1472 3097 1187 3025 
Q 903 2953 641 2809 
L 641 3341 
Q 956 3463 1253 3523 
Q 1550 3584 1831 3584 
Q 2591 3584 2966 3190 
Q 3341 2797 3341 1997 
z
" transform="scale(0.015625)"/>
      <path id="DejaVuSans-74" d="M 1172 4494 
L 1172 3500 
L 2356 3500 
L 2356 3053 
L 1172 3053 
L 1172 1153 
Q 1172 725 1289 603 
Q 1406 481 1766 481 
L 2356 481 
L 2356 0 
L 1766 0 
Q 1100 0 847 248 
Q 594 497 594 1153 
L 594 3053 
L 172 3053 
L 172 3500 
L 594 3500 
L 594 4494 
L 1172 4494 
z
" transform="scale(0.015625)"/>
      <path id="DejaVuSans-20" transform="scale(0.015625)"/>
      <path id="DejaVuSans-72" d="M 2631 2963 
Q 2534 3019 2420 3045 
Q 2306 3072 2169 3072 
Q 1681 3072 1420 2755 
Q 1159 2438 1159 1844 
L 1159 0 
L 581 0 
L 581 3500 
L 1159 3500 
L 1159 2956 
Q 1341 3275 1631 3429 
Q 1922 3584 2338 3584 
Q 2397 3584 2469 3576 
Q 2541 3569 2628 3553 
L 2631 2963 
z
" transform="scale(0.015625)"/>
      <path id="DejaVuSans-67" d="M 2906 1791 
Q 2906 2416 2648 2759 
Q 2391 3103 1925 3103 
Q 1463 3103 1205 2759 
Q 947 2416 947 1791 
Q 947 1169 1205 825 
Q 1463 481 1925 481 
Q 2391 481 2648 825 
Q 2906 1169 2906 1791 
z
M 3481 434 
Q 3481 -459 3084 -895 
Q 2688 -1331 1869 -1331 
Q 1566 -1331 1297 -1286 
Q 1028 -1241 775 -1147 
L 775 -588 
Q 1028 -725 1275 -790 
Q 1522 -856 1778 -856 
Q 2344 -856 2625 -561 
Q 2906 -266 2906 331 
L 2906 616 
Q 2728 306 2450 153 
Q 2172 0 1784 0 
Q 1141 0 747 490 
Q 353 981 353 1791 
Q 353 2603 747 3093 
Q 1141 3584 1784 3584 
Q 2172 3584 2450 3431 
Q 2728 3278 2906 2969 
L 2906 3500 
L 3481 3500 
L 3481 434 
z
" transform="scale(0.015625)"/>
      <path id="DejaVuSans-65" d="M 3597 1894 
L 3597 1613 
L 953 1613 
Q 991 1019 1311 708 
Q 1631 397 2203 397 
Q 2534 397 2845 478 
Q 3156 559 3463 722 
L 3463 178 
Q 3153 47 2828 -22 
Q 2503 -91 2169 -91 
Q 1331 -91 842 396 
Q 353 884 353 1716 
Q 353 2575 817 3079 
Q 1281 3584 2069 3584 
Q 2775 3584 3186 3129 
Q 3597 2675 3597 1894 
z
M 3022 2063 
Q 3016 2534 2758 2815 
Q 2500 3097 2075 3097 
Q 1594 3097 1305 2825 
Q 1016 2553 972 2059 
L 3022 2063 
z
" transform="scale(0.015625)"/>
      <path id="DejaVuSans-3f" d="M 1222 794 
L 1856 794 
L 1856 0 
L 1222 0 
L 1222 794 
z
M 1838 1253 
L 1241 1253 
L 1241 1734 
Q 1241 2050 1328 2253 
Q 1416 2456 1697 2725 
L 1978 3003 
Q 2156 3169 2236 3316 
Q 2316 3463 2316 3616 
Q 2316 3894 2111 4066 
Q 1906 4238 1569 4238 
Q 1322 4238 1042 4128 
Q 763 4019 459 3809 
L 459 4397 
Q 753 4575 1054 4662 
Q 1356 4750 1678 4750 
Q 2253 4750 2601 4447 
Q 2950 4144 2950 3647 
Q 2950 3409 2837 3195 
Q 2725 2981 2444 2713 
L 2169 2444 
Q 2022 2297 1961 2214 
Q 1900 2131 1875 2053 
Q 1856 1988 1847 1894 
Q 1838 1800 1838 1638 
L 1838 1253 
z
" transform="scale(0.015625)"/>
     </defs>
     <use xlink:href="#DejaVuSans-61"/>
     <use xlink:href="#DejaVuSans-74" transform="translate(61.279297 0)"/>
     <use xlink:href="#DejaVuSans-20" transform="translate(100.488281 0)"/>
     <use xlink:href="#DejaVuSans-74" transform="translate(132.275391 0)"/>
     <use xlink:href="#DejaVuSans-61" transform="translate(171.484375 0)"/>
     <use xlink:href="#DejaVuSans-72" transform="translate(232.763672 0)"/>
     <use xlink:href="#DejaVuSans-67" transform="translate(272.126953 0)"/>
     <use xlink:href="#DejaVuSans-65" transform="translate(335.603516 0)"/>
     <use xlink:href="#DejaVuSans-74" transform="translate(397.126953 0)"/>
     <use xlink:href="#DejaVuSans-3f" transform="translate(436.335938 0)"/>
    </g>
   </g>
   <g id="text_2">
    <!-- plan ready? -->
    <g style="fill: #fff7eb" transform="translate(65.652277 129.656406) scale(0.095 -0.095)">
     <defs>
      <path id="DejaVuSans-70" d="M 1159 525 
L 1159 -1331 
L 581 -1331 
L 581 3500 
L 1159 3500 
L 1159 2969 
Q 1341 3281 1617 3432 
Q 1894 3584 2278 3584 
Q 2916 3584 3314 3078 
Q 3713 2572 3713 1747 
Q 3713 922 3314 415 
Q 2916 -91 2278 -91 
Q 1894 -91 1617 61 
Q 1341 213 1159 525 
z
M 3116 1747 
Q 3116 2381 2855 2742 
Q 2594 3103 2138 3103 
Q 1681 3103 1420 2742 
Q 1159 2381 1159 1747 
Q 1159 1113 1420 752 
Q 1681 391 2138 391 
Q 2594 391 2855 752 
Q 3116 1113 3116 1747 
z
" transform="scale(0.015625)"/>
      <path id="DejaVuSans-6c" d="M 603 4863 
L 1178 4863 
L 1178 0 
L 603 0 
L 603 4863 
z
" transform="scale(0.015625)"/>
      <path id="DejaVuSans-6e" d="M 3513 2113 
L 3513 0 
L 2938 0 
L 2938 2094 
Q 2938 2591 2744 2837 
Q 2550 3084 2163 3084 
Q 1697 3084 1428 2787 
Q 1159 2491 1159 1978 
L 1159 0 
L 581 0 
L 581 3500 
L 1159 3500 
L 1159 2956 
Q 1366 3272 1645 3428 
Q 1925 3584 2291 3584 
Q 2894 3584 3203 3211 
Q 3513 2838 3513 2113 
z
" transform="scale(0.015625)"/>
      <path id="DejaVuSans-64" d="M 2906 2969 
L 2906 4863 
L 3481 4863 
L 3481 0 
L 2906 0 
L 2906 525 
Q 2725 213 2448 61 
Q 2172 -91 1784 -91 
Q 1150 -91 751 415 
Q 353 922 353 1747 
Q 353 2572 751 3078 
Q 1150 3584 1784 3584 
Q 2172 3584 2448 3432 
Q 2725 3281 2906 2969 
z
M 947 1747 
Q 947 1113 1208 752 
Q 1469 391 1925 391 
Q 2381 391 2643 752 
Q 2906 1113 2906 1747 
Q 2906 2381 2643 2742 
Q 2381 3103 1925 3103 
Q 1469 3103 1208 2742 
Q 947 2381 947 1747 
z
" transform="scale(0.015625)"/>
      <path id="DejaVuSans-79" d="M 2059 -325 
Q 1816 -950 1584 -1140 
Q 1353 -1331 966 -1331 
L 506 -1331 
L 506 -850 
L 844 -850 
Q 1081 -850 1212 -737 
Q 1344 -625 1503 -206 
L 1606 56 
L 191 3500 
L 800 3500 
L 1894 763 
L 2988 3500 
L 3597 3500 
L 2059 -325 
z
" transform="scale(0.015625)"/>
     </defs>
     <use xlink:href="#DejaVuSans-70"/>
     <use xlink:href="#DejaVuSans-6c" transform="translate(63.476562 0)"/>
     <use xlink:href="#DejaVuSans-61" transform="translate(91.259766 0)"/>
     <use xlink:href="#DejaVuSans-6e" transform="translate(152.539062 0)"/>
     <use xlink:href="#DejaVuSans-20" transform="translate(215.917969 0)"/>
     <use xlink:href="#DejaVuSans-72" transform="translate(247.705078 0)"/>
     <use xlink:href="#DejaVuSans-65" transform="translate(286.568359 0)"/>
     <use xlink:href="#DejaVuSans-61" transform="translate(348.091797 0)"/>
     <use xlink:href="#DejaVuSans-64" transform="translate(409.371094 0)"/>
     <use xlink:href="#DejaVuSans-79" transform="translate(472.847656 0)"/>
     <use xlink:href="#DejaVuSans-3f" transform="translate(532.027344 0)"/>
    </g>
   </g>
   <g id="text_3">
    <!-- next step valid? -->
    <g style="fill: #fff7eb" transform="translate(55.729972 197.570406) scale(0.095 -0.095)">
     <defs>
      <path id="DejaVuSans-78" d="M 3513 3500 
L 2247 1797 
L 3578 0 
L 2900 0 
L 1881 1375 
L 863 0 
L 184 0 
L 1544 1831 
L 300 3500 
L 978 3500 
L 1906 2253 
L 2834 3500 
L 3513 3500 
z
" transform="scale(0.015625)"/>
      <path id="DejaVuSans-73" d="M 2834 3397 
L 2834 2853 
Q 2591 2978 2328 3040 
Q 2066 3103 1784 3103 
Q 1356 3103 1142 2972 
Q 928 2841 928 2578 
Q 928 2378 1081 2264 
Q 1234 2150 1697 2047 
L 1894 2003 
Q 2506 1872 2764 1633 
Q 3022 1394 3022 966 
Q 3022 478 2636 193 
Q 2250 -91 1575 -91 
Q 1294 -91 989 -36 
Q 684 19 347 128 
L 347 722 
Q 666 556 975 473 
Q 1284 391 1588 391 
Q 1994 391 2212 530 
Q 2431 669 2431 922 
Q 2431 1156 2273 1281 
Q 2116 1406 1581 1522 
L 1381 1569 
Q 847 1681 609 1914 
Q 372 2147 372 2553 
Q 372 3047 722 3315 
Q 1072 3584 1716 3584 
Q 2034 3584 2315 3537 
Q 2597 3491 2834 3397 
z
" transform="scale(0.015625)"/>
      <path id="DejaVuSans-76" d="M 191 3500 
L 800 3500 
L 1894 563 
L 2988 3500 
L 3597 3500 
L 2284 0 
L 1503 0 
L 191 3500 
z
" transform="scale(0.015625)"/>
      <path id="DejaVuSans-69" d="M 603 3500 
L 1178 3500 
L 1178 0 
L 603 0 
L 603 3500 
z
M 603 4863 
L 1178 4863 
L 1178 4134 
L 603 4134 
L 603 4863 
z
" transform="scale(0.015625)"/>
     </defs>
     <use xlink:href="#DejaVuSans-6e"/>
     <use xlink:href="#DejaVuSans-65" transform="translate(63.378906 0)"/>
     <use xlink:href="#DejaVuSans-78" transform="translate(123.152344 0)"/>
     <use xlink:href="#DejaVuSans-74" transform="translate(182.332031 0)"/>
     <use xlink:href="#DejaVuSans-20" transform="translate(221.541016 0)"/>
     <use xlink:href="#DejaVuSans-73" transform="translate(253.328125 0)"/>
     <use xlink:href="#DejaVuSans-74" transform="translate(305.427734 0)"/>
     <use xlink:href="#DejaVuSans-65" transform="translate(344.636719 0)"/>
     <use xlink:href="#DejaVuSans-70" transform="translate(406.160156 0)"/>
     <use xlink:href="#DejaVuSans-20" transform="translate(469.636719 0)"/>
     <use xlink:href="#DejaVuSans-76" transform="translate(501.423828 0)"/>
     <use xlink:href="#DejaVuSans-61" transform="translate(560.603516 0)"/>
     <use xlink:href="#DejaVuSans-6c" transform="translate(621.882812 0)"/>
     <use xlink:href="#DejaVuSans-69" transform="translate(649.666016 0)"/>
     <use xlink:href="#DejaVuSans-64" transform="translate(677.449219 0)"/>
     <use xlink:href="#DejaVuSans-3f" transform="translate(740.925781 0)"/>
    </g>
   </g>
   <g id="text_4">
    <!-- emit move -->
    <g style="fill: #fff7eb" transform="translate(67.937472 265.484406) scale(0.095 -0.095)">
     <defs>
      <path id="DejaVuSans-6d" d="M 3328 2828 
Q 3544 3216 3844 3400 
Q 4144 3584 4550 3584 
Q 5097 3584 5394 3201 
Q 5691 2819 5691 2113 
L 5691 0 
L 5113 0 
L 5113 2094 
Q 5113 2597 4934 2840 
Q 4756 3084 4391 3084 
Q 3944 3084 3684 2787 
Q 3425 2491 3425 1978 
L 3425 0 
L 2847 0 
L 2847 2094 
Q 2847 2600 2669 2842 
Q 2491 3084 2119 3084 
Q 1678 3084 1418 2786 
Q 1159 2488 1159 1978 
L 1159 0 
L 581 0 
L 581 3500 
L 1159 3500 
L 1159 2956 
Q 1356 3278 1631 3431 
Q 1906 3584 2284 3584 
Q 2666 3584 2933 3390 
Q 3200 3197 3328 2828 
z
" transform="scale(0.015625)"/>
      <path id="DejaVuSans-6f" d="M 1959 3097 
Q 1497 3097 1228 2736 
Q 959 2375 959 1747 
Q 959 1119 1226 758 
Q 1494 397 1959 397 
Q 2419 397 2687 759 
Q 2956 1122 2956 1747 
Q 2956 2369 2687 2733 
Q 2419 3097 1959 3097 
z
M 1959 3584 
Q 2709 3584 3137 3096 
Q 3566 2609 3566 1747 
Q 3566 888 3137 398 
Q 2709 -91 1959 -91 
Q 1206 -91 779 398 
Q 353 888 353 1747 
Q 353 2609 779 3096 
Q 1206 3584 1959 3584 
z
" transform="scale(0.015625)"/>
     </defs>
     <use xlink:href="#DejaVuSans-65"/>
     <use xlink:href="#DejaVuSans-6d" transform="translate(61.523438 0)"/>
     <use xlink:href="#DejaVuSans-69" transform="translate(158.935547 0)"/>
     <use xlink:href="#DejaVuSans-74" transform="translate(186.71875 0)"/>
     <use xlink:href="#DejaVuSans-20" transform="translate(225.927734 0)"/>
     <use xlink:href="#DejaVuSans-6d" transform="translate(257.714844 0)"/>
     <use xlink:href="#DejaVuSans-6f" transform="translate(355.126953 0)"/>
     <use xlink:href="#DejaVuSans-76" transform="translate(416.308594 0)"/>
     <use xlink:href="#DejaVuSans-65" transform="translate(475.488281 0)"/>
    </g>
   </g>
   <g id="text_5">
    <!-- no -->
    <g style="fill: #a89f94" transform="translate(106.374045 95.119937) scale(0.074 -0.074)">
     <use xlink:href="#DejaVuSans-6e"/>
     <use xlink:href="#DejaVuSans-6f" transform="translate(63.378906 0)"/>
    </g>
   </g>
   <g id="text_6">
    <!-- yes -->
    <g style="fill: #a89f94" transform="translate(104.588795 163.033937) scale(0.074 -0.074)">
     <use xlink:href="#DejaVuSans-79"/>
     <use xlink:href="#DejaVuSans-65" transform="translate(59.179688 0)"/>
     <use xlink:href="#DejaVuSans-73" transform="translate(120.703125 0)"/>
    </g>
   </g>
   <g id="text_7">
    <!-- yes -->
    <g style="fill: #a89f94" transform="translate(104.588795 230.947937) scale(0.074 -0.074)">
     <use xlink:href="#DejaVuSans-79"/>
     <use xlink:href="#DejaVuSans-65" transform="translate(59.179688 0)"/>
     <use xlink:href="#DejaVuSans-73" transform="translate(120.703125 0)"/>
    </g>
   </g>
   <g id="text_8">
    <!-- finalize → notifyIntentionDone -->
    <g style="fill: #6fd48d" transform="translate(207.145279 35.409037) scale(0.09 -0.09)">
     <defs>
      <path id="DejaVuSans-66" d="M 2375 4863 
L 2375 4384 
L 1825 4384 
Q 1516 4384 1395 4259 
Q 1275 4134 1275 3809 
L 1275 3500 
L 2222 3500 
L 2222 3053 
L 1275 3053 
L 1275 0 
L 697 0 
L 697 3053 
L 147 3053 
L 147 3500 
L 697 3500 
L 697 3744 
Q 697 4328 969 4595 
Q 1241 4863 1831 4863 
L 2375 4863 
z
" transform="scale(0.015625)"/>
      <path id="DejaVuSans-7a" d="M 353 3500 
L 3084 3500 
L 3084 2975 
L 922 459 
L 3084 459 
L 3084 0 
L 275 0 
L 275 525 
L 2438 3041 
L 353 3041 
L 353 3500 
z
" transform="scale(0.015625)"/>
      <path id="DejaVuSans-2192" d="M 5050 2147 
L 5050 1866 
L 3822 638 
L 3447 1013 
L 4175 1741 
L 366 1741 
L 366 2272 
L 4175 2272 
L 3447 3000 
L 3822 3375 
L 5050 2147 
z
" transform="scale(0.015625)"/>
      <path id="DejaVuSans-49" d="M 628 4666 
L 1259 4666 
L 1259 0 
L 628 0 
L 628 4666 
z
" transform="scale(0.015625)"/>
      <path id="DejaVuSans-44" d="M 1259 4147 
L 1259 519 
L 2022 519 
Q 2988 519 3436 956 
Q 3884 1394 3884 2338 
Q 3884 3275 3436 3711 
Q 2988 4147 2022 4147 
L 1259 4147 
z
M 628 4666 
L 1925 4666 
Q 3281 4666 3915 4102 
Q 4550 3538 4550 2338 
Q 4550 1131 3912 565 
Q 3275 0 1925 0 
L 628 0 
L 628 4666 
z
" transform="scale(0.015625)"/>
     </defs>
     <use xlink:href="#DejaVuSans-66"/>
     <use xlink:href="#DejaVuSans-69" transform="translate(35.205078 0)"/>
     <use xlink:href="#DejaVuSans-6e" transform="translate(62.988281 0)"/>
     <use xlink:href="#DejaVuSans-61" transform="translate(126.367188 0)"/>
     <use xlink:href="#DejaVuSans-6c" transform="translate(187.646484 0)"/>
     <use xlink:href="#DejaVuSans-69" transform="translate(215.429688 0)"/>
     <use xlink:href="#DejaVuSans-7a" transform="translate(243.212891 0)"/>
     <use xlink:href="#DejaVuSans-65" transform="translate(295.703125 0)"/>
     <use xlink:href="#DejaVuSans-20" transform="translate(357.226562 0)"/>
     <use xlink:href="#DejaVuSans-2192" transform="translate(389.013672 0)"/>
     <use xlink:href="#DejaVuSans-20" transform="translate(472.802734 0)"/>
     <use xlink:href="#DejaVuSans-6e" transform="translate(504.589844 0)"/>
     <use xlink:href="#DejaVuSans-6f" transform="translate(567.96875 0)"/>
     <use xlink:href="#DejaVuSans-74" transform="translate(629.150391 0)"/>
     <use xlink:href="#DejaVuSans-69" transform="translate(668.359375 0)"/>
     <use xlink:href="#DejaVuSans-66" transform="translate(696.142578 0)"/>
     <use xlink:href="#DejaVuSans-79" transform="translate(729.597656 0)"/>
     <use xlink:href="#DejaVuSans-49" transform="translate(788.777344 0)"/>
     <use xlink:href="#DejaVuSans-6e" transform="translate(818.269531 0)"/>
     <use xlink:href="#DejaVuSans-74" transform="translate(881.648438 0)"/>
     <use xlink:href="#DejaVuSans-65" transform="translate(920.857422 0)"/>
     <use xlink:href="#DejaVuSans-6e" transform="translate(982.380859 0)"/>
     <use xlink:href="#DejaVuSans-74" transform="translate(1045.759766 0)"/>
     <use xlink:href="#DejaVuSans-69" transform="translate(1084.96875 0)"/>
     <use xlink:href="#DejaVuSans-6f" transform="translate(1112.751953 0)"/>
     <use xlink:href="#DejaVuSans-6e" transform="translate(1173.933594 0)"/>
     <use xlink:href="#DejaVuSans-44" transform="translate(1237.3125 0)"/>
     <use xlink:href="#DejaVuSans-6f" transform="translate(1314.314453 0)"/>
     <use xlink:href="#DejaVuSans-6e" transform="translate(1375.496094 0)"/>
     <use xlink:href="#DejaVuSans-65" transform="translate(1438.875 0)"/>
    </g>
   </g>
   <g id="text_9">
    <!-- • go_pick_up → emitPickup · claim -->
    <g style="fill: #a89f94" transform="translate(201.591429 51.148406) scale(0.066 -0.066)">
     <defs>
      <path id="DejaVuSans-2022" d="M 959 2381 
Q 959 2769 1229 3036 
Q 1500 3303 1894 3303 
Q 2281 3303 2548 3036 
Q 2816 2769 2816 2381 
Q 2816 1991 2547 1722 
Q 2278 1453 1888 1453 
Q 1497 1453 1228 1722 
Q 959 1991 959 2381 
z
" transform="scale(0.015625)"/>
      <path id="DejaVuSans-5f" d="M 3263 -1063 
L 3263 -1509 
L -63 -1509 
L -63 -1063 
L 3263 -1063 
z
" transform="scale(0.015625)"/>
      <path id="DejaVuSans-63" d="M 3122 3366 
L 3122 2828 
Q 2878 2963 2633 3030 
Q 2388 3097 2138 3097 
Q 1578 3097 1268 2742 
Q 959 2388 959 1747 
Q 959 1106 1268 751 
Q 1578 397 2138 397 
Q 2388 397 2633 464 
Q 2878 531 3122 666 
L 3122 134 
Q 2881 22 2623 -34 
Q 2366 -91 2075 -91 
Q 1284 -91 818 406 
Q 353 903 353 1747 
Q 353 2603 823 3093 
Q 1294 3584 2113 3584 
Q 2378 3584 2631 3529 
Q 2884 3475 3122 3366 
z
" transform="scale(0.015625)"/>
      <path id="DejaVuSans-6b" d="M 581 4863 
L 1159 4863 
L 1159 1991 
L 2875 3500 
L 3609 3500 
L 1753 1863 
L 3688 0 
L 2938 0 
L 1159 1709 
L 1159 0 
L 581 0 
L 581 4863 
z
" transform="scale(0.015625)"/>
      <path id="DejaVuSans-75" d="M 544 1381 
L 544 3500 
L 1119 3500 
L 1119 1403 
Q 1119 906 1312 657 
Q 1506 409 1894 409 
Q 2359 409 2629 706 
Q 2900 1003 2900 1516 
L 2900 3500 
L 3475 3500 
L 3475 0 
L 2900 0 
L 2900 538 
Q 2691 219 2414 64 
Q 2138 -91 1772 -91 
Q 1169 -91 856 284 
Q 544 659 544 1381 
z
M 1991 3584 
L 1991 3584 
z
" transform="scale(0.015625)"/>
      <path id="DejaVuSans-50" d="M 1259 4147 
L 1259 2394 
L 2053 2394 
Q 2494 2394 2734 2622 
Q 2975 2850 2975 3272 
Q 2975 3691 2734 3919 
Q 2494 4147 2053 4147 
L 1259 4147 
z
M 628 4666 
L 2053 4666 
Q 2838 4666 3239 4311 
Q 3641 3956 3641 3272 
Q 3641 2581 3239 2228 
Q 2838 1875 2053 1875 
L 1259 1875 
L 1259 0 
L 628 0 
L 628 4666 
z
" transform="scale(0.015625)"/>
      <path id="DejaVuSans-b7" d="M 684 2619 
L 1344 2619 
L 1344 1825 
L 684 1825 
L 684 2619 
z
" transform="scale(0.015625)"/>
     </defs>
     <use xlink:href="#DejaVuSans-2022"/>
     <use xlink:href="#DejaVuSans-20" transform="translate(58.984375 0)"/>
     <use xlink:href="#DejaVuSans-67" transform="translate(90.771484 0)"/>
     <use xlink:href="#DejaVuSans-6f" transform="translate(154.248047 0)"/>
     <use xlink:href="#DejaVuSans-5f" transform="translate(215.429688 0)"/>
     <use xlink:href="#DejaVuSans-70" transform="translate(265.429688 0)"/>
     <use xlink:href="#DejaVuSans-69" transform="translate(328.90625 0)"/>
     <use xlink:href="#DejaVuSans-63" transform="translate(356.689453 0)"/>
     <use xlink:href="#DejaVuSans-6b" transform="translate(411.669922 0)"/>
     <use xlink:href="#DejaVuSans-5f" transform="translate(469.580078 0)"/>
     <use xlink:href="#DejaVuSans-75" transform="translate(519.580078 0)"/>
     <use xlink:href="#DejaVuSans-70" transform="translate(582.958984 0)"/>
     <use xlink:href="#DejaVuSans-20" transform="translate(646.435547 0)"/>
     <use xlink:href="#DejaVuSans-2192" transform="translate(678.222656 0)"/>
     <use xlink:href="#DejaVuSans-20" transform="translate(762.011719 0)"/>
     <use xlink:href="#DejaVuSans-65" transform="translate(793.798828 0)"/>
     <use xlink:href="#DejaVuSans-6d" transform="translate(855.322266 0)"/>
     <use xlink:href="#DejaVuSans-69" transform="translate(952.734375 0)"/>
     <use xlink:href="#DejaVuSans-74" transform="translate(980.517578 0)"/>
     <use xlink:href="#DejaVuSans-50" transform="translate(1019.726562 0)"/>
     <use xlink:href="#DejaVuSans-69" transform="translate(1077.779297 0)"/>
     <use xlink:href="#DejaVuSans-63" transform="translate(1105.5625 0)"/>
     <use xlink:href="#DejaVuSans-6b" transform="translate(1160.542969 0)"/>
     <use xlink:href="#DejaVuSans-75" transform="translate(1215.328125 0)"/>
     <use xlink:href="#DejaVuSans-70" transform="translate(1278.707031 0)"/>
     <use xlink:href="#DejaVuSans-20" transform="translate(1342.183594 0)"/>
     <use xlink:href="#DejaVuSans-b7" transform="translate(1373.970703 0)"/>
     <use xlink:href="#DejaVuSans-20" transform="translate(1405.757812 0)"/>
     <use xlink:href="#DejaVuSans-63" transform="translate(1437.544922 0)"/>
     <use xlink:href="#DejaVuSans-6c" transform="translate(1492.525391 0)"/>
     <use xlink:href="#DejaVuSans-61" transform="translate(1520.308594 0)"/>
     <use xlink:href="#DejaVuSans-69" transform="translate(1581.587891 0)"/>
     <use xlink:href="#DejaVuSans-6d" transform="translate(1609.371094 0)"/>
    </g>
   </g>
   <g id="text_10">
    <!-- • go_deliver → emitPutdown · score -->
    <g style="fill: #a89f94" transform="translate(201.591429 67.641806) scale(0.066 -0.066)">
     <defs>
      <path id="DejaVuSans-77" d="M 269 3500 
L 844 3500 
L 1563 769 
L 2278 3500 
L 2956 3500 
L 3675 769 
L 4391 3500 
L 4966 3500 
L 4050 0 
L 3372 0 
L 2619 2869 
L 1863 0 
L 1184 0 
L 269 3500 
z
" transform="scale(0.015625)"/>
     </defs>
     <use xlink:href="#DejaVuSans-2022"/>
     <use xlink:href="#DejaVuSans-20" transform="translate(58.984375 0)"/>
     <use xlink:href="#DejaVuSans-67" transform="translate(90.771484 0)"/>
     <use xlink:href="#DejaVuSans-6f" transform="translate(154.248047 0)"/>
     <use xlink:href="#DejaVuSans-5f" transform="translate(215.429688 0)"/>
     <use xlink:href="#DejaVuSans-64" transform="translate(265.429688 0)"/>
     <use xlink:href="#DejaVuSans-65" transform="translate(328.90625 0)"/>
     <use xlink:href="#DejaVuSans-6c" transform="translate(390.429688 0)"/>
     <use xlink:href="#DejaVuSans-69" transform="translate(418.212891 0)"/>
     <use xlink:href="#DejaVuSans-76" transform="translate(445.996094 0)"/>
     <use xlink:href="#DejaVuSans-65" transform="translate(505.175781 0)"/>
     <use xlink:href="#DejaVuSans-72" transform="translate(566.699219 0)"/>
     <use xlink:href="#DejaVuSans-20" transform="translate(607.8125 0)"/>
     <use xlink:href="#DejaVuSans-2192" transform="translate(639.599609 0)"/>
     <use xlink:href="#DejaVuSans-20" transform="translate(723.388672 0)"/>
     <use xlink:href="#DejaVuSans-65" transform="translate(755.175781 0)"/>
     <use xlink:href="#DejaVuSans-6d" transform="translate(816.699219 0)"/>
     <use xlink:href="#DejaVuSans-69" transform="translate(914.111328 0)"/>
     <use xlink:href="#DejaVuSans-74" transform="translate(941.894531 0)"/>
     <use xlink:href="#DejaVuSans-50" transform="translate(981.103516 0)"/>
     <use xlink:href="#DejaVuSans-75" transform="translate(1039.65625 0)"/>
     <use xlink:href="#DejaVuSans-74" transform="translate(1103.035156 0)"/>
     <use xlink:href="#DejaVuSans-64" transform="translate(1142.244141 0)"/>
     <use xlink:href="#DejaVuSans-6f" transform="translate(1205.720703 0)"/>
     <use xlink:href="#DejaVuSans-77" transform="translate(1266.902344 0)"/>
     <use xlink:href="#DejaVuSans-6e" transform="translate(1348.689453 0)"/>
     <use xlink:href="#DejaVuSans-20" transform="translate(1412.068359 0)"/>
     <use xlink:href="#DejaVuSans-b7" transform="translate(1443.855469 0)"/>
     <use xlink:href="#DejaVuSans-20" transform="translate(1475.642578 0)"/>
     <use xlink:href="#DejaVuSans-73" transform="translate(1507.429688 0)"/>
     <use xlink:href="#DejaVuSans-63" transform="translate(1559.529297 0)"/>
     <use xlink:href="#DejaVuSans-6f" transform="translate(1614.509766 0)"/>
     <use xlink:href="#DejaVuSans-72" transform="translate(1675.691406 0)"/>
     <use xlink:href="#DejaVuSans-65" transform="translate(1714.554688 0)"/>
    </g>
   </g>
   <g id="text_11">
    <!-- • go_to / explore → arrived -->
    <g style="fill: #a89f94" transform="translate(201.591429 84.135206) scale(0.066 -0.066)">
     <defs>
      <path id="DejaVuSans-2f" d="M 1625 4666 
L 2156 4666 
L 531 -594 
L 0 -594 
L 1625 4666 
z
" transform="scale(0.015625)"/>
     </defs>
     <use xlink:href="#DejaVuSans-2022"/>
     <use xlink:href="#DejaVuSans-20" transform="translate(58.984375 0)"/>
     <use xlink:href="#DejaVuSans-67" transform="translate(90.771484 0)"/>
     <use xlink:href="#DejaVuSans-6f" transform="translate(154.248047 0)"/>
     <use xlink:href="#DejaVuSans-5f" transform="translate(215.429688 0)"/>
     <use xlink:href="#DejaVuSans-74" transform="translate(265.429688 0)"/>
     <use xlink:href="#DejaVuSans-6f" transform="translate(304.638672 0)"/>
     <use xlink:href="#DejaVuSans-20" transform="translate(365.820312 0)"/>
     <use xlink:href="#DejaVuSans-2f" transform="translate(397.607422 0)"/>
     <use xlink:href="#DejaVuSans-20" transform="translate(431.298828 0)"/>
     <use xlink:href="#DejaVuSans-65" transform="translate(463.085938 0)"/>
     <use xlink:href="#DejaVuSans-78" transform="translate(522.859375 0)"/>
     <use xlink:href="#DejaVuSans-70" transform="translate(582.039062 0)"/>
     <use xlink:href="#DejaVuSans-6c" transform="translate(645.515625 0)"/>
     <use xlink:href="#DejaVuSans-6f" transform="translate(673.298828 0)"/>
     <use xlink:href="#DejaVuSans-72" transform="translate(734.480469 0)"/>
     <use xlink:href="#DejaVuSans-65" transform="translate(773.34375 0)"/>
     <use xlink:href="#DejaVuSans-20" transform="translate(834.867188 0)"/>
     <use xlink:href="#DejaVuSans-2192" transform="translate(866.654297 0)"/>
     <use xlink:href="#DejaVuSans-20" transform="translate(950.443359 0)"/>
     <use xlink:href="#DejaVuSans-61" transform="translate(982.230469 0)"/>
     <use xlink:href="#DejaVuSans-72" transform="translate(1043.509766 0)"/>
     <use xlink:href="#DejaVuSans-72" transform="translate(1082.873047 0)"/>
     <use xlink:href="#DejaVuSans-69" transform="translate(1123.986328 0)"/>
     <use xlink:href="#DejaVuSans-76" transform="translate(1151.769531 0)"/>
     <use xlink:href="#DejaVuSans-65" transform="translate(1210.949219 0)"/>
     <use xlink:href="#DejaVuSans-64" transform="translate(1272.472656 0)"/>
    </g>
   </g>
   <g id="text_12">
    <!-- yes -->
    <g style="fill: #a89f94" transform="translate(168.891652 53.401338) scale(0.074 -0.074)">
     <use xlink:href="#DejaVuSans-79"/>
     <use xlink:href="#DejaVuSans-65" transform="translate(59.179688 0)"/>
     <use xlink:href="#DejaVuSans-73" transform="translate(120.703125 0)"/>
    </g>
   </g>
   <g id="text_13">
    <!-- computePlan (A* | PDDL) -->
    <g style="fill: #ffb052" transform="translate(218.440279 112.919569) scale(0.09 -0.09)">
     <defs>
      <path id="DejaVuSans-28" d="M 1984 4856 
Q 1566 4138 1362 3434 
Q 1159 2731 1159 2009 
Q 1159 1288 1364 580 
Q 1569 -128 1984 -844 
L 1484 -844 
Q 1016 -109 783 600 
Q 550 1309 550 2009 
Q 550 2706 781 3412 
Q 1013 4119 1484 4856 
L 1984 4856 
z
" transform="scale(0.015625)"/>
      <path id="DejaVuSans-41" d="M 2188 4044 
L 1331 1722 
L 3047 1722 
L 2188 4044 
z
M 1831 4666 
L 2547 4666 
L 4325 0 
L 3669 0 
L 3244 1197 
L 1141 1197 
L 716 0 
L 50 0 
L 1831 4666 
z
" transform="scale(0.015625)"/>
      <path id="DejaVuSans-2a" d="M 3009 3897 
L 1888 3291 
L 3009 2681 
L 2828 2375 
L 1778 3009 
L 1778 1831 
L 1422 1831 
L 1422 3009 
L 372 2375 
L 191 2681 
L 1313 3291 
L 191 3897 
L 372 4206 
L 1422 3572 
L 1422 4750 
L 1778 4750 
L 1778 3572 
L 2828 4206 
L 3009 3897 
z
" transform="scale(0.015625)"/>
      <path id="DejaVuSans-7c" d="M 1344 4891 
L 1344 -1509 
L 813 -1509 
L 813 4891 
L 1344 4891 
z
" transform="scale(0.015625)"/>
      <path id="DejaVuSans-4c" d="M 628 4666 
L 1259 4666 
L 1259 531 
L 3531 531 
L 3531 0 
L 628 0 
L 628 4666 
z
" transform="scale(0.015625)"/>
      <path id="DejaVuSans-29" d="M 513 4856 
L 1013 4856 
Q 1481 4119 1714 3412 
Q 1947 2706 1947 2009 
Q 1947 1309 1714 600 
Q 1481 -109 1013 -844 
L 513 -844 
Q 928 -128 1133 580 
Q 1338 1288 1338 2009 
Q 1338 2731 1133 3434 
Q 928 4138 513 4856 
z
" transform="scale(0.015625)"/>
     </defs>
     <use xlink:href="#DejaVuSans-63"/>
     <use xlink:href="#DejaVuSans-6f" transform="translate(54.980469 0)"/>
     <use xlink:href="#DejaVuSans-6d" transform="translate(116.162109 0)"/>
     <use xlink:href="#DejaVuSans-70" transform="translate(213.574219 0)"/>
     <use xlink:href="#DejaVuSans-75" transform="translate(277.050781 0)"/>
     <use xlink:href="#DejaVuSans-74" transform="translate(340.429688 0)"/>
     <use xlink:href="#DejaVuSans-65" transform="translate(379.638672 0)"/>
     <use xlink:href="#DejaVuSans-50" transform="translate(441.162109 0)"/>
     <use xlink:href="#DejaVuSans-6c" transform="translate(501.464844 0)"/>
     <use xlink:href="#DejaVuSans-61" transform="translate(529.248047 0)"/>
     <use xlink:href="#DejaVuSans-6e" transform="translate(590.527344 0)"/>
     <use xlink:href="#DejaVuSans-20" transform="translate(653.90625 0)"/>
     <use xlink:href="#DejaVuSans-28" transform="translate(685.693359 0)"/>
     <use xlink:href="#DejaVuSans-41" transform="translate(724.707031 0)"/>
     <use xlink:href="#DejaVuSans-2a" transform="translate(793.115234 0)"/>
     <use xlink:href="#DejaVuSans-20" transform="translate(843.115234 0)"/>
     <use xlink:href="#DejaVuSans-7c" transform="translate(874.902344 0)"/>
     <use xlink:href="#DejaVuSans-20" transform="translate(908.59375 0)"/>
     <use xlink:href="#DejaVuSans-50" transform="translate(940.380859 0)"/>
     <use xlink:href="#DejaVuSans-44" transform="translate(1000.683594 0)"/>
     <use xlink:href="#DejaVuSans-44" transform="translate(1077.685547 0)"/>
     <use xlink:href="#DejaVuSans-4c" transform="translate(1154.6875 0)"/>
     <use xlink:href="#DejaVuSans-29" transform="translate(1210.400391 0)"/>
    </g>
   </g>
   <g id="text_14">
    <!-- • moves found → follow plan -->
    <g style="fill: #a89f94" transform="translate(201.591429 128.856187) scale(0.066 -0.066)">
     <use xlink:href="#DejaVuSans-2022"/>
     <use xlink:href="#DejaVuSans-20" transform="translate(58.984375 0)"/>
     <use xlink:href="#DejaVuSans-6d" transform="translate(90.771484 0)"/>
     <use xlink:href="#DejaVuSans-6f" transform="translate(188.183594 0)"/>
     <use xlink:href="#DejaVuSans-76" transform="translate(249.365234 0)"/>
     <use xlink:href="#DejaVuSans-65" transform="translate(308.544922 0)"/>
     <use xlink:href="#DejaVuSans-73" transform="translate(370.068359 0)"/>
     <use xlink:href="#DejaVuSans-20" transform="translate(422.167969 0)"/>
     <use xlink:href="#DejaVuSans-66" transform="translate(453.955078 0)"/>
     <use xlink:href="#DejaVuSans-6f" transform="translate(489.160156 0)"/>
     <use xlink:href="#DejaVuSans-75" transform="translate(550.341797 0)"/>
     <use xlink:href="#DejaVuSans-6e" transform="translate(613.720703 0)"/>
     <use xlink:href="#DejaVuSans-64" transform="translate(677.099609 0)"/>
     <use xlink:href="#DejaVuSans-20" transform="translate(740.576172 0)"/>
     <use xlink:href="#DejaVuSans-2192" transform="translate(772.363281 0)"/>
     <use xlink:href="#DejaVuSans-20" transform="translate(856.152344 0)"/>
     <use xlink:href="#DejaVuSans-66" transform="translate(887.939453 0)"/>
     <use xlink:href="#DejaVuSans-6f" transform="translate(923.144531 0)"/>
     <use xlink:href="#DejaVuSans-6c" transform="translate(984.326172 0)"/>
     <use xlink:href="#DejaVuSans-6c" transform="translate(1012.109375 0)"/>
     <use xlink:href="#DejaVuSans-6f" transform="translate(1039.892578 0)"/>
     <use xlink:href="#DejaVuSans-77" transform="translate(1101.074219 0)"/>
     <use xlink:href="#DejaVuSans-20" transform="translate(1182.861328 0)"/>
     <use xlink:href="#DejaVuSans-70" transform="translate(1214.648438 0)"/>
     <use xlink:href="#DejaVuSans-6c" transform="translate(1278.125 0)"/>
     <use xlink:href="#DejaVuSans-61" transform="translate(1305.908203 0)"/>
     <use xlink:href="#DejaVuSans-6e" transform="translate(1367.1875 0)"/>
    </g>
   </g>
   <g id="text_15">
    <!-- • empty → notifyActionFailed(no_path) -->
    <g style="fill: #a89f94" transform="translate(201.591429 145.257806) scale(0.066 -0.066)">
     <defs>
      <path id="DejaVuSans-46" d="M 628 4666 
L 3309 4666 
L 3309 4134 
L 1259 4134 
L 1259 2759 
L 3109 2759 
L 3109 2228 
L 1259 2228 
L 1259 0 
L 628 0 
L 628 4666 
z
" transform="scale(0.015625)"/>
      <path id="DejaVuSans-68" d="M 3513 2113 
L 3513 0 
L 2938 0 
L 2938 2094 
Q 2938 2591 2744 2837 
Q 2550 3084 2163 3084 
Q 1697 3084 1428 2787 
Q 1159 2491 1159 1978 
L 1159 0 
L 581 0 
L 581 4863 
L 1159 4863 
L 1159 2956 
Q 1366 3272 1645 3428 
Q 1925 3584 2291 3584 
Q 2894 3584 3203 3211 
Q 3513 2838 3513 2113 
z
" transform="scale(0.015625)"/>
     </defs>
     <use xlink:href="#DejaVuSans-2022"/>
     <use xlink:href="#DejaVuSans-20" transform="translate(58.984375 0)"/>
     <use xlink:href="#DejaVuSans-65" transform="translate(90.771484 0)"/>
     <use xlink:href="#DejaVuSans-6d" transform="translate(152.294922 0)"/>
     <use xlink:href="#DejaVuSans-70" transform="translate(249.707031 0)"/>
     <use xlink:href="#DejaVuSans-74" transform="translate(313.183594 0)"/>
     <use xlink:href="#DejaVuSans-79" transform="translate(352.392578 0)"/>
     <use xlink:href="#DejaVuSans-20" transform="translate(411.572266 0)"/>
     <use xlink:href="#DejaVuSans-2192" transform="translate(443.359375 0)"/>
     <use xlink:href="#DejaVuSans-20" transform="translate(527.148438 0)"/>
     <use xlink:href="#DejaVuSans-6e" transform="translate(558.935547 0)"/>
     <use xlink:href="#DejaVuSans-6f" transform="translate(622.314453 0)"/>
     <use xlink:href="#DejaVuSans-74" transform="translate(683.496094 0)"/>
     <use xlink:href="#DejaVuSans-69" transform="translate(722.705078 0)"/>
     <use xlink:href="#DejaVuSans-66" transform="translate(750.488281 0)"/>
     <use xlink:href="#DejaVuSans-79" transform="translate(783.943359 0)"/>
     <use xlink:href="#DejaVuSans-41" transform="translate(843.123047 0)"/>
     <use xlink:href="#DejaVuSans-63" transform="translate(909.78125 0)"/>
     <use xlink:href="#DejaVuSans-74" transform="translate(964.761719 0)"/>
     <use xlink:href="#DejaVuSans-69" transform="translate(1003.970703 0)"/>
     <use xlink:href="#DejaVuSans-6f" transform="translate(1031.753906 0)"/>
     <use xlink:href="#DejaVuSans-6e" transform="translate(1092.935547 0)"/>
     <use xlink:href="#DejaVuSans-46" transform="translate(1156.314453 0)"/>
     <use xlink:href="#DejaVuSans-61" transform="translate(1204.708984 0)"/>
     <use xlink:href="#DejaVuSans-69" transform="translate(1265.988281 0)"/>
     <use xlink:href="#DejaVuSans-6c" transform="translate(1293.771484 0)"/>
     <use xlink:href="#DejaVuSans-65" transform="translate(1321.554688 0)"/>
     <use xlink:href="#DejaVuSans-64" transform="translate(1383.078125 0)"/>
     <use xlink:href="#DejaVuSans-28" transform="translate(1446.554688 0)"/>
     <use xlink:href="#DejaVuSans-6e" transform="translate(1485.568359 0)"/>
     <use xlink:href="#DejaVuSans-6f" transform="translate(1548.947266 0)"/>
     <use xlink:href="#DejaVuSans-5f" transform="translate(1610.128906 0)"/>
     <use xlink:href="#DejaVuSans-70" transform="translate(1660.128906 0)"/>
     <use xlink:href="#DejaVuSans-61" transform="translate(1723.605469 0)"/>
     <use xlink:href="#DejaVuSans-74" transform="translate(1784.884766 0)"/>
     <use xlink:href="#DejaVuSans-68" transform="translate(1824.09375 0)"/>
     <use xlink:href="#DejaVuSans-29" transform="translate(1887.472656 0)"/>
    </g>
   </g>
   <g id="text_16">
    <!-- no -->
    <g style="fill: #a89f94" transform="translate(170.676902 121.315337) scale(0.074 -0.074)">
     <use xlink:href="#DejaVuSans-6e"/>
     <use xlink:href="#DejaVuSans-6f" transform="translate(63.378906 0)"/>
    </g>
   </g>
   <g id="text_17">
    <!-- drop plan → replan -->
    <g style="fill: #a89f94" transform="translate(230.089302 197.570406) scale(0.095 -0.095)">
     <use xlink:href="#DejaVuSans-64"/>
     <use xlink:href="#DejaVuSans-72" transform="translate(63.476562 0)"/>
     <use xlink:href="#DejaVuSans-6f" transform="translate(102.339844 0)"/>
     <use xlink:href="#DejaVuSans-70" transform="translate(163.521484 0)"/>
     <use xlink:href="#DejaVuSans-20" transform="translate(226.998047 0)"/>
     <use xlink:href="#DejaVuSans-70" transform="translate(258.785156 0)"/>
     <use xlink:href="#DejaVuSans-6c" transform="translate(322.261719 0)"/>
     <use xlink:href="#DejaVuSans-61" transform="translate(350.044922 0)"/>
     <use xlink:href="#DejaVuSans-6e" transform="translate(411.324219 0)"/>
     <use xlink:href="#DejaVuSans-20" transform="translate(474.703125 0)"/>
     <use xlink:href="#DejaVuSans-2192" transform="translate(506.490234 0)"/>
     <use xlink:href="#DejaVuSans-20" transform="translate(590.279297 0)"/>
     <use xlink:href="#DejaVuSans-72" transform="translate(622.066406 0)"/>
     <use xlink:href="#DejaVuSans-65" transform="translate(660.929688 0)"/>
     <use xlink:href="#DejaVuSans-70" transform="translate(722.453125 0)"/>
     <use xlink:href="#DejaVuSans-6c" transform="translate(785.929688 0)"/>
     <use xlink:href="#DejaVuSans-61" transform="translate(813.712891 0)"/>
     <use xlink:href="#DejaVuSans-6e" transform="translate(874.992188 0)"/>
    </g>
   </g>
   <g id="text_18">
    <!-- no -->
    <g style="fill: #a89f94" transform="translate(176.522616 189.229337) scale(0.074 -0.074)">
     <use xlink:href="#DejaVuSans-6e"/>
     <use xlink:href="#DejaVuSans-6f" transform="translate(63.378906 0)"/>
    </g>
   </g>
   <g id="text_19">
    <!-- OK → advance -->
    <g style="fill: #a89f94" transform="translate(240.615748 248.505906) scale(0.095 -0.095)">
     <defs>
      <path id="DejaVuSans-4f" d="M 2522 4238 
Q 1834 4238 1429 3725 
Q 1025 3213 1025 2328 
Q 1025 1447 1429 934 
Q 1834 422 2522 422 
Q 3209 422 3611 934 
Q 4013 1447 4013 2328 
Q 4013 3213 3611 3725 
Q 3209 4238 2522 4238 
z
M 2522 4750 
Q 3503 4750 4090 4092 
Q 4678 3434 4678 2328 
Q 4678 1225 4090 567 
Q 3503 -91 2522 -91 
Q 1538 -91 948 565 
Q 359 1222 359 2328 
Q 359 3434 948 4092 
Q 1538 4750 2522 4750 
z
" transform="scale(0.015625)"/>
      <path id="DejaVuSans-4b" d="M 628 4666 
L 1259 4666 
L 1259 2694 
L 3353 4666 
L 4166 4666 
L 1850 2491 
L 4331 0 
L 3500 0 
L 1259 2247 
L 1259 0 
L 628 0 
L 628 4666 
z
" transform="scale(0.015625)"/>
     </defs>
     <use xlink:href="#DejaVuSans-4f"/>
     <use xlink:href="#DejaVuSans-4b" transform="translate(78.710938 0)"/>
     <use xlink:href="#DejaVuSans-20" transform="translate(144.287109 0)"/>
     <use xlink:href="#DejaVuSans-2192" transform="translate(176.074219 0)"/>
     <use xlink:href="#DejaVuSans-20" transform="translate(259.863281 0)"/>
     <use xlink:href="#DejaVuSans-61" transform="translate(291.650391 0)"/>
     <use xlink:href="#DejaVuSans-64" transform="translate(352.929688 0)"/>
     <use xlink:href="#DejaVuSans-76" transform="translate(416.40625 0)"/>
     <use xlink:href="#DejaVuSans-61" transform="translate(475.585938 0)"/>
     <use xlink:href="#DejaVuSans-6e" transform="translate(536.865234 0)"/>
     <use xlink:href="#DejaVuSans-63" transform="translate(600.244141 0)"/>
     <use xlink:href="#DejaVuSans-65" transform="translate(655.224609 0)"/>
    </g>
   </g>
   <g id="text_20">
    <!-- socket null → requeue (retry) -->
    <g style="fill: #a89f94" transform="translate(205.87692 282.462906) scale(0.095 -0.095)">
     <defs>
      <path id="DejaVuSans-71" d="M 947 1747 
Q 947 1113 1208 752 
Q 1469 391 1925 391 
Q 2381 391 2643 752 
Q 2906 1113 2906 1747 
Q 2906 2381 2643 2742 
Q 2381 3103 1925 3103 
Q 1469 3103 1208 2742 
Q 947 2381 947 1747 
z
M 2906 525 
Q 2725 213 2448 61 
Q 2172 -91 1784 -91 
Q 1150 -91 751 415 
Q 353 922 353 1747 
Q 353 2572 751 3078 
Q 1150 3584 1784 3584 
Q 2172 3584 2448 3432 
Q 2725 3281 2906 2969 
L 2906 3500 
L 3481 3500 
L 3481 -1331 
L 2906 -1331 
L 2906 525 
z
" transform="scale(0.015625)"/>
     </defs>
     <use xlink:href="#DejaVuSans-73"/>
     <use xlink:href="#DejaVuSans-6f" transform="translate(52.099609 0)"/>
     <use xlink:href="#DejaVuSans-63" transform="translate(113.28125 0)"/>
     <use xlink:href="#DejaVuSans-6b" transform="translate(168.261719 0)"/>
     <use xlink:href="#DejaVuSans-65" transform="translate(222.546875 0)"/>
     <use xlink:href="#DejaVuSans-74" transform="translate(284.070312 0)"/>
     <use xlink:href="#DejaVuSans-20" transform="translate(323.279297 0)"/>
     <use xlink:href="#DejaVuSans-6e" transform="translate(355.066406 0)"/>
     <use xlink:href="#DejaVuSans-75" transform="translate(418.445312 0)"/>
     <use xlink:href="#DejaVuSans-6c" transform="translate(481.824219 0)"/>
     <use xlink:href="#DejaVuSans-6c" transform="translate(509.607422 0)"/>
     <use xlink:href="#DejaVuSans-20" transform="translate(537.390625 0)"/>
     <use xlink:href="#DejaVuSans-2192" transform="translate(569.177734 0)"/>
     <use xlink:href="#DejaVuSans-20" transform="translate(652.966797 0)"/>
     <use xlink:href="#DejaVuSans-72" transform="translate(684.753906 0)"/>
     <use xlink:href="#DejaVuSans-65" transform="translate(723.617188 0)"/>
     <use xlink:href="#DejaVuSans-71" transform="translate(785.140625 0)"/>
     <use xlink:href="#DejaVuSans-75" transform="translate(848.617188 0)"/>
     <use xlink:href="#DejaVuSans-65" transform="translate(911.996094 0)"/>
     <use xlink:href="#DejaVuSans-75" transform="translate(973.519531 0)"/>
     <use xlink:href="#DejaVuSans-65" transform="translate(1036.898438 0)"/>
     <use xlink:href="#DejaVuSans-20" transform="translate(1098.421875 0)"/>
     <use xlink:href="#DejaVuSans-28" transform="translate(1130.208984 0)"/>
     <use xlink:href="#DejaVuSans-72" transform="translate(1169.222656 0)"/>
     <use xlink:href="#DejaVuSans-65" transform="translate(1208.085938 0)"/>
     <use xlink:href="#DejaVuSans-74" transform="translate(1269.609375 0)"/>
     <use xlink:href="#DejaVuSans-72" transform="translate(1308.818359 0)"/>
     <use xlink:href="#DejaVuSans-79" transform="translate(1349.931641 0)"/>
     <use xlink:href="#DejaVuSans-29" transform="translate(1409.111328 0)"/>
    </g>
   </g>
   <g id="text_21">
    <!-- move blocked -->
    <g style="fill: #ffb052" transform="translate(104.096016 304.208937) scale(0.07 -0.07)">
     <defs>
      <path id="DejaVuSans-62" d="M 3116 1747 
Q 3116 2381 2855 2742 
Q 2594 3103 2138 3103 
Q 1681 3103 1420 2742 
Q 1159 2381 1159 1747 
Q 1159 1113 1420 752 
Q 1681 391 2138 391 
Q 2594 391 2855 752 
Q 3116 1113 3116 1747 
z
M 1159 2969 
Q 1341 3281 1617 3432 
Q 1894 3584 2278 3584 
Q 2916 3584 3314 3078 
Q 3713 2572 3713 1747 
Q 3713 922 3314 415 
Q 2916 -91 2278 -91 
Q 1894 -91 1617 61 
Q 1341 213 1159 525 
L 1159 0 
L 581 0 
L 581 4863 
L 1159 4863 
L 1159 2969 
z
" transform="scale(0.015625)"/>
     </defs>
     <use xlink:href="#DejaVuSans-6d"/>
     <use xlink:href="#DejaVuSans-6f" transform="translate(97.412109 0)"/>
     <use xlink:href="#DejaVuSans-76" transform="translate(158.59375 0)"/>
     <use xlink:href="#DejaVuSans-65" transform="translate(217.773438 0)"/>
     <use xlink:href="#DejaVuSans-20" transform="translate(279.296875 0)"/>
     <use xlink:href="#DejaVuSans-62" transform="translate(311.083984 0)"/>
     <use xlink:href="#DejaVuSans-6c" transform="translate(374.560547 0)"/>
     <use xlink:href="#DejaVuSans-6f" transform="translate(402.34375 0)"/>
     <use xlink:href="#DejaVuSans-63" transform="translate(463.525391 0)"/>
     <use xlink:href="#DejaVuSans-6b" transform="translate(518.505859 0)"/>
     <use xlink:href="#DejaVuSans-65" transform="translate(572.791016 0)"/>
     <use xlink:href="#DejaVuSans-64" transform="translate(634.314453 0)"/>
    </g>
   </g>
   <g id="text_22">
    <!-- conflict ladder -->
    <g style="fill: #ffb052" transform="translate(154.804252 348.298537) scale(0.09 -0.09)">
     <use xlink:href="#DejaVuSans-63"/>
     <use xlink:href="#DejaVuSans-6f" transform="translate(54.980469 0)"/>
     <use xlink:href="#DejaVuSans-6e" transform="translate(116.162109 0)"/>
     <use xlink:href="#DejaVuSans-66" transform="translate(179.541016 0)"/>
     <use xlink:href="#DejaVuSans-6c" transform="translate(214.746094 0)"/>
     <use xlink:href="#DejaVuSans-69" transform="translate(242.529297 0)"/>
     <use xlink:href="#DejaVuSans-63" transform="translate(270.3125 0)"/>
     <use xlink:href="#DejaVuSans-74" transform="translate(325.292969 0)"/>
     <use xlink:href="#DejaVuSans-20" transform="translate(364.501953 0)"/>
     <use xlink:href="#DejaVuSans-6c" transform="translate(396.289062 0)"/>
     <use xlink:href="#DejaVuSans-61" transform="translate(424.072266 0)"/>
     <use xlink:href="#DejaVuSans-64" transform="translate(485.351562 0)"/>
     <use xlink:href="#DejaVuSans-64" transform="translate(548.828125 0)"/>
     <use xlink:href="#DejaVuSans-65" transform="translate(612.304688 0)"/>
     <use xlink:href="#DejaVuSans-72" transform="translate(673.828125 0)"/>
    </g>
   </g>
   <g id="text_23">
    <!-- • teammate carries more → retreat / wait  (right-of-way) -->
    <g style="fill: #a89f94" transform="translate(26.22 364.129687) scale(0.066 -0.066)">
     <defs>
      <path id="DejaVuSans-2d" d="M 313 2009 
L 1997 2009 
L 1997 1497 
L 313 1497 
L 313 2009 
z
" transform="scale(0.015625)"/>
     </defs>
     <use xlink:href="#DejaVuSans-2022"/>
     <use xlink:href="#DejaVuSans-20" transform="translate(58.984375 0)"/>
     <use xlink:href="#DejaVuSans-74" transform="translate(90.771484 0)"/>
     <use xlink:href="#DejaVuSans-65" transform="translate(129.980469 0)"/>
     <use xlink:href="#DejaVuSans-61" transform="translate(191.503906 0)"/>
     <use xlink:href="#DejaVuSans-6d" transform="translate(252.783203 0)"/>
     <use xlink:href="#DejaVuSans-6d" transform="translate(350.195312 0)"/>
     <use xlink:href="#DejaVuSans-61" transform="translate(447.607422 0)"/>
     <use xlink:href="#DejaVuSans-74" transform="translate(508.886719 0)"/>
     <use xlink:href="#DejaVuSans-65" transform="translate(548.095703 0)"/>
     <use xlink:href="#DejaVuSans-20" transform="translate(609.619141 0)"/>
     <use xlink:href="#DejaVuSans-63" transform="translate(641.40625 0)"/>
     <use xlink:href="#DejaVuSans-61" transform="translate(696.386719 0)"/>
     <use xlink:href="#DejaVuSans-72" transform="translate(757.666016 0)"/>
     <use xlink:href="#DejaVuSans-72" transform="translate(797.029297 0)"/>
     <use xlink:href="#DejaVuSans-69" transform="translate(838.142578 0)"/>
     <use xlink:href="#DejaVuSans-65" transform="translate(865.925781 0)"/>
     <use xlink:href="#DejaVuSans-73" transform="translate(927.449219 0)"/>
     <use xlink:href="#DejaVuSans-20" transform="translate(979.548828 0)"/>
     <use xlink:href="#DejaVuSans-6d" transform="translate(1011.335938 0)"/>
     <use xlink:href="#DejaVuSans-6f" transform="translate(1108.748047 0)"/>
     <use xlink:href="#DejaVuSans-72" transform="translate(1169.929688 0)"/>
     <use xlink:href="#DejaVuSans-65" transform="translate(1208.792969 0)"/>
     <use xlink:href="#DejaVuSans-20" transform="translate(1270.316406 0)"/>
     <use xlink:href="#DejaVuSans-2192" transform="translate(1302.103516 0)"/>
     <use xlink:href="#DejaVuSans-20" transform="translate(1385.892578 0)"/>
     <use xlink:href="#DejaVuSans-72" transform="translate(1417.679688 0)"/>
     <use xlink:href="#DejaVuSans-65" transform="translate(1456.542969 0)"/>
     <use xlink:href="#DejaVuSans-74" transform="translate(1518.066406 0)"/>
     <use xlink:href="#DejaVuSans-72" transform="translate(1557.275391 0)"/>
     <use xlink:href="#DejaVuSans-65" transform="translate(1596.138672 0)"/>
     <use xlink:href="#DejaVuSans-61" transform="translate(1657.662109 0)"/>
     <use xlink:href="#DejaVuSans-74" transform="translate(1718.941406 0)"/>
     <use xlink:href="#DejaVuSans-20" transform="translate(1758.150391 0)"/>
     <use xlink:href="#DejaVuSans-2f" transform="translate(1789.9375 0)"/>
     <use xlink:href="#DejaVuSans-20" transform="translate(1823.628906 0)"/>
     <use xlink:href="#DejaVuSans-77" transform="translate(1855.416016 0)"/>
     <use xlink:href="#DejaVuSans-61" transform="translate(1937.203125 0)"/>
     <use xlink:href="#DejaVuSans-69" transform="translate(1998.482422 0)"/>
     <use xlink:href="#DejaVuSans-74" transform="translate(2026.265625 0)"/>
     <use xlink:href="#DejaVuSans-20" transform="translate(2065.474609 0)"/>
     <use xlink:href="#DejaVuSans-20" transform="translate(2097.261719 0)"/>
     <use xlink:href="#DejaVuSans-28" transform="translate(2129.048828 0)"/>
     <use xlink:href="#DejaVuSans-72" transform="translate(2168.0625 0)"/>
     <use xlink:href="#DejaVuSans-69" transform="translate(2209.175781 0)"/>
     <use xlink:href="#DejaVuSans-67" transform="translate(2236.958984 0)"/>
     <use xlink:href="#DejaVuSans-68" transform="translate(2300.435547 0)"/>
     <use xlink:href="#DejaVuSans-74" transform="translate(2363.814453 0)"/>
     <use xlink:href="#DejaVuSans-2d" transform="translate(2403.023438 0)"/>
     <use xlink:href="#DejaVuSans-6f" transform="translate(2440.982422 0)"/>
     <use xlink:href="#DejaVuSans-66" transform="translate(2502.164062 0)"/>
     <use xlink:href="#DejaVuSans-2d" transform="translate(2531.869141 0)"/>
     <use xlink:href="#DejaVuSans-77" transform="translate(2567.953125 0)"/>
     <use xlink:href="#DejaVuSans-61" transform="translate(2649.740234 0)"/>
     <use xlink:href="#DejaVuSans-79" transform="translate(2711.019531 0)"/>
     <use xlink:href="#DejaVuSans-29" transform="translate(2770.199219 0)"/>
    </g>
   </g>
   <g id="text_24">
    <!-- • ≥3 fails → blacklist tile · handoff · backoff → notifyActionFailed(move_blocked) -->
    <g style="fill: #a89f94" transform="translate(26.22 380.531306) scale(0.066 -0.066)">
     <defs>
      <path id="DejaVuSans-2265" d="M 678 3175 
L 678 3725 
L 4684 2578 
L 4684 2047 
L 678 897 
L 678 1453 
L 3681 2309 
L 678 3175 
z
M 4684 531 
L 4684 0 
L 678 0 
L 678 531 
L 4684 531 
z
" transform="scale(0.015625)"/>
      <path id="DejaVuSans-33" d="M 2597 2516 
Q 3050 2419 3304 2112 
Q 3559 1806 3559 1356 
Q 3559 666 3084 287 
Q 2609 -91 1734 -91 
Q 1441 -91 1130 -33 
Q 819 25 488 141 
L 488 750 
Q 750 597 1062 519 
Q 1375 441 1716 441 
Q 2309 441 2620 675 
Q 2931 909 2931 1356 
Q 2931 1769 2642 2001 
Q 2353 2234 1838 2234 
L 1294 2234 
L 1294 2753 
L 1863 2753 
Q 2328 2753 2575 2939 
Q 2822 3125 2822 3475 
Q 2822 3834 2567 4026 
Q 2313 4219 1838 4219 
Q 1578 4219 1281 4162 
Q 984 4106 628 3988 
L 628 4550 
Q 988 4650 1302 4700 
Q 1616 4750 1894 4750 
Q 2613 4750 3031 4423 
Q 3450 4097 3450 3541 
Q 3450 3153 3228 2886 
Q 3006 2619 2597 2516 
z
" transform="scale(0.015625)"/>
     </defs>
     <use xlink:href="#DejaVuSans-2022"/>
     <use xlink:href="#DejaVuSans-20" transform="translate(58.984375 0)"/>
     <use xlink:href="#DejaVuSans-2265" transform="translate(90.771484 0)"/>
     <use xlink:href="#DejaVuSans-33" transform="translate(174.560547 0)"/>
     <use xlink:href="#DejaVuSans-20" transform="translate(238.183594 0)"/>
     <use xlink:href="#DejaVuSans-66" transform="translate(269.970703 0)"/>
     <use xlink:href="#DejaVuSans-61" transform="translate(305.175781 0)"/>
     <use xlink:href="#DejaVuSans-69" transform="translate(366.455078 0)"/>
     <use xlink:href="#DejaVuSans-6c" transform="translate(394.238281 0)"/>
     <use xlink:href="#DejaVuSans-73" transform="translate(422.021484 0)"/>
     <use xlink:href="#DejaVuSans-20" transform="translate(474.121094 0)"/>
     <use xlink:href="#DejaVuSans-2192" transform="translate(505.908203 0)"/>
     <use xlink:href="#DejaVuSans-20" transform="translate(589.697266 0)"/>
     <use xlink:href="#DejaVuSans-62" transform="translate(621.484375 0)"/>
     <use xlink:href="#DejaVuSans-6c" transform="translate(684.960938 0)"/>
     <use xlink:href="#DejaVuSans-61" transform="translate(712.744141 0)"/>
     <use xlink:href="#DejaVuSans-63" transform="translate(774.023438 0)"/>
     <use xlink:href="#DejaVuSans-6b" transform="translate(829.003906 0)"/>
     <use xlink:href="#DejaVuSans-6c" transform="translate(886.914062 0)"/>
     <use xlink:href="#DejaVuSans-69" transform="translate(914.697266 0)"/>
     <use xlink:href="#DejaVuSans-73" transform="translate(942.480469 0)"/>
     <use xlink:href="#DejaVuSans-74" transform="translate(994.580078 0)"/>
     <use xlink:href="#DejaVuSans-20" transform="translate(1033.789062 0)"/>
     <use xlink:href="#DejaVuSans-74" transform="translate(1065.576172 0)"/>
     <use xlink:href="#DejaVuSans-69" transform="translate(1104.785156 0)"/>
     <use xlink:href="#DejaVuSans-6c" transform="translate(1132.568359 0)"/>
     <use xlink:href="#DejaVuSans-65" transform="translate(1160.351562 0)"/>
     <use xlink:href="#DejaVuSans-20" transform="translate(1221.875 0)"/>
     <use xlink:href="#DejaVuSans-b7" transform="translate(1253.662109 0)"/>
     <use xlink:href="#DejaVuSans-20" transform="translate(1285.449219 0)"/>
     <use xlink:href="#DejaVuSans-68" transform="translate(1317.236328 0)"/>
     <use xlink:href="#DejaVuSans-61" transform="translate(1380.615234 0)"/>
     <use xlink:href="#DejaVuSans-6e" transform="translate(1441.894531 0)"/>
     <use xlink:href="#DejaVuSans-64" transform="translate(1505.273438 0)"/>
     <use xlink:href="#DejaVuSans-6f" transform="translate(1568.75 0)"/>
     <use xlink:href="#DejaVuSans-66" transform="translate(1629.931641 0)"/>
     <use xlink:href="#DejaVuSans-66" transform="translate(1665.136719 0)"/>
     <use xlink:href="#DejaVuSans-20" transform="translate(1700.341797 0)"/>
     <use xlink:href="#DejaVuSans-b7" transform="translate(1732.128906 0)"/>
     <use xlink:href="#DejaVuSans-20" transform="translate(1763.916016 0)"/>
     <use xlink:href="#DejaVuSans-62" transform="translate(1795.703125 0)"/>
     <use xlink:href="#DejaVuSans-61" transform="translate(1859.179688 0)"/>
     <use xlink:href="#DejaVuSans-63" transform="translate(1920.458984 0)"/>
     <use xlink:href="#DejaVuSans-6b" transform="translate(1975.439453 0)"/>
     <use xlink:href="#DejaVuSans-6f" transform="translate(2029.724609 0)"/>
     <use xlink:href="#DejaVuSans-66" transform="translate(2090.90625 0)"/>
     <use xlink:href="#DejaVuSans-66" transform="translate(2126.111328 0)"/>
     <use xlink:href="#DejaVuSans-20" transform="translate(2161.316406 0)"/>
     <use xlink:href="#DejaVuSans-2192" transform="translate(2193.103516 0)"/>
     <use xlink:href="#DejaVuSans-20" transform="translate(2276.892578 0)"/>
     <use xlink:href="#DejaVuSans-6e" transform="translate(2308.679688 0)"/>
     <use xlink:href="#DejaVuSans-6f" transform="translate(2372.058594 0)"/>
     <use xlink:href="#DejaVuSans-74" transform="translate(2433.240234 0)"/>
     <use xlink:href="#DejaVuSans-69" transform="translate(2472.449219 0)"/>
     <use xlink:href="#DejaVuSans-66" transform="translate(2500.232422 0)"/>
     <use xlink:href="#DejaVuSans-79" transform="translate(2533.6875 0)"/>
     <use xlink:href="#DejaVuSans-41" transform="translate(2592.867188 0)"/>
     <use xlink:href="#DejaVuSans-63" transform="translate(2659.525391 0)"/>
     <use xlink:href="#DejaVuSans-74" transform="translate(2714.505859 0)"/>
     <use xlink:href="#DejaVuSans-69" transform="translate(2753.714844 0)"/>
     <use xlink:href="#DejaVuSans-6f" transform="translate(2781.498047 0)"/>
     <use xlink:href="#DejaVuSans-6e" transform="translate(2842.679688 0)"/>
     <use xlink:href="#DejaVuSans-46" transform="translate(2906.058594 0)"/>
     <use xlink:href="#DejaVuSans-61" transform="translate(2954.453125 0)"/>
     <use xlink:href="#DejaVuSans-69" transform="translate(3015.732422 0)"/>
     <use xlink:href="#DejaVuSans-6c" transform="translate(3043.515625 0)"/>
     <use xlink:href="#DejaVuSans-65" transform="translate(3071.298828 0)"/>
     <use xlink:href="#DejaVuSans-64" transform="translate(3132.822266 0)"/>
     <use xlink:href="#DejaVuSans-28" transform="translate(3196.298828 0)"/>
     <use xlink:href="#DejaVuSans-6d" transform="translate(3235.3125 0)"/>
     <use xlink:href="#DejaVuSans-6f" transform="translate(3332.724609 0)"/>
     <use xlink:href="#DejaVuSans-76" transform="translate(3393.90625 0)"/>
     <use xlink:href="#DejaVuSans-65" transform="translate(3453.085938 0)"/>
     <use xlink:href="#DejaVuSans-5f" transform="translate(3514.609375 0)"/>
     <use xlink:href="#DejaVuSans-62" transform="translate(3564.609375 0)"/>
     <use xlink:href="#DejaVuSans-6c" transform="translate(3628.085938 0)"/>
     <use xlink:href="#DejaVuSans-6f" transform="translate(3655.869141 0)"/>
     <use xlink:href="#DejaVuSans-63" transform="translate(3717.050781 0)"/>
     <use xlink:href="#DejaVuSans-6b" transform="translate(3772.03125 0)"/>
     <use xlink:href="#DejaVuSans-65" transform="translate(3826.316406 0)"/>
     <use xlink:href="#DejaVuSans-64" transform="translate(3887.839844 0)"/>
     <use xlink:href="#DejaVuSans-29" transform="translate(3951.316406 0)"/>
    </g>
   </g>
  </g>
 </g>
 <defs>
  <clipPath id="pc77883b842">
   <rect x="5.76" y="5.76" width="368.28" height="388.08"/>
  </clipPath>
 </defs>
</svg>
