<?xml version="1.0" encoding="utf-8" standalone="no"?>
<!DOCTYPE svg PUBLIC "-//W3C//DTD SVG 1.1//EN"
  "http://www.w3.org/Graphics/SVG/1.1/DTD/svg11.dtd">
<svg xmlns:xlink="http://www.w3.org/1999/xlink" width="321.12pt" height="413.821449pt" viewBox="0 0 321.12 413.821449" xmlns="http://www.w3.org/2000/svg" version="1.1">
 <metadata>
  <rdf:RDF xmlns:dc="http://purl.org/dc/elements/1.1/" xmlns:cc="http://creativecommons.org/ns#" xmlns:rdf="http://www.w3.org/1999/02/22-rdf-syntax-ns#">
   <cc:Work>
    <dc:type rdf:resource="http://purl.org/dc/dcmitype/StillImage"/>
    <dc:date>2026-06-23T11:52:05.759008</dc:date>
    <dc:format>image/svg+xml</dc:format>
    <dc:creator>
     <cc:Agent>
      <dc:title>Matplotlib v3.10.9, https://matplotlib.org/</dc:title>
     </cc:Agent>
    </dc:creator>
   </cc:Work>
  </rdf:RDF>
 </metadata>
 <defs>
  <style type="text/css">*{stroke-linejoin: round; stroke-linecap: butt}</style>
 </defs>
 <g id="figure_1">
  <g id="patch_1">
   <path d="M 0 413.821449 
L 321.12 413.821449 
L 321.12 0 
L 0 0 
L 0 413.821449 
z
" style="fill: none; opacity: 0"/>
  </g>
  <g id="axes_1">
   <g id="patch_2">
    <path d="M 48.96 53.664186 
L 182.88 53.664186 
Q 191.25 53.664186 191.25 45.78587 
L 191.25 27.403133 
Q 191.25 19.524817 182.88 19.524817 
L 48.96 19.524817 
Q 40.59 19.524817 40.59 27.403133 
L 40.59 45.78587 
Q 40.59 53.664186 48.96 53.664186 
z
" clip-path="url(#p43a39b9ec8)" style="fill: #201d1b; stroke: #55c3ff; stroke-width: 1.6; stroke-linejoin: miter"/>
   </g>
   <g id="patch_3">
    <path d="M 48.96 114.064607 
L 182.88 114.064607 
Q 191.25 114.064607 191.25 106.186291 
L 191.25 87.803554 
Q 191.25 79.925238 182.88 79.925238 
L 48.96 79.925238 
Q 40.59 79.925238 40.59 87.803554 
L 40.59 106.186291 
Q 40.59 114.064607 48.96 114.064607 
z
" clip-path="url(#p43a39b9ec8)" style="fill: #201d1b; stroke: #55c3ff; stroke-width: 1.6; stroke-linejoin: miter"/>
   </g>
   <g id="patch_4">
    <path d="M 48.96 174.465028 
L 182.88 174.465028 
Q 191.25 174.465028 191.25 166.586712 
L 191.25 148.203975 
Q 191.25 140.32566 182.88 140.32566 
L 48.96 140.32566 
Q 40.59 140.32566 40.59 148.203975 
L 40.59 166.586712 
Q 40.59 174.465028 48.96 174.465028 
z
" clip-path="url(#p43a39b9ec8)" style="fill: #201d1b; stroke: #55c3ff; stroke-width: 1.6; stroke-linejoin: miter"/>
   </g>
   <g id="patch_5">
    <path d="M 48.96 234.865449 
L 182.88 234.865449 
Q 191.25 234.865449 191.25 226.987133 
L 191.25 208.604396 
Q 191.25 200.726081 182.88 200.726081 
L 48.96 200.726081 
Q 40.59 200.726081 40.59 208.604396 
L 40.59 226.987133 
Q 40.59 234.865449 48.96 234.865449 
z
" clip-path="url(#p43a39b9ec8)" style="fill: #201d1b; stroke: #55c3ff; stroke-width: 1.6; stroke-linejoin: miter"/>
   </g>
   <g id="patch_6">
    <path d="M 115.92 53.664186 
Q 115.92 66.794712 115.92 78.583598 
" clip-path="url(#p43a39b9ec8)" style="fill: none; stroke: #a89f94; stroke-width: 1.2; stroke-linecap: round"/>
    <path d="M 118.12 74.183598 
L 115.92 78.583598 
L 113.72 74.183598 
z
" clip-path="url(#p43a39b9ec8)" style="fill: #a89f94; stroke: #a89f94; stroke-width: 1.2; stroke-linecap: round"/>
   </g>
   <g id="patch_7">
    <path d="M 115.92 114.064607 
Q 115.92 127.195133 115.92 138.984019 
" clip-path="url(#p43a39b9ec8)" style="fill: none; stroke: #a89f94; stroke-width: 1.2; stroke-linecap: round"/>
    <path d="M 118.12 134.584019 
L 115.92 138.984019 
L 113.72 134.584019 
z
" clip-path="url(#p43a39b9ec8)" style="fill: #a89f94; stroke: #a89f94; stroke-width: 1.2; stroke-linecap: round"/>
   </g>
   <g id="patch_8">
    <path d="M 115.92 174.465028 
Q 115.92 187.595554 115.92 199.38444 
" clip-path="url(#p43a39b9ec8)" style="fill: none; stroke: #a89f94; stroke-width: 1.2; stroke-linecap: round"/>
    <path d="M 118.12 194.98444 
L 115.92 199.38444 
L 113.72 194.98444 
z
" clip-path="url(#p43a39b9ec8)" style="fill: #a89f94; stroke: #a89f94; stroke-width: 1.2; stroke-linecap: round"/>
   </g>
   <g id="patch_9">
    <path d="M 115.92 234.865449 
Q 115.92 259.156923 115.92 282.106756 
" clip-path="url(#p43a39b9ec8)" style="fill: none; stroke: #a89f94; stroke-width: 1.2; stroke-linecap: round"/>
    <path d="M 118.12 277.706756 
L 115.92 282.106756 
L 113.72 277.706756 
z
" clip-path="url(#p43a39b9ec8)" style="fill: #a89f94; stroke: #a89f94; stroke-width: 1.2; stroke-linecap: round"/>
   </g>
   <g id="patch_10">
    <path d="M 37.8 338.596607 
L 194.04 338.596607 
Q 202.41 338.596607 202.41 330.718291 
L 202.41 283.448396 
Q 202.41 275.570081 194.04 275.570081 
L 37.8 275.570081 
Q 29.43 275.570081 29.43 283.448396 
L 29.43 330.718291 
Q 29.43 338.596607 37.8 338.596607 
z
" clip-path="url(#p43a39b9ec8)" style="fill: #201d1b; stroke: #6fd48d; stroke-width: 1.6; stroke-linejoin: miter"/>
   </g>
   <g id="patch_11">
    <path d="M 191.25 36.594502 
Q 240.075 36.594502 287.558359 36.594502 
" clip-path="url(#p43a39b9ec8)" style="fill: none; stroke: #7a7268; stroke-width: 1.2; stroke-linecap: round"/>
    <path d="M 283.158359 34.394502 
L 287.558359 36.594502 
L 283.158359 38.794502 
z
" clip-path="url(#p43a39b9ec8)" style="fill: #7a7268; stroke: #7a7268; stroke-width: 1.2; stroke-linecap: round"/>
   </g>
   <g id="patch_12">
    <path d="M 191.25 96.994923 
Q 240.075 96.994923 287.558359 96.994923 
" clip-path="url(#p43a39b9ec8)" style="fill: none; stroke: #7a7268; stroke-width: 1.2; stroke-linecap: round"/>
    <path d="M 283.158359 94.794923 
L 287.558359 96.994923 
L 283.158359 99.194923 
z
" clip-path="url(#p43a39b9ec8)" style="fill: #7a7268; stroke: #7a7268; stroke-width: 1.2; stroke-linecap: round"/>
   </g>
   <g id="patch_13">
    <path d="M 191.25 157.395344 
Q 240.075 157.395344 287.558359 157.395344 
" clip-path="url(#p43a39b9ec8)" style="fill: none; stroke: #7a7268; stroke-width: 1.2; stroke-linecap: round"/>
    <path d="M 283.158359 155.195344 
L 287.558359 157.395344 
L 283.158359 159.595344 
z
" clip-path="url(#p43a39b9ec8)" style="fill: #7a7268; stroke: #7a7268; stroke-width: 1.2; stroke-linecap: round"/>
   </g>
   <g id="patch_14">
    <path d="M 191.25 217.795765 
Q 240.075 217.795765 287.558359 217.795765 
" clip-path="url(#p43a39b9ec8)" style="fill: none; stroke: #7a7268; stroke-width: 1.2; stroke-linecap: round"/>
    <path d="M 283.158359 215.595765 
L 287.558359 217.795765 
L 283.158359 219.995765 
z
" clip-path="url(#p43a39b9ec8)" style="fill: #7a7268; stroke: #7a7268; stroke-width: 1.2; stroke-linecap: round"/>
   </g>
   <g id="patch_15">
    <path d="M 202.41 307.083344 
Q 245.655 307.083344 287.558359 307.083344 
" clip-path="url(#p43a39b9ec8)" style="fill: none; stroke: #7a7268; stroke-width: 1.2; stroke-linecap: round"/>
    <path d="M 283.158359 304.883344 
L 287.558359 307.083344 
L 283.158359 309.283344 
z
" clip-path="url(#p43a39b9ec8)" style="fill: #7a7268; stroke: #7a7268; stroke-width: 1.2; stroke-linecap: round"/>
   </g>
   <g id="patch_16">
    <path d="M 288.9 307.083344 
Q 288.9 161.334502 288.9 15.58566 
" clip-path="url(#p43a39b9ec8)" style="fill: none; stroke: #7a7268; stroke-width: 1.2; stroke-linecap: round"/>
   </g>
   <g id="patch_17">
    <path d="M 288.9 15.58566 
Q 202.41 15.58566 117.261641 15.58566 
" clip-path="url(#p43a39b9ec8)" style="fill: none; stroke: #7a7268; stroke-width: 1.2; stroke-linecap: round"/>
    <path d="M 121.661641 17.78566 
L 117.261641 15.58566 
L 121.661641 13.38566 
z
" clip-path="url(#p43a39b9ec8)" style="fill: #7a7268; stroke: #7a7268; stroke-width: 1.2; stroke-linecap: round"/>
   </g>
   <g id="patch_18">
    <path d="M 115.92 15.58566 
Q 115.92 17.555238 115.92 18.183177 
" clip-path="url(#p43a39b9ec8)" style="fill: none; stroke: #7a7268; stroke-width: 1.2; stroke-linecap: round"/>
    <path d="M 118.12 13.783177 
L 115.92 18.183177 
L 113.72 13.783177 
z
" clip-path="url(#p43a39b9ec8)" style="fill: #7a7268; stroke: #7a7268; stroke-width: 1.2; stroke-linecap: round"/>
   </g>
   <g id="text_1">
    <!-- socket connected? -->
    <g style="fill: #fff7eb" transform="translate(71.659648 39.215908) scale(0.095 -0.095)">
     <defs>
      <path id="DejaVuSans-73" d="M 2834 3397 
L 2834 2853 
Q 2591 2978 2328 3040 
Q 2066 3103 1784 3103 
Q 1356 3103 1142 2972 
Q 928 2841 928 2578 
Q 928 2378 1081 2264 
Q 1234 2150 1697 2047 
L 1894 2003 
Q 2506 1872 2764 1633 
Q 3022 1394 3022 966 
Q 3022 478 2636 193 
Q 2250 -91 1575 -91 
Q 1294 -91 989 -36 
Q 684 19 347 128 
L 347 722 
Q 666 556 975 473 
Q 1284 391 1588 391 
Q 1994 391 2212 530 
Q 2431 669 2431 922 
Q 2431 1156 2273 1281 
Q 2116 1406 1581 1522 
L 1381 1569 
Q 847 1681 609 1914 
Q 372 2147 372 2553 
Q 372 3047 722 3315 
Q 1072 3584 1716 3584 
Q 2034 3584 2315 3537 
Q 2597 3491 2834 3397 
z
" transform="scale(0.015625)"/>
      <path id="DejaVuSans-6f" d="M 1959 3097 
Q 1497 3097 1228 2736 
Q 959 2375 959 1747 
Q 959 1119 1226 758 
Q 1494 397 1959 397 
Q 2419 397 2687 759 
Q 2956 1122 2956 1747 
Q 2956 2369 2687 2733 
Q 2419 3097 1959 3097 
z
M 1959 3584 
Q 2709 3584 3137 3096 
Q 3566 2609 3566 1747 
Q 3566 888 3137 398 
Q 2709 -91 1959 -91 
Q 1206 -91 779 398 
Q 353 888 353 1747 
Q 353 2609 779 3096 
Q 1206 3584 1959 3584 
z
" transform="scale(0.015625)"/>
      <path id="DejaVuSans-63" d="M 3122 3366 
L 3122 2828 
Q 2878 2963 2633 3030 
Q 2388 3097 2138 3097 
Q 1578 3097 1268 2742 
Q 959 2388 959 1747 
Q 959 1106 1268 751 
Q 1578 397 2138 397 
Q 2388 397 2633 464 
Q 2878 531 3122 666 
L 3122 134 
Q 2881 22 2623 -34 
Q 2366 -91 2075 -91 
Q 1284 -91 818 406 
Q 353 903 353 1747 
Q 353 2603 823 3093 
Q 1294 3584 2113 3584 
Q 2378 3584 2631 3529 
Q 2884 3475 3122 3366 
z
" transform="scale(0.015625)"/>
      <path id="DejaVuSans-6b" d="M 581 4863 
L 1159 4863 
L 1159 1991 
L 2875 3500 
L 3609 3500 
L 1753 1863 
L 3688 0 
L 2938 0 
L 1159 1709 
L 1159 0 
L 581 0 
L 581 4863 
z
" transform="scale(0.015625)"/>
      <path id="DejaVuSans-65" d="M 3597 1894 
L 3597 1613 
L 953 1613 
Q 991 1019 1311 708 
Q 1631 397 2203 397 
Q 2534 397 2845 478 
Q 3156 559 3463 722 
L 3463 178 
Q 3153 47 2828 -22 
Q 2503 -91 2169 -91 
Q 1331 -91 842 396 
Q 353 884 353 1716 
Q 353 2575 817 3079 
Q 1281 3584 2069 3584 
Q 2775 3584 3186 3129 
Q 3597 2675 3597 1894 
z
M 3022 2063 
Q 3016 2534 2758 2815 
Q 2500 3097 2075 3097 
Q 1594 3097 1305 2825 
Q 1016 2553 972 2059 
L 3022 2063 
z
" transform="scale(0.015625)"/>
      <path id="DejaVuSans-74" d="M 1172 4494 
L 1172 3500 
L 2356 3500 
L 2356 3053 
L 1172 3053 
L 1172 1153 
Q 1172 725 1289 603 
Q 1406 481 1766 481 
L 2356 481 
L 2356 0 
L 1766 0 
Q 1100 0 847 248 
Q 594 497 594 1153 
L 594 3053 
L 172 3053 
L 172 3500 
L 594 3500 
L 594 4494 
L 1172 4494 
z
" transform="scale(0.015625)"/>
      <path id="DejaVuSans-20" transform="scale(0.015625)"/>
      <path id="DejaVuSans-6e" d="M 3513 2113 
L 3513 0 
L 2938 0 
L 2938 2094 
Q 2938 2591 2744 2837 
Q 2550 3084 2163 3084 
Q 1697 3084 1428 2787 
Q 1159 2491 1159 1978 
L 1159 0 
L 581 0 
L 581 3500 
L 1159 3500 
L 1159 2956 
Q 1366 3272 1645 3428 
Q 1925 3584 2291 3584 
Q 2894 3584 3203 3211 
Q 3513 2838 3513 2113 
z
" transform="scale(0.015625)"/>
      <path id="DejaVuSans-64" d="M 2906 2969 
L 2906 4863 
L 3481 4863 
L 3481 0 
L 2906 0 
L 2906 525 
Q 2725 213 2448 61 
Q 2172 -91 1784 -91 
Q 1150 -91 751 415 
Q 353 922 353 1747 
Q 353 2572 751 3078 
Q 1150 3584 1784 3584 
Q 2172 3584 2448 3432 
Q 2725 3281 2906 2969 
z
M 947 1747 
Q 947 1113 1208 752 
Q 1469 391 1925 391 
Q 2381 391 2643 752 
Q 2906 1113 2906 1747 
Q 2906 2381 2643 2742 
Q 2381 3103 1925 3103 
Q 1469 3103 1208 2742 
Q 947 2381 947 1747 
z
" transform="scale(0.015625)"/>
      <path id="DejaVuSans-3f" d="M 1222 794 
L 1856 794 
L 1856 0 
L 1222 0 
L 1222 794 
z
M 1838 1253 
L 1241 1253 
L 1241 1734 
Q 1241 2050 1328 2253 
Q 1416 2456 1697 2725 
L 1978 3003 
Q 2156 3169 2236 3316 
Q 2316 3463 2316 3616 
Q 2316 3894 2111 4066 
Q 1906 4238 1569 4238 
Q 1322 4238 1042 4128 
Q 763 4019 459 3809 
L 459 4397 
Q 753 4575 1054 4662 
Q 1356 4750 1678 4750 
Q 2253 4750 2601 4447 
Q 2950 4144 2950 3647 
Q 2950 3409 2837 3195 
Q 2725 2981 2444 2713 
L 2169 2444 
Q 2022 2297 1961 2214 
Q 1900 2131 1875 2053 
Q 1856 1988 1847 1894 
Q 1838 1800 1838 1638 
L 1838 1253 
z
" transform="scale(0.015625)"/>
     </defs>
     <use xlink:href="#DejaVuSans-73"/>
     <use xlink:href="#DejaVuSans-6f" transform="translate(52.099609 0)"/>
     <use xlink:href="#DejaVuSans-63" transform="translate(113.28125 0)"/>
     <use xlink:href="#DejaVuSans-6b" transform="translate(168.261719 0)"/>
     <use xlink:href="#DejaVuSans-65" transform="translate(222.546875 0)"/>
     <use xlink:href="#DejaVuSans-74" transform="translate(284.070312 0)"/>
     <use xlink:href="#DejaVuSans-20" transform="translate(323.279297 0)"/>
     <use xlink:href="#DejaVuSans-63" transform="translate(355.066406 0)"/>
     <use xlink:href="#DejaVuSans-6f" transform="translate(410.046875 0)"/>
     <use xlink:href="#DejaVuSans-6e" transform="translate(471.228516 0)"/>
     <use xlink:href="#DejaVuSans-6e" transform="translate(534.607422 0)"/>
     <use xlink:href="#DejaVuSans-65" transform="translate(597.986328 0)"/>
     <use xlink:href="#DejaVuSans-63" transform="translate(659.509766 0)"/>
     <use xlink:href="#DejaVuSans-74" transform="translate(714.490234 0)"/>
     <use xlink:href="#DejaVuSans-65" transform="translate(753.699219 0)"/>
     <use xlink:href="#DejaVuSans-64" transform="translate(815.222656 0)"/>
     <use xlink:href="#DejaVuSans-3f" transform="translate(878.699219 0)"/>
    </g>
   </g>
   <g id="text_2">
    <!-- position known? -->
    <g style="fill: #fff7eb" transform="translate(77.512539 99.616329) scale(0.095 -0.095)">
     <defs>
      <path id="DejaVuSans-70" d="M 1159 525 
L 1159 -1331 
L 581 -1331 
L 581 3500 
L 1159 3500 
L 1159 2969 
Q 1341 3281 1617 3432 
Q 1894 3584 2278 3584 
Q 2916 3584 3314 3078 
Q 3713 2572 3713 1747 
Q 3713 922 3314 415 
Q 2916 -91 2278 -91 
Q 1894 -91 1617 61 
Q 1341 213 1159 525 
z
M 3116 1747 
Q 3116 2381 2855 2742 
Q 2594 3103 2138 3103 
Q 1681 3103 1420 2742 
Q 1159 2381 1159 1747 
Q 1159 1113 1420 752 
Q 1681 391 2138 391 
Q 2594 391 2855 752 
Q 3116 1113 3116 1747 
z
" transform="scale(0.015625)"/>
      <path id="DejaVuSans-69" d="M 603 3500 
L 1178 3500 
L 1178 0 
L 603 0 
L 603 3500 
z
M 603 4863 
L 1178 4863 
L 1178 4134 
L 603 4134 
L 603 4863 
z
" transform="scale(0.015625)"/>
      <path id="DejaVuSans-77" d="M 269 3500 
L 844 3500 
L 1563 769 
L 2278 3500 
L 2956 3500 
L 3675 769 
L 4391 3500 
L 4966 3500 
L 4050 0 
L 3372 0 
L 2619 2869 
L 1863 0 
L 1184 0 
L 269 3500 
z
" transform="scale(0.015625)"/>
     </defs>
     <use xlink:href="#DejaVuSans-70"/>
     <use xlink:href="#DejaVuSans-6f" transform="translate(63.476562 0)"/>
     <use xlink:href="#DejaVuSans-73" transform="translate(124.658203 0)"/>
     <use xlink:href="#DejaVuSans-69" transform="translate(176.757812 0)"/>
     <use xlink:href="#DejaVuSans-74" transform="translate(204.541016 0)"/>
     <use xlink:href="#DejaVuSans-69" transform="translate(243.75 0)"/>
     <use xlink:href="#DejaVuSans-6f" transform="translate(271.533203 0)"/>
     <use xlink:href="#DejaVuSans-6e" transform="translate(332.714844 0)"/>
     <use xlink:href="#DejaVuSans-20" transform="translate(396.09375 0)"/>
     <use xlink:href="#DejaVuSans-6b" transform="translate(427.880859 0)"/>
     <use xlink:href="#DejaVuSans-6e" transform="translate(485.791016 0)"/>
     <use xlink:href="#DejaVuSans-6f" transform="translate(549.169922 0)"/>
     <use xlink:href="#DejaVuSans-77" transform="translate(610.351562 0)"/>
     <use xlink:href="#DejaVuSans-6e" transform="translate(692.138672 0)"/>
     <use xlink:href="#DejaVuSans-3f" transform="translate(755.517578 0)"/>
    </g>
   </g>
   <g id="text_3">
    <!-- paused by peer? -->
    <g style="fill: #fff7eb" transform="translate(76.389609 160.01675) scale(0.095 -0.095)">
     <defs>
      <path id="DejaVuSans-61" d="M 2194 1759 
Q 1497 1759 1228 1600 
Q 959 1441 959 1056 
Q 959 750 1161 570 
Q 1363 391 1709 391 
Q 2188 391 2477 730 
Q 2766 1069 2766 1631 
L 2766 1759 
L 2194 1759 
z
M 3341 1997 
L 3341 0 
L 2766 0 
L 2766 531 
Q 2569 213 2275 61 
Q 1981 -91 1556 -91 
Q 1019 -91 701 211 
Q 384 513 384 1019 
Q 384 1609 779 1909 
Q 1175 2209 1959 2209 
L 2766 2209 
L 2766 2266 
Q 2766 2663 2505 2880 
Q 2244 3097 1772 3097 
Q 1472 3097 1187 3025 
Q 903 2953 641 2809 
L 641 3341 
Q 956 3463 1253 3523 
Q 1550 3584 1831 3584 
Q 2591 3584 2966 3190 
Q 3341 2797 3341 1997 
z
" transform="scale(0.015625)"/>
      <path id="DejaVuSans-75" d="M 544 1381 
L 544 3500 
L 1119 3500 
L 1119 1403 
Q 1119 906 1312 657 
Q 1506 409 1894 409 
Q 2359 409 2629 706 
Q 2900 1003 2900 1516 
L 2900 3500 
L 3475 3500 
L 3475 0 
L 2900 0 
L 2900 538 
Q 2691 219 2414 64 
Q 2138 -91 1772 -91 
Q 1169 -91 856 284 
Q 544 659 544 1381 
z
M 1991 3584 
L 1991 3584 
z
" transform="scale(0.015625)"/>
      <path id="DejaVuSans-62" d="M 3116 1747 
Q 3116 2381 2855 2742 
Q 2594 3103 2138 3103 
Q 1681 3103 1420 2742 
Q 1159 2381 1159 1747 
Q 1159 1113 1420 752 
Q 1681 391 2138 391 
Q 2594 391 2855 752 
Q 3116 1113 3116 1747 
z
M 1159 2969 
Q 1341 3281 1617 3432 
Q 1894 3584 2278 3584 
Q 2916 3584 3314 3078 
Q 3713 2572 3713 1747 
Q 3713 922 3314 415 
Q 2916 -91 2278 -91 
Q 1894 -91 1617 61 
Q 1341 213 1159 525 
L 1159 0 
L 581 0 
L 581 4863 
L 1159 4863 
L 1159 2969 
z
" transform="scale(0.015625)"/>
      <path id="DejaVuSans-79" d="M 2059 -325 
Q 1816 -950 1584 -1140 
Q 1353 -1331 966 -1331 
L 506 -1331 
L 506 -850 
L 844 -850 
Q 1081 -850 1212 -737 
Q 1344 -625 1503 -206 
L 1606 56 
L 191 3500 
L 800 3500 
L 1894 763 
L 2988 3500 
L 3597 3500 
L 2059 -325 
z
" transform="scale(0.015625)"/>
      <path id="DejaVuSans-72" d="M 2631 2963 
Q 2534 3019 2420 3045 
Q 2306 3072 2169 3072 
Q 1681 3072 1420 2755 
Q 1159 2438 1159 1844 
L 1159 0 
L 581 0 
L 581 3500 
L 1159 3500 
L 1159 2956 
Q 1341 3275 1631 3429 
Q 1922 3584 2338 3584 
Q 2397 3584 2469 3576 
Q 2541 3569 2628 3553 
L 2631 2963 
z
" transform="scale(0.015625)"/>
     </defs>
     <use xlink:href="#DejaVuSans-70"/>
     <use xlink:href="#DejaVuSans-61" transform="translate(63.476562 0)"/>
     <use xlink:href="#DejaVuSans-75" transform="translate(124.755859 0)"/>
     <use xlink:href="#DejaVuSans-73" transform="translate(188.134766 0)"/>
     <use xlink:href="#DejaVuSans-65" transform="translate(240.234375 0)"/>
     <use xlink:href="#DejaVuSans-64" transform="translate(301.757812 0)"/>
     <use xlink:href="#DejaVuSans-20" transform="translate(365.234375 0)"/>
     <use xlink:href="#DejaVuSans-62" transform="translate(397.021484 0)"/>
     <use xlink:href="#DejaVuSans-79" transform="translate(460.498047 0)"/>
     <use xlink:href="#DejaVuSans-20" transform="translate(519.677734 0)"/>
     <use xlink:href="#DejaVuSans-70" transform="translate(551.464844 0)"/>
     <use xlink:href="#DejaVuSans-65" transform="translate(614.941406 0)"/>
     <use xlink:href="#DejaVuSans-65" transform="translate(676.464844 0)"/>
     <use xlink:href="#DejaVuSans-72" transform="translate(737.988281 0)"/>
     <use xlink:href="#DejaVuSans-3f" transform="translate(779.101562 0)"/>
    </g>
   </g>
   <g id="text_4">
    <!-- have an intention? -->
    <g style="fill: #fff7eb" transform="translate(71.579492 220.417171) scale(0.095 -0.095)">
     <defs>
      <path id="DejaVuSans-68" d="M 3513 2113 
L 3513 0 
L 2938 0 
L 2938 2094 
Q 2938 2591 2744 2837 
Q 2550 3084 2163 3084 
Q 1697 3084 1428 2787 
Q 1159 2491 1159 1978 
L 1159 0 
L 581 0 
L 581 4863 
L 1159 4863 
L 1159 2956 
Q 1366 3272 1645 3428 
Q 1925 3584 2291 3584 
Q 2894 3584 3203 3211 
Q 3513 2838 3513 2113 
z
" transform="scale(0.015625)"/>
      <path id="DejaVuSans-76" d="M 191 3500 
L 800 3500 
L 1894 563 
L 2988 3500 
L 3597 3500 
L 2284 0 
L 1503 0 
L 191 3500 
z
" transform="scale(0.015625)"/>
     </defs>
     <use xlink:href="#DejaVuSans-68"/>
     <use xlink:href="#DejaVuSans-61" transform="translate(63.378906 0)"/>
     <use xlink:href="#DejaVuSans-76" transform="translate(124.658203 0)"/>
     <use xlink:href="#DejaVuSans-65" transform="translate(183.837891 0)"/>
     <use xlink:href="#DejaVuSans-20" transform="translate(245.361328 0)"/>
     <use xlink:href="#DejaVuSans-61" transform="translate(277.148438 0)"/>
     <use xlink:href="#DejaVuSans-6e" transform="translate(338.427734 0)"/>
     <use xlink:href="#DejaVuSans-20" transform="translate(401.806641 0)"/>
     <use xlink:href="#DejaVuSans-69" transform="translate(433.59375 0)"/>
     <use xlink:href="#DejaVuSans-6e" transform="translate(461.376953 0)"/>
     <use xlink:href="#DejaVuSans-74" transform="translate(524.755859 0)"/>
     <use xlink:href="#DejaVuSans-65" transform="translate(563.964844 0)"/>
     <use xlink:href="#DejaVuSans-6e" transform="translate(625.488281 0)"/>
     <use xlink:href="#DejaVuSans-74" transform="translate(688.867188 0)"/>
     <use xlink:href="#DejaVuSans-69" transform="translate(728.076172 0)"/>
     <use xlink:href="#DejaVuSans-6f" transform="translate(755.859375 0)"/>
     <use xlink:href="#DejaVuSans-6e" transform="translate(817.041016 0)"/>
     <use xlink:href="#DejaVuSans-3f" transform="translate(880.419922 0)"/>
    </g>
   </g>
   <g id="text_5">
    <!-- yes -->
    <g style="fill: #a89f94" transform="translate(126.265938 68.83665) scale(0.074 -0.074)">
     <use xlink:href="#DejaVuSans-79"/>
     <use xlink:href="#DejaVuSans-65" transform="translate(59.179688 0)"/>
     <use xlink:href="#DejaVuSans-73" transform="translate(120.703125 0)"/>
    </g>
   </g>
   <g id="text_6">
    <!-- yes -->
    <g style="fill: #a89f94" transform="translate(126.265938 129.237071) scale(0.074 -0.074)">
     <use xlink:href="#DejaVuSans-79"/>
     <use xlink:href="#DejaVuSans-65" transform="translate(59.179688 0)"/>
     <use xlink:href="#DejaVuSans-73" transform="translate(120.703125 0)"/>
    </g>
   </g>
   <g id="text_7">
    <!-- no -->
    <g style="fill: #a89f94" transform="translate(128.051188 189.637492) scale(0.074 -0.074)">
     <use xlink:href="#DejaVuSans-6e"/>
     <use xlink:href="#DejaVuSans-6f" transform="translate(63.378906 0)"/>
    </g>
   </g>
   <g id="text_8">
    <!-- yes -->
    <g style="fill: #a89f94" transform="translate(126.265938 261.19886) scale(0.074 -0.074)">
     <use xlink:href="#DejaVuSans-79"/>
     <use xlink:href="#DejaVuSans-65" transform="translate(59.179688 0)"/>
     <use xlink:href="#DejaVuSans-73" transform="translate(120.703125 0)"/>
    </g>
   </g>
   <g id="text_9">
    <!-- dispatch by intention -->
    <g style="fill: #6fd48d" transform="translate(68.276953 291.709265) scale(0.09 -0.09)">
     <use xlink:href="#DejaVuSans-64"/>
     <use xlink:href="#DejaVuSans-69" transform="translate(63.476562 0)"/>
     <use xlink:href="#DejaVuSans-73" transform="translate(91.259766 0)"/>
     <use xlink:href="#DejaVuSans-70" transform="translate(143.359375 0)"/>
     <use xlink:href="#DejaVuSans-61" transform="translate(206.835938 0)"/>
     <use xlink:href="#DejaVuSans-74" transform="translate(268.115234 0)"/>
     <use xlink:href="#DejaVuSans-63" transform="translate(307.324219 0)"/>
     <use xlink:href="#DejaVuSans-68" transform="translate(362.304688 0)"/>
     <use xlink:href="#DejaVuSans-20" transform="translate(425.683594 0)"/>
     <use xlink:href="#DejaVuSans-62" transform="translate(457.470703 0)"/>
     <use xlink:href="#DejaVuSans-79" transform="translate(520.947266 0)"/>
     <use xlink:href="#DejaVuSans-20" transform="translate(580.126953 0)"/>
     <use xlink:href="#DejaVuSans-69" transform="translate(611.914062 0)"/>
     <use xlink:href="#DejaVuSans-6e" transform="translate(639.697266 0)"/>
     <use xlink:href="#DejaVuSans-74" transform="translate(703.076172 0)"/>
     <use xlink:href="#DejaVuSans-65" transform="translate(742.285156 0)"/>
     <use xlink:href="#DejaVuSans-6e" transform="translate(803.808594 0)"/>
     <use xlink:href="#DejaVuSans-74" transform="translate(867.1875 0)"/>
     <use xlink:href="#DejaVuSans-69" transform="translate(906.396484 0)"/>
     <use xlink:href="#DejaVuSans-6f" transform="translate(934.179688 0)"/>
     <use xlink:href="#DejaVuSans-6e" transform="translate(995.361328 0)"/>
    </g>
   </g>
   <g id="text_10">
    <!-- wait → idle   ·   go_* → stepTowardsTarget -->
    <g style="fill: #a89f94" transform="translate(40.59 308.81275) scale(0.066 -0.066)">
     <defs>
      <path id="DejaVuSans-2192" d="M 5050 2147 
L 5050 1866 
L 3822 638 
L 3447 1013 
L 4175 1741 
L 366 1741 
L 366 2272 
L 4175 2272 
L 3447 3000 
L 3822 3375 
L 5050 2147 
z
" transform="scale(0.015625)"/>
      <path id="DejaVuSans-6c" d="M 603 4863 
L 1178 4863 
L 1178 0 
L 603 0 
L 603 4863 
z
" transform="scale(0.015625)"/>
      <path id="DejaVuSans-b7" d="M 684 2619 
L 1344 2619 
L 1344 1825 
L 684 1825 
L 684 2619 
z
" transform="scale(0.015625)"/>
      <path id="DejaVuSans-67" d="M 2906 1791 
Q 2906 2416 2648 2759 
Q 2391 3103 1925 3103 
Q 1463 3103 1205 2759 
Q 947 2416 947 1791 
Q 947 1169 1205 825 
Q 1463 481 1925 481 
Q 2391 481 2648 825 
Q 2906 1169 2906 1791 
z
M 3481 434 
Q 3481 -459 3084 -895 
Q 2688 -1331 1869 -1331 
Q 1566 -1331 1297 -1286 
Q 1028 -1241 775 -1147 
L 775 -588 
Q 1028 -725 1275 -790 
Q 1522 -856 1778 -856 
Q 2344 -856 2625 -561 
Q 2906 -266 2906 331 
L 2906 616 
Q 2728 306 2450 153 
Q 2172 0 1784 0 
Q 1141 0 747 490 
Q 353 981 353 1791 
Q 353 2603 747 3093 
Q 1141 3584 1784 3584 
Q 2172 3584 2450 3431 
Q 2728 3278 2906 2969 
L 2906 3500 
L 3481 3500 
L 3481 434 
z
" transform="scale(0.015625)"/>
      <path id="DejaVuSans-5f" d="M 3263 -1063 
L 3263 -1509 
L -63 -1509 
L -63 -1063 
L 3263 -1063 
z
" transform="scale(0.015625)"/>
      <path id="DejaVuSans-2a" d="M 3009 3897 
L 1888 3291 
L 3009 2681 
L 2828 2375 
L 1778 3009 
L 1778 1831 
L 1422 1831 
L 1422 3009 
L 372 2375 
L 191 2681 
L 1313 3291 
L 191 3897 
L 372 4206 
L 1422 3572 
L 1422 4750 
L 1778 4750 
L 1778 3572 
L 2828 4206 
L 3009 3897 
z
" transform="scale(0.015625)"/>
      <path id="DejaVuSans-54" d="M -19 4666 
L 3928 4666 
L 3928 4134 
L 2272 4134 
L 2272 0 
L 1638 0 
L 1638 4134 
L -19 4134 
L -19 4666 
z
" transform="scale(0.015625)"/>
     </defs>
     <use xlink:href="#DejaVuSans-77"/>
     <use xlink:href="#DejaVuSans-61" transform="translate(81.787109 0)"/>
     <use xlink:href="#DejaVuSans-69" transform="translate(143.066406 0)"/>
     <use xlink:href="#DejaVuSans-74" transform="translate(170.849609 0)"/>
     <use xlink:href="#DejaVuSans-20" transform="translate(210.058594 0)"/>
     <use xlink:href="#DejaVuSans-2192" transform="translate(241.845703 0)"/>
     <use xlink:href="#DejaVuSans-20" transform="translate(325.634766 0)"/>
     <use xlink:href="#DejaVuSans-69" transform="translate(357.421875 0)"/>
     <use xlink:href="#DejaVuSans-64" transform="translate(385.205078 0)"/>
     <use xlink:href="#DejaVuSans-6c" transform="translate(448.681641 0)"/>
     <use xlink:href="#DejaVuSans-65" transform="translate(476.464844 0)"/>
     <use xlink:href="#DejaVuSans-20" transform="translate(537.988281 0)"/>
     <use xlink:href="#DejaVuSans-20" transform="translate(569.775391 0)"/>
     <use xlink:href="#DejaVuSans-20" transform="translate(601.5625 0)"/>
     <use xlink:href="#DejaVuSans-b7" transform="translate(633.349609 0)"/>
     <use xlink:href="#DejaVuSans-20" transform="translate(665.136719 0)"/>
     <use xlink:href="#DejaVuSans-20" transform="translate(696.923828 0)"/>
     <use xlink:href="#DejaVuSans-20" transform="translate(728.710938 0)"/>
     <use xlink:href="#DejaVuSans-67" transform="translate(760.498047 0)"/>
     <use xlink:href="#DejaVuSans-6f" transform="translate(823.974609 0)"/>
     <use xlink:href="#DejaVuSans-5f" transform="translate(885.15625 0)"/>
     <use xlink:href="#DejaVuSans-2a" transform="translate(935.15625 0)"/>
     <use xlink:href="#DejaVuSans-20" transform="translate(985.15625 0)"/>
     <use xlink:href="#DejaVuSans-2192" transform="translate(1016.943359 0)"/>
     <use xlink:href="#DejaVuSans-20" transform="translate(1100.732422 0)"/>
     <use xlink:href="#DejaVuSans-73" transform="translate(1132.519531 0)"/>
     <use xlink:href="#DejaVuSans-74" transform="translate(1184.619141 0)"/>
     <use xlink:href="#DejaVuSans-65" transform="translate(1223.828125 0)"/>
     <use xlink:href="#DejaVuSans-70" transform="translate(1285.351562 0)"/>
     <use xlink:href="#DejaVuSans-54" transform="translate(1348.828125 0)"/>
     <use xlink:href="#DejaVuSans-6f" transform="translate(1392.912109 0)"/>
     <use xlink:href="#DejaVuSans-77" transform="translate(1454.09375 0)"/>
     <use xlink:href="#DejaVuSans-61" transform="translate(1535.880859 0)"/>
     <use xlink:href="#DejaVuSans-72" transform="translate(1597.160156 0)"/>
     <use xlink:href="#DejaVuSans-64" transform="translate(1636.523438 0)"/>
     <use xlink:href="#DejaVuSans-73" transform="translate(1700 0)"/>
     <use xlink:href="#DejaVuSans-54" transform="translate(1752.099609 0)"/>
     <use xlink:href="#DejaVuSans-61" transform="translate(1796.683594 0)"/>
     <use xlink:href="#DejaVuSans-72" transform="translate(1857.962891 0)"/>
     <use xlink:href="#DejaVuSans-67" transform="translate(1897.326172 0)"/>
     <use xlink:href="#DejaVuSans-65" transform="translate(1960.802734 0)"/>
     <use xlink:href="#DejaVuSans-74" transform="translate(2022.326172 0)"/>
    </g>
   </g>
   <g id="text_11">
    <!-- go_handoff* → runHandoff -->
    <g style="fill: #a89f94" transform="translate(40.59 326.670266) scale(0.066 -0.066)">
     <defs>
      <path id="DejaVuSans-66" d="M 2375 4863 
L 2375 4384 
L 1825 4384 
Q 1516 4384 1395 4259 
Q 1275 4134 1275 3809 
L 1275 3500 
L 2222 3500 
L 2222 3053 
L 1275 3053 
L 1275 0 
L 697 0 
L 697 3053 
L 147 3053 
L 147 3500 
L 697 3500 
L 697 3744 
Q 697 4328 969 4595 
Q 1241 4863 1831 4863 
L 2375 4863 
z
" transform="scale(0.015625)"/>
      <path id="DejaVuSans-48" d="M 628 4666 
L 1259 4666 
L 1259 2753 
L 3553 2753 
L 3553 4666 
L 4184 4666 
L 4184 0 
L 3553 0 
L 3553 2222 
L 1259 2222 
L 1259 0 
L 628 0 
L 628 4666 
z
" transform="scale(0.015625)"/>
     </defs>
     <use xlink:href="#DejaVuSans-67"/>
     <use xlink:href="#DejaVuSans-6f" transform="translate(63.476562 0)"/>
     <use xlink:href="#DejaVuSans-5f" transform="translate(124.658203 0)"/>
     <use xlink:href="#DejaVuSans-68" transform="translate(174.658203 0)"/>
     <use xlink:href="#DejaVuSans-61" transform="translate(238.037109 0)"/>
     <use xlink:href="#DejaVuSans-6e" transform="translate(299.316406 0)"/>
     <use xlink:href="#DejaVuSans-64" transform="translate(362.695312 0)"/>
     <use xlink:href="#DejaVuSans-6f" transform="translate(426.171875 0)"/>
     <use xlink:href="#DejaVuSans-66" transform="translate(487.353516 0)"/>
     <use xlink:href="#DejaVuSans-66" transform="translate(522.558594 0)"/>
     <use xlink:href="#DejaVuSans-2a" transform="translate(557.763672 0)"/>
     <use xlink:href="#DejaVuSans-20" transform="translate(607.763672 0)"/>
     <use xlink:href="#DejaVuSans-2192" transform="translate(639.550781 0)"/>
     <use xlink:href="#DejaVuSans-20" transform="translate(723.339844 0)"/>
     <use xlink:href="#DejaVuSans-72" transform="translate(755.126953 0)"/>
     <use xlink:href="#DejaVuSans-75" transform="translate(796.240234 0)"/>
     <use xlink:href="#DejaVuSans-6e" transform="translate(859.619141 0)"/>
     <use xlink:href="#DejaVuSans-48" transform="translate(922.998047 0)"/>
     <use xlink:href="#DejaVuSans-61" transform="translate(998.193359 0)"/>
     <use xlink:href="#DejaVuSans-6e" transform="translate(1059.472656 0)"/>
     <use xlink:href="#DejaVuSans-64" transform="translate(1122.851562 0)"/>
     <use xlink:href="#DejaVuSans-6f" transform="translate(1186.328125 0)"/>
     <use xlink:href="#DejaVuSans-66" transform="translate(1247.509766 0)"/>
     <use xlink:href="#DejaVuSans-66" transform="translate(1282.714844 0)"/>
    </g>
   </g>
   <g id="text_12">
    <!-- no  →  sleep -->
    <g style="fill: #7a7268" transform="translate(220.212094 30.012152) scale(0.066 -0.066)">
     <use xlink:href="#DejaVuSans-6e"/>
     <use xlink:href="#DejaVuSans-6f" transform="translate(63.378906 0)"/>
     <use xlink:href="#DejaVuSans-20" transform="translate(124.560547 0)"/>
     <use xlink:href="#DejaVuSans-20" transform="translate(156.347656 0)"/>
     <use xlink:href="#DejaVuSans-2192" transform="translate(188.134766 0)"/>
     <use xlink:href="#DejaVuSans-20" transform="translate(271.923828 0)"/>
     <use xlink:href="#DejaVuSans-20" transform="translate(303.710938 0)"/>
     <use xlink:href="#DejaVuSans-73" transform="translate(335.498047 0)"/>
     <use xlink:href="#DejaVuSans-6c" transform="translate(387.597656 0)"/>
     <use xlink:href="#DejaVuSans-65" transform="translate(415.380859 0)"/>
     <use xlink:href="#DejaVuSans-65" transform="translate(476.904297 0)"/>
     <use xlink:href="#DejaVuSans-70" transform="translate(538.427734 0)"/>
    </g>
   </g>
   <g id="text_13">
    <!-- no -->
    <g style="fill: #7a7268" transform="translate(235.964437 90.412573) scale(0.066 -0.066)">
     <use xlink:href="#DejaVuSans-6e"/>
     <use xlink:href="#DejaVuSans-6f" transform="translate(63.378906 0)"/>
    </g>
   </g>
   <g id="text_14">
    <!-- yes  →  sleep -->
    <g style="fill: #7a7268" transform="translate(218.619844 150.812994) scale(0.066 -0.066)">
     <use xlink:href="#DejaVuSans-79"/>
     <use xlink:href="#DejaVuSans-65" transform="translate(59.179688 0)"/>
     <use xlink:href="#DejaVuSans-73" transform="translate(120.703125 0)"/>
     <use xlink:href="#DejaVuSans-20" transform="translate(172.802734 0)"/>
     <use xlink:href="#DejaVuSans-20" transform="translate(204.589844 0)"/>
     <use xlink:href="#DejaVuSans-2192" transform="translate(236.376953 0)"/>
     <use xlink:href="#DejaVuSans-20" transform="translate(320.166016 0)"/>
     <use xlink:href="#DejaVuSans-20" transform="translate(351.953125 0)"/>
     <use xlink:href="#DejaVuSans-73" transform="translate(383.740234 0)"/>
     <use xlink:href="#DejaVuSans-6c" transform="translate(435.839844 0)"/>
     <use xlink:href="#DejaVuSans-65" transform="translate(463.623047 0)"/>
     <use xlink:href="#DejaVuSans-65" transform="translate(525.146484 0)"/>
     <use xlink:href="#DejaVuSans-70" transform="translate(586.669922 0)"/>
    </g>
   </g>
   <g id="text_15">
    <!-- no -->
    <g style="fill: #7a7268" transform="translate(235.964437 211.213415) scale(0.066 -0.066)">
     <use xlink:href="#DejaVuSans-6e"/>
     <use xlink:href="#DejaVuSans-6f" transform="translate(63.378906 0)"/>
    </g>
   </g>
   <g id="text_16">
    <!-- next tick  (loop) -->
    <g style="fill: #7a7268" transform="translate(174.814688 9.638906) scale(0.07 -0.07)">
     <defs>
      <path id="DejaVuSans-78" d="M 3513 3500 
L 2247 1797 
L 3578 0 
L 2900 0 
L 1881 1375 
L 863 0 
L 184 0 
L 1544 1831 
L 300 3500 
L 978 3500 
L 1906 2253 
L 2834 3500 
L 3513 3500 
z
" transform="scale(0.015625)"/>
      <path id="DejaVuSans-28" d="M 1984 4856 
Q 1566 4138 1362 3434 
Q 1159 2731 1159 2009 
Q 1159 1288 1364 580 
Q 1569 -128 1984 -844 
L 1484 -844 
Q 1016 -109 783 600 
Q 550 1309 550 2009 
Q 550 2706 781 3412 
Q 1013 4119 1484 4856 
L 1984 4856 
z
" transform="scale(0.015625)"/>
      <path id="DejaVuSans-29" d="M 513 4856 
L 1013 4856 
Q 1481 4119 1714 3412 
Q 1947 2706 1947 2009 
Q 1947 1309 1714 600 
Q 1481 -109 1013 -844 
L 513 -844 
Q 928 -128 1133 580 
Q 1338 1288 1338 2009 
Q 1338 2731 1133 3434 
Q 928 4138 513 4856 
z
" transform="scale(0.015625)"/>
     </defs>
     <use xlink:href="#DejaVuSans-6e"/>
     <use xlink:href="#DejaVuSans-65" transform="translate(63.378906 0)"/>
     <use xlink:href="#DejaVuSans-78" transform="translate(123.152344 0)"/>
     <use xlink:href="#DejaVuSans-74" transform="translate(182.332031 0)"/>
     <use xlink:href="#DejaVuSans-20" transform="translate(221.541016 0)"/>
     <use xlink:href="#DejaVuSans-74" transform="translate(253.328125 0)"/>
     <use xlink:href="#DejaVuSans-69" transform="translate(292.537109 0)"/>
     <use xlink:href="#DejaVuSans-63" transform="translate(320.320312 0)"/>
     <use xlink:href="#DejaVuSans-6b" transform="translate(375.300781 0)"/>
     <use xlink:href="#DejaVuSans-20" transform="translate(433.210938 0)"/>
     <use xlink:href="#DejaVuSans-20" transform="translate(464.998047 0)"/>
     <use xlink:href="#DejaVuSans-28" transform="translate(496.785156 0)"/>
     <use xlink:href="#DejaVuSans-6c" transform="translate(535.798828 0)"/>
     <use xlink:href="#DejaVuSans-6f" transform="translate(563.582031 0)"/>
     <use xlink:href="#DejaVuSans-6f" transform="translate(624.763672 0)"/>
     <use xlink:href="#DejaVuSans-70" transform="translate(685.945312 0)"/>
     <use xlink:href="#DejaVuSans-29" transform="translate(749.421875 0)"/>
    </g>
   </g>
  </g>
 </g>
 <defs>
  <clipPath id="p43a39b9ec8">
   <rect x="4.32" y="10.333449" width="312.48" height="399.168"/>
  </clipPath>
 </defs>
</svg>
