<?xml version="1.0" encoding="utf-8" standalone="no"?>
<!DOCTYPE svg PUBLIC "-//W3C//DTD SVG 1.1//EN"
  "http://www.w3.org/Graphics/SVG/1.1/DTD/svg11.dtd">
<svg xmlns:xlink="http://www.w3.org/1999/xlink" width="412.92pt" height="194.04pt" viewBox="0 0 412.92 194.04" xmlns="http://www.w3.org/2000/svg" version="1.1">
 <metadata>
  <rdf:RDF xmlns:dc="http://purl.org/dc/elements/1.1/" xmlns:cc="http://creativecommons.org/ns#" xmlns:rdf="http://www.w3.org/1999/02/22-rdf-syntax-ns#">
   <cc:Work>
    <dc:type rdf:resource="http://purl.org/dc/dcmitype/StillImage"/>
    <dc:date>2026-06-23T16:52:50.290327</dc:date>
    <dc:format>image/svg+xml</dc:format>
    <dc:creator>
     <cc:Agent>
      <dc:title>Matplotlib v3.11.0, https://matplotlib.org/</dc:title>
     </cc:Agent>
    </dc:creator>
   </cc:Work>
  </rdf:RDF>
 </metadata>
 <defs>
  <style type="text/css">*{stroke-linejoin: round; stroke-linecap: butt}</style>
 </defs>
 <g id="figure_1">
  <g id="patch_1">
   <path d="M 0 194.04 
L 412.92 194.04 
L 412.92 0 
L 0 0 
L 0 194.04 
z
" style="fill: none; opacity: 0"/>
  </g>
  <g id="axes_1">
   <g id="patch_2">
    <path d="M 14.018889 66.70125 
L 67.545556 66.70125 
Q 73.917778 66.70125 73.917778 60.6375 
L 73.917778 36.3825 
Q 73.917778 30.31875 67.545556 30.31875 
L 14.018889 30.31875 
Q 7.646667 30.31875 7.646667 36.3825 
L 7.646667 60.6375 
Q 7.646667 66.70125 14.018889 66.70125 
z
" clip-path="url(#pd215addb77)" style="fill: #201d1b; stroke: #55c3ff; stroke-width: 1.5; stroke-linejoin: miter"/>
   </g>
   <g id="patch_3">
    <path d="M 98.132222 67.914 
L 166.952222 67.914 
Q 173.324444 67.914 173.324444 61.85025 
L 173.324444 35.16975 
Q 173.324444 29.106 166.952222 29.106 
L 98.132222 29.106 
Q 91.76 29.106 91.76 35.16975 
L 91.76 61.85025 
Q 91.76 67.914 98.132222 67.914 
z
" clip-path="url(#pd215addb77)" style="fill: #201d1b; stroke: #c99cff; stroke-width: 1.5; stroke-linejoin: miter"/>
   </g>
   <g id="patch_4">
    <path d="M 200.087778 67.914 
L 279.103333 67.914 
Q 285.475556 67.914 285.475556 61.85025 
L 285.475556 35.16975 
Q 285.475556 29.106 279.103333 29.106 
L 200.087778 29.106 
Q 193.715556 29.106 193.715556 35.16975 
L 193.715556 61.85025 
Q 193.715556 67.914 200.087778 67.914 
z
" clip-path="url(#pd215addb77)" style="fill: #201d1b; stroke: #ffb052; stroke-width: 1.5; stroke-linejoin: miter"/>
   </g>
   <g id="patch_5">
    <path d="M 322.434444 66.70125 
L 381.058889 66.70125 
Q 387.431111 66.70125 387.431111 60.6375 
L 387.431111 36.3825 
Q 387.431111 30.31875 381.058889 30.31875 
L 322.434444 30.31875 
Q 316.062222 30.31875 316.062222 36.3825 
L 316.062222 60.6375 
Q 316.062222 66.70125 322.434444 66.70125 
z
" clip-path="url(#pd215addb77)" style="fill: #201d1b; stroke: #55c3ff; stroke-width: 1.5; stroke-linejoin: miter"/>
   </g>
   <g id="patch_6">
    <path d="M 200.087778 160.083 
L 279.103333 160.083 
Q 285.475556 160.083 285.475556 154.01925 
L 285.475556 127.33875 
Q 285.475556 121.275 279.103333 121.275 
L 200.087778 121.275 
Q 193.715556 121.275 193.715556 127.33875 
L 193.715556 154.01925 
Q 193.715556 160.083 200.087778 160.083 
z
" clip-path="url(#pd215addb77)" style="fill: #201d1b; stroke: #c99cff; stroke-width: 1.5; stroke-linejoin: miter"/>
   </g>
   <g id="patch_7">
    <path d="M 322.434444 111.573 
L 381.058889 111.573 
Q 387.431111 111.573 387.431111 105.50925 
L 387.431111 83.67975 
Q 387.431111 77.616 381.058889 77.616 
L 322.434444 77.616 
Q 316.062222 77.616 316.062222 83.67975 
L 316.062222 105.50925 
Q 316.062222 111.573 322.434444 111.573 
z
" clip-path="url(#pd215addb77)" style="fill: #201d1b; stroke: #6fd48d; stroke-width: 1.5; stroke-linejoin: miter"/>
   </g>
   <g id="patch_8">
    <path d="M 322.434444 157.6575 
L 381.058889 157.6575 
Q 387.431111 157.6575 387.431111 151.59375 
L 387.431111 129.76425 
Q 387.431111 123.7005 381.058889 123.7005 
L 322.434444 123.7005 
Q 316.062222 123.7005 316.062222 129.76425 
L 316.062222 151.59375 
Q 316.062222 157.6575 322.434444 157.6575 
z
" clip-path="url(#pd215addb77)" style="fill: #201d1b; stroke: #ef4e5f; stroke-width: 1.5; stroke-linejoin: miter"/>
   </g>
   <g id="patch_9">
    <path d="M 73.917778 48.51 
Q 82.838889 48.51 90.530163 48.51 
" clip-path="url(#pd215addb77)" style="fill: none; stroke: #a89f94; stroke-width: 1.1; stroke-linecap: round"/>
    <path d="M 86.130163 46.31 
L 90.530163 48.51 
L 86.130163 50.71 
z
" clip-path="url(#pd215addb77)" style="fill: #a89f94; stroke: #a89f94; stroke-width: 1.1; stroke-linecap: round"/>
   </g>
   <g id="patch_10">
    <path d="M 173.324444 48.51 
Q 183.52 48.51 192.485718 48.51 
" clip-path="url(#pd215addb77)" style="fill: none; stroke: #a89f94; stroke-width: 1.1; stroke-linecap: round"/>
    <path d="M 188.085718 46.31 
L 192.485718 48.51 
L 188.085718 50.71 
z
" clip-path="url(#pd215addb77)" style="fill: #a89f94; stroke: #a89f94; stroke-width: 1.1; stroke-linecap: round"/>
   </g>
   <g id="patch_11">
    <path d="M 285.475556 48.51 
Q 300.768889 48.51 314.720581 48.51 
" clip-path="url(#pd215addb77)" style="fill: none; stroke: #ffb052; stroke-width: 1.2; stroke-linecap: round"/>
    <path d="M 310.320581 46.31 
L 314.720581 48.51 
L 310.320581 50.71 
z
" clip-path="url(#pd215addb77)" style="fill: #ffb052; stroke: #ffb052; stroke-width: 1.2; stroke-linecap: round"/>
   </g>
   <g id="patch_12">
    <path d="M 351.746667 66.70125 
Q 351.746667 72.158625 351.746667 76.162556 
" clip-path="url(#pd215addb77)" style="fill: none; stroke: #6fd48d; stroke-width: 1.3; stroke-linecap: round"/>
    <path d="M 353.946667 71.762556 
L 351.746667 76.162556 
L 349.546667 71.762556 
z
" clip-path="url(#pd215addb77)" style="fill: #6fd48d; stroke: #6fd48d; stroke-width: 1.3; stroke-linecap: round"/>
   </g>
   <g id="patch_13">
    <path d="M 316.062222 60.6375 
Q 279.036409 84.806767 285.280174 127.224162 
" clip-path="url(#pd215addb77)" style="fill: none; stroke: #ef4e5f; stroke-width: 1.2; stroke-linecap: round"/>
    <path d="M 286.815953 122.550686 
L 285.280174 127.224162 
L 282.46286 123.191453 
z
" clip-path="url(#pd215addb77)" style="fill: #ef4e5f; stroke: #ef4e5f; stroke-width: 1.2; stroke-linecap: round"/>
   </g>
   <g id="patch_14">
    <path d="M 285.475556 130.977 
Q 298.440409 117.6046 314.792878 112.007472 
" clip-path="url(#pd215addb77)" style="fill: none; stroke: #6fd48d; stroke-width: 1.2; stroke-linecap: round"/>
    <path d="M 309.917541 111.350901 
L 314.792878 112.007472 
L 311.342419 115.513799 
z
" clip-path="url(#pd215addb77)" style="fill: #6fd48d; stroke: #6fd48d; stroke-width: 1.2; stroke-linecap: round"/>
   </g>
   <g id="patch_15">
    <path d="M 285.475556 147.9555 
Q 300.768889 147.9555 314.720581 147.9555 
" clip-path="url(#pd215addb77)" style="fill: none; stroke: #7a7268; stroke-width: 1.2; stroke-linecap: round"/>
    <path d="M 310.320581 145.7555 
L 314.720581 147.9555 
L 310.320581 150.1555 
z
" clip-path="url(#pd215addb77)" style="fill: #7a7268; stroke: #7a7268; stroke-width: 1.2; stroke-linecap: round"/>
   </g>
   <g id="text_1">
    <!-- intention -->
    <g style="fill: #fff7eb" transform="translate(22.016097 44.871159) scale(0.084 -0.084)">
     <defs>
      <path id="DejaVuSans-4c" d="M 603 3500 
L 1178 3500 
L 1178 0 
L 603 0 
L 603 3500 
z
M 603 4863 
L 1178 4863 
L 1178 4134 
L 603 4134 
L 603 4863 
z
" transform="scale(0.015625)"/>
      <path id="DejaVuSans-51" d="M 3513 2113 
L 3513 0 
L 2938 0 
L 2938 2094 
Q 2938 2591 2744 2837 
Q 2550 3084 2163 3084 
Q 1697 3084 1428 2787 
Q 1159 2491 1159 1978 
L 1159 0 
L 581 0 
L 581 3500 
L 1159 3500 
L 1159 2956 
Q 1366 3272 1645 3428 
Q 1925 3584 2291 3584 
Q 2894 3584 3203 3211 
Q 3513 2838 3513 2113 
z
" transform="scale(0.015625)"/>
      <path id="DejaVuSans-57" d="M 1172 4494 
L 1172 3500 
L 2356 3500 
L 2356 3053 
L 1172 3053 
L 1172 1153 
Q 1172 725 1289 603 
Q 1406 481 1766 481 
L 2356 481 
L 2356 0 
L 1766 0 
Q 1100 0 847 248 
Q 594 497 594 1153 
L 594 3053 
L 172 3053 
L 172 3500 
L 594 3500 
L 594 4494 
L 1172 4494 
z
" transform="scale(0.015625)"/>
      <path id="DejaVuSans-48" d="M 3597 1894 
L 3597 1613 
L 953 1613 
Q 991 1019 1311 708 
Q 1631 397 2203 397 
Q 2534 397 2845 478 
Q 3156 559 3463 722 
L 3463 178 
Q 3153 47 2828 -22 
Q 2503 -91 2169 -91 
Q 1331 -91 842 396 
Q 353 884 353 1716 
Q 353 2575 817 3079 
Q 1281 3584 2069 3584 
Q 2775 3584 3186 3129 
Q 3597 2675 3597 1894 
z
M 3022 2063 
Q 3016 2534 2758 2815 
Q 2500 3097 2075 3097 
Q 1594 3097 1305 2825 
Q 1016 2553 972 2059 
L 3022 2063 
z
" transform="scale(0.015625)"/>
      <path id="DejaVuSans-52" d="M 1959 3097 
Q 1497 3097 1228 2736 
Q 959 2375 959 1747 
Q 959 1119 1226 758 
Q 1494 397 1959 397 
Q 2419 397 2687 759 
Q 2956 1122 2956 1747 
Q 2956 2369 2687 2733 
Q 2419 3097 1959 3097 
z
M 1959 3584 
Q 2709 3584 3137 3096 
Q 3566 2609 3566 1747 
Q 3566 888 3137 398 
Q 2709 -91 1959 -91 
Q 1206 -91 779 398 
Q 353 888 353 1747 
Q 353 2609 779 3096 
Q 1206 3584 1959 3584 
z
" transform="scale(0.015625)"/>
     </defs>
     <use xlink:href="#DejaVuSans-4c"/>
     <use xlink:href="#DejaVuSans-51" transform="translate(27.78125 0)"/>
     <use xlink:href="#DejaVuSans-57" transform="translate(91.15625 0)"/>
     <use xlink:href="#DejaVuSans-48" transform="translate(130.359375 0)"/>
     <use xlink:href="#DejaVuSans-51" transform="translate(191.890625 0)"/>
     <use xlink:href="#DejaVuSans-57" transform="translate(255.265625 0)"/>
     <use xlink:href="#DejaVuSans-4c" transform="translate(294.46875 0)"/>
     <use xlink:href="#DejaVuSans-52" transform="translate(322.25 0)"/>
     <use xlink:href="#DejaVuSans-51" transform="translate(383.4375 0)"/>
    </g>
   </g>
   <g id="text_2">
    <!-- + beliefs -->
    <g style="fill: #a89f94" transform="translate(28.32266 57.726506) scale(0.056 -0.056)">
     <defs>
      <path id="DejaVuSans-e" d="M 2944 4013 
L 2944 2272 
L 4684 2272 
L 4684 1741 
L 2944 1741 
L 2944 0 
L 2419 0 
L 2419 1741 
L 678 1741 
L 678 2272 
L 2419 2272 
L 2419 4013 
L 2944 4013 
z
" transform="scale(0.015625)"/>
      <path id="DejaVuSans-3" transform="scale(0.015625)"/>
      <path id="DejaVuSans-45" d="M 3116 1747 
Q 3116 2381 2855 2742 
Q 2594 3103 2138 3103 
Q 1681 3103 1420 2742 
Q 1159 2381 1159 1747 
Q 1159 1113 1420 752 
Q 1681 391 2138 391 
Q 2594 391 2855 752 
Q 3116 1113 3116 1747 
z
M 1159 2969 
Q 1341 3281 1617 3432 
Q 1894 3584 2278 3584 
Q 2916 3584 3314 3078 
Q 3713 2572 3713 1747 
Q 3713 922 3314 415 
Q 2916 -91 2278 -91 
Q 1894 -91 1617 61 
Q 1341 213 1159 525 
L 1159 0 
L 581 0 
L 581 4863 
L 1159 4863 
L 1159 2969 
z
" transform="scale(0.015625)"/>
      <path id="DejaVuSans-4f" d="M 603 4863 
L 1178 4863 
L 1178 0 
L 603 0 
L 603 4863 
z
" transform="scale(0.015625)"/>
      <path id="DejaVuSans-49" d="M 2375 4863 
L 2375 4384 
L 1825 4384 
Q 1516 4384 1395 4259 
Q 1275 4134 1275 3809 
L 1275 3500 
L 2222 3500 
L 2222 3053 
L 1275 3053 
L 1275 0 
L 697 0 
L 697 3053 
L 147 3053 
L 147 3500 
L 697 3500 
L 697 3744 
Q 697 4328 969 4595 
Q 1241 4863 1831 4863 
L 2375 4863 
z
" transform="scale(0.015625)"/>
      <path id="DejaVuSans-56" d="M 2834 3397 
L 2834 2853 
Q 2591 2978 2328 3040 
Q 2066 3103 1784 3103 
Q 1356 3103 1142 2972 
Q 928 2841 928 2578 
Q 928 2378 1081 2264 
Q 1234 2150 1697 2047 
L 1894 2003 
Q 2506 1872 2764 1633 
Q 3022 1394 3022 966 
Q 3022 478 2636 193 
Q 2250 -91 1575 -91 
Q 1294 -91 989 -36 
Q 684 19 347 128 
L 347 722 
Q 666 556 975 473 
Q 1284 391 1588 391 
Q 1994 391 2212 530 
Q 2431 669 2431 922 
Q 2431 1156 2273 1281 
Q 2116 1406 1581 1522 
L 1381 1569 
Q 847 1681 609 1914 
Q 372 2147 372 2553 
Q 372 3047 722 3315 
Q 1072 3584 1716 3584 
Q 2034 3584 2315 3537 
Q 2597 3491 2834 3397 
z
" transform="scale(0.015625)"/>
     </defs>
     <use xlink:href="#DejaVuSans-e"/>
     <use xlink:href="#DejaVuSans-3" transform="translate(83.796875 0)"/>
     <use xlink:href="#DejaVuSans-45" transform="translate(115.578125 0)"/>
     <use xlink:href="#DejaVuSans-48" transform="translate(179.0625 0)"/>
     <use xlink:href="#DejaVuSans-4f" transform="translate(240.59375 0)"/>
     <use xlink:href="#DejaVuSans-4c" transform="translate(268.375 0)"/>
     <use xlink:href="#DejaVuSans-48" transform="translate(296.15625 0)"/>
     <use xlink:href="#DejaVuSans-49" transform="translate(357.6875 0)"/>
     <use xlink:href="#DejaVuSans-56" transform="translate(392.890625 0)"/>
    </g>
   </g>
   <g id="text_3">
    <!-- build PDDL -->
    <g style="fill: #fff7eb" transform="translate(109.538691 44.871159) scale(0.084 -0.084)">
     <defs>
      <path id="DejaVuSans-58" d="M 544 1381 
L 544 3500 
L 1119 3500 
L 1119 1403 
Q 1119 906 1312 657 
Q 1506 409 1894 409 
Q 2359 409 2629 706 
Q 2900 1003 2900 1516 
L 2900 3500 
L 3475 3500 
L 3475 0 
L 2900 0 
L 2900 538 
Q 2691 219 2414 64 
Q 2138 -91 1772 -91 
Q 1169 -91 856 284 
Q 544 659 544 1381 
z
M 1991 3584 
L 1991 3584 
z
" transform="scale(0.015625)"/>
      <path id="DejaVuSans-47" d="M 2906 2969 
L 2906 4863 
L 3481 4863 
L 3481 0 
L 2906 0 
L 2906 525 
Q 2725 213 2448 61 
Q 2172 -91 1784 -91 
Q 1150 -91 751 415 
Q 353 922 353 1747 
Q 353 2572 751 3078 
Q 1150 3584 1784 3584 
Q 2172 3584 2448 3432 
Q 2725 3281 2906 2969 
z
M 947 1747 
Q 947 1113 1208 752 
Q 1469 391 1925 391 
Q 2381 391 2643 752 
Q 2906 1113 2906 1747 
Q 2906 2381 2643 2742 
Q 2381 3103 1925 3103 
Q 1469 3103 1208 2742 
Q 947 2381 947 1747 
z
" transform="scale(0.015625)"/>
      <path id="DejaVuSans-33" d="M 1259 4147 
L 1259 2394 
L 2053 2394 
Q 2494 2394 2734 2622 
Q 2975 2850 2975 3272 
Q 2975 3691 2734 3919 
Q 2494 4147 2053 4147 
L 1259 4147 
z
M 628 4666 
L 2053 4666 
Q 2838 4666 3239 4311 
Q 3641 3956 3641 3272 
Q 3641 2581 3239 2228 
Q 2838 1875 2053 1875 
L 1259 1875 
L 1259 0 
L 628 0 
L 628 4666 
z
" transform="scale(0.015625)"/>
      <path id="DejaVuSans-27" d="M 1259 4147 
L 1259 519 
L 2022 519 
Q 2988 519 3436 956 
Q 3884 1394 3884 2338 
Q 3884 3275 3436 3711 
Q 2988 4147 2022 4147 
L 1259 4147 
z
M 628 4666 
L 1925 4666 
Q 3281 4666 3915 4102 
Q 4550 3538 4550 2338 
Q 4550 1131 3912 565 
Q 3275 0 1925 0 
L 628 0 
L 628 4666 
z
" transform="scale(0.015625)"/>
      <path id="DejaVuSans-2f" d="M 628 4666 
L 1259 4666 
L 1259 531 
L 3531 531 
L 3531 0 
L 628 0 
L 628 4666 
z
" transform="scale(0.015625)"/>
     </defs>
     <use xlink:href="#DejaVuSans-45"/>
     <use xlink:href="#DejaVuSans-58" transform="translate(63.484375 0)"/>
     <use xlink:href="#DejaVuSans-4c" transform="translate(126.859375 0)"/>
     <use xlink:href="#DejaVuSans-4f" transform="translate(154.640625 0)"/>
     <use xlink:href="#DejaVuSans-47" transform="translate(182.421875 0)"/>
     <use xlink:href="#DejaVuSans-3" transform="translate(245.90625 0)"/>
     <use xlink:href="#DejaVuSans-33" transform="translate(277.6875 0)"/>
     <use xlink:href="#DejaVuSans-27" transform="translate(337.984375 0)"/>
     <use xlink:href="#DejaVuSans-27" transform="translate(414.984375 0)"/>
     <use xlink:href="#DejaVuSans-2f" transform="translate(491.984375 0)"/>
    </g>
   </g>
   <g id="text_4">
    <!-- tiles · 1-way edges -->
    <g style="fill: #a89f94" transform="translate(106.233597 57.726506) scale(0.056 -0.056)">
     <defs>
      <path id="DejaVuSans-79" d="M 684 2619 
L 1344 2619 
L 1344 1825 
L 684 1825 
L 684 2619 
z
" transform="scale(0.015625)"/>
      <path id="DejaVuSans-14" d="M 794 531 
L 1825 531 
L 1825 4091 
L 703 3866 
L 703 4441 
L 1819 4666 
L 2450 4666 
L 2450 531 
L 3481 531 
L 3481 0 
L 794 0 
L 794 531 
z
" transform="scale(0.015625)"/>
      <path id="DejaVuSans-10" d="M 313 2009 
L 1997 2009 
L 1997 1497 
L 313 1497 
L 313 2009 
z
" transform="scale(0.015625)"/>
      <path id="DejaVuSans-5a" d="M 269 3500 
L 844 3500 
L 1563 769 
L 2278 3500 
L 2956 3500 
L 3675 769 
L 4391 3500 
L 4966 3500 
L 4050 0 
L 3372 0 
L 2619 2869 
L 1863 0 
L 1184 0 
L 269 3500 
z
" transform="scale(0.015625)"/>
      <path id="DejaVuSans-44" d="M 2194 1759 
Q 1497 1759 1228 1600 
Q 959 1441 959 1056 
Q 959 750 1161 570 
Q 1363 391 1709 391 
Q 2188 391 2477 730 
Q 2766 1069 2766 1631 
L 2766 1759 
L 2194 1759 
z
M 3341 1997 
L 3341 0 
L 2766 0 
L 2766 531 
Q 2569 213 2275 61 
Q 1981 -91 1556 -91 
Q 1019 -91 701 211 
Q 384 513 384 1019 
Q 384 1609 779 1909 
Q 1175 2209 1959 2209 
L 2766 2209 
L 2766 2266 
Q 2766 2663 2505 2880 
Q 2244 3097 1772 3097 
Q 1472 3097 1187 3025 
Q 903 2953 641 2809 
L 641 3341 
Q 956 3463 1253 3523 
Q 1550 3584 1831 3584 
Q 2591 3584 2966 3190 
Q 3341 2797 3341 1997 
z
" transform="scale(0.015625)"/>
      <path id="DejaVuSans-5c" d="M 2059 -325 
Q 1816 -950 1584 -1140 
Q 1353 -1331 966 -1331 
L 506 -1331 
L 506 -850 
L 844 -850 
Q 1081 -850 1212 -737 
Q 1344 -625 1503 -206 
L 1606 56 
L 191 3500 
L 800 3500 
L 1894 763 
L 2988 3500 
L 3597 3500 
L 2059 -325 
z
" transform="scale(0.015625)"/>
      <path id="DejaVuSans-4a" d="M 2906 1791 
Q 2906 2416 2648 2759 
Q 2391 3103 1925 3103 
Q 1463 3103 1205 2759 
Q 947 2416 947 1791 
Q 947 1169 1205 825 
Q 1463 481 1925 481 
Q 2391 481 2648 825 
Q 2906 1169 2906 1791 
z
M 3481 434 
Q 3481 -459 3084 -895 
Q 2688 -1331 1869 -1331 
Q 1566 -1331 1297 -1286 
Q 1028 -1241 775 -1147 
L 775 -588 
Q 1028 -725 1275 -790 
Q 1522 -856 1778 -856 
Q 2344 -856 2625 -561 
Q 2906 -266 2906 331 
L 2906 616 
Q 2728 306 2450 153 
Q 2172 0 1784 0 
Q 1141 0 747 490 
Q 353 981 353 1791 
Q 353 2603 747 3093 
Q 1141 3584 1784 3584 
Q 2172 3584 2450 3431 
Q 2728 3278 2906 2969 
L 2906 3500 
L 3481 3500 
L 3481 434 
z
" transform="scale(0.015625)"/>
     </defs>
     <use xlink:href="#DejaVuSans-57"/>
     <use xlink:href="#DejaVuSans-4c" transform="translate(39.203125 0)"/>
     <use xlink:href="#DejaVuSans-4f" transform="translate(66.984375 0)"/>
     <use xlink:href="#DejaVuSans-48" transform="translate(94.765625 0)"/>
     <use xlink:href="#DejaVuSans-56" transform="translate(156.296875 0)"/>
     <use xlink:href="#DejaVuSans-3" transform="translate(208.390625 0)"/>
     <use xlink:href="#DejaVuSans-79" transform="translate(240.171875 0)"/>
     <use xlink:href="#DejaVuSans-3" transform="translate(271.953125 0)"/>
     <use xlink:href="#DejaVuSans-14" transform="translate(303.734375 0)"/>
     <use xlink:href="#DejaVuSans-10" transform="translate(367.359375 0)"/>
     <use xlink:href="#DejaVuSans-5a" transform="translate(403.4375 0)"/>
     <use xlink:href="#DejaVuSans-44" transform="translate(485.21875 0)"/>
     <use xlink:href="#DejaVuSans-5c" transform="translate(546.5 0)"/>
     <use xlink:href="#DejaVuSans-3" transform="translate(605.6875 0)"/>
     <use xlink:href="#DejaVuSans-48" transform="translate(637.46875 0)"/>
     <use xlink:href="#DejaVuSans-47" transform="translate(699 0)"/>
     <use xlink:href="#DejaVuSans-4a" transform="translate(762.484375 0)"/>
     <use xlink:href="#DejaVuSans-48" transform="translate(825.96875 0)"/>
     <use xlink:href="#DejaVuSans-56" transform="translate(887.5 0)"/>
    </g>
   </g>
   <g id="text_5">
    <!-- Phase 1 — no push -->
    <g style="fill: #fff7eb" transform="translate(199.434368 44.871159) scale(0.084 -0.084)">
     <defs>
      <path id="DejaVuSans-4b" d="M 3513 2113 
L 3513 0 
L 2938 0 
L 2938 2094 
Q 2938 2591 2744 2837 
Q 2550 3084 2163 3084 
Q 1697 3084 1428 2787 
Q 1159 2491 1159 1978 
L 1159 0 
L 581 0 
L 581 4863 
L 1159 4863 
L 1159 2956 
Q 1366 3272 1645 3428 
Q 1925 3584 2291 3584 
Q 2894 3584 3203 3211 
Q 3513 2838 3513 2113 
z
" transform="scale(0.015625)"/>
      <path id="DejaVuSans-af6" d="M 313 1978 
L 6088 1978 
L 6088 1528 
L 313 1528 
L 313 1978 
z
" transform="scale(0.015625)"/>
      <path id="DejaVuSans-53" d="M 1159 525 
L 1159 -1331 
L 581 -1331 
L 581 3500 
L 1159 3500 
L 1159 2969 
Q 1341 3281 1617 3432 
Q 1894 3584 2278 3584 
Q 2916 3584 3314 3078 
Q 3713 2572 3713 1747 
Q 3713 922 3314 415 
Q 2916 -91 2278 -91 
Q 1894 -91 1617 61 
Q 1341 213 1159 525 
z
M 3116 1747 
Q 3116 2381 2855 2742 
Q 2594 3103 2138 3103 
Q 1681 3103 1420 2742 
Q 1159 2381 1159 1747 
Q 1159 1113 1420 752 
Q 1681 391 2138 391 
Q 2594 391 2855 752 
Q 3116 1113 3116 1747 
z
" transform="scale(0.015625)"/>
     </defs>
     <use xlink:href="#DejaVuSans-33"/>
     <use xlink:href="#DejaVuSans-4b" transform="translate(60.296875 0)"/>
     <use xlink:href="#DejaVuSans-44" transform="translate(123.671875 0)"/>
     <use xlink:href="#DejaVuSans-56" transform="translate(184.953125 0)"/>
     <use xlink:href="#DejaVuSans-48" transform="translate(237.046875 0)"/>
     <use xlink:href="#DejaVuSans-3" transform="translate(298.578125 0)"/>
     <use xlink:href="#DejaVuSans-14" transform="translate(330.359375 0)"/>
     <use xlink:href="#DejaVuSans-3" transform="translate(393.984375 0)"/>
     <use xlink:href="#DejaVuSans-af6" transform="translate(425.765625 0)"/>
     <use xlink:href="#DejaVuSans-3" transform="translate(525.765625 0)"/>
     <use xlink:href="#DejaVuSans-51" transform="translate(557.546875 0)"/>
     <use xlink:href="#DejaVuSans-52" transform="translate(620.921875 0)"/>
     <use xlink:href="#DejaVuSans-3" transform="translate(682.109375 0)"/>
     <use xlink:href="#DejaVuSans-53" transform="translate(713.890625 0)"/>
     <use xlink:href="#DejaVuSans-58" transform="translate(777.375 0)"/>
     <use xlink:href="#DejaVuSans-56" transform="translate(840.75 0)"/>
     <use xlink:href="#DejaVuSans-4b" transform="translate(892.84375 0)"/>
    </g>
   </g>
   <g id="text_6">
    <!-- crates = walls · 5s -->
    <g style="fill: #a89f94" transform="translate(213.853931 57.726506) scale(0.056 -0.056)">
     <defs>
      <path id="DejaVuSans-46" d="M 3122 3366 
L 3122 2828 
Q 2878 2963 2633 3030 
Q 2388 3097 2138 3097 
Q 1578 3097 1268 2742 
Q 959 2388 959 1747 
Q 959 1106 1268 751 
Q 1578 397 2138 397 
Q 2388 397 2633 464 
Q 2878 531 3122 666 
L 3122 134 
Q 2881 22 2623 -34 
Q 2366 -91 2075 -91 
Q 1284 -91 818 406 
Q 353 903 353 1747 
Q 353 2603 823 3093 
Q 1294 3584 2113 3584 
Q 2378 3584 2631 3529 
Q 2884 3475 3122 3366 
z
" transform="scale(0.015625)"/>
      <path id="DejaVuSans-55" d="M 2631 2963 
Q 2534 3019 2420 3045 
Q 2306 3072 2169 3072 
Q 1681 3072 1420 2755 
Q 1159 2438 1159 1844 
L 1159 0 
L 581 0 
L 581 3500 
L 1159 3500 
L 1159 2956 
Q 1341 3275 1631 3429 
Q 1922 3584 2338 3584 
Q 2397 3584 2469 3576 
Q 2541 3569 2628 3553 
L 2631 2963 
z
" transform="scale(0.015625)"/>
      <path id="DejaVuSans-20" d="M 678 2906 
L 4684 2906 
L 4684 2381 
L 678 2381 
L 678 2906 
z
M 678 1631 
L 4684 1631 
L 4684 1100 
L 678 1100 
L 678 1631 
z
" transform="scale(0.015625)"/>
      <path id="DejaVuSans-18" d="M 691 4666 
L 3169 4666 
L 3169 4134 
L 1269 4134 
L 1269 2991 
Q 1406 3038 1543 3061 
Q 1681 3084 1819 3084 
Q 2600 3084 3056 2656 
Q 3513 2228 3513 1497 
Q 3513 744 3044 326 
Q 2575 -91 1722 -91 
Q 1428 -91 1123 -41 
Q 819 9 494 109 
L 494 744 
Q 775 591 1075 516 
Q 1375 441 1709 441 
Q 2250 441 2565 725 
Q 2881 1009 2881 1497 
Q 2881 1984 2565 2268 
Q 2250 2553 1709 2553 
Q 1456 2553 1204 2497 
Q 953 2441 691 2322 
L 691 4666 
z
" transform="scale(0.015625)"/>
     </defs>
     <use xlink:href="#DejaVuSans-46"/>
     <use xlink:href="#DejaVuSans-55" transform="translate(54.984375 0)"/>
     <use xlink:href="#DejaVuSans-44" transform="translate(96.09375 0)"/>
     <use xlink:href="#DejaVuSans-57" transform="translate(157.375 0)"/>
     <use xlink:href="#DejaVuSans-48" transform="translate(196.578125 0)"/>
     <use xlink:href="#DejaVuSans-56" transform="translate(258.109375 0)"/>
     <use xlink:href="#DejaVuSans-3" transform="translate(310.203125 0)"/>
     <use xlink:href="#DejaVuSans-20" transform="translate(341.984375 0)"/>
     <use xlink:href="#DejaVuSans-3" transform="translate(425.78125 0)"/>
     <use xlink:href="#DejaVuSans-5a" transform="translate(457.5625 0)"/>
     <use xlink:href="#DejaVuSans-44" transform="translate(539.34375 0)"/>
     <use xlink:href="#DejaVuSans-4f" transform="translate(600.625 0)"/>
     <use xlink:href="#DejaVuSans-4f" transform="translate(628.40625 0)"/>
     <use xlink:href="#DejaVuSans-56" transform="translate(656.1875 0)"/>
     <use xlink:href="#DejaVuSans-3" transform="translate(708.28125 0)"/>
     <use xlink:href="#DejaVuSans-79" transform="translate(740.0625 0)"/>
     <use xlink:href="#DejaVuSans-3" transform="translate(771.84375 0)"/>
     <use xlink:href="#DejaVuSans-18" transform="translate(803.625 0)"/>
     <use xlink:href="#DejaVuSans-56" transform="translate(867.25 0)"/>
    </g>
   </g>
   <g id="text_7">
    <!-- free route? -->
    <g style="fill: #fff7eb" transform="translate(328.804823 50.692359) scale(0.084 -0.084)">
     <defs>
      <path id="DejaVuSans-22" d="M 1222 794 
L 1856 794 
L 1856 0 
L 1222 0 
L 1222 794 
z
M 1838 1253 
L 1241 1253 
L 1241 1734 
Q 1241 2050 1328 2253 
Q 1416 2456 1697 2725 
L 1978 3003 
Q 2156 3169 2236 3316 
Q 2316 3463 2316 3616 
Q 2316 3894 2111 4066 
Q 1906 4238 1569 4238 
Q 1322 4238 1042 4128 
Q 763 4019 459 3809 
L 459 4397 
Q 753 4575 1054 4662 
Q 1356 4750 1678 4750 
Q 2253 4750 2601 4447 
Q 2950 4144 2950 3647 
Q 2950 3409 2837 3195 
Q 2725 2981 2444 2713 
L 2169 2444 
Q 2022 2297 1961 2214 
Q 1900 2131 1875 2053 
Q 1856 1988 1847 1894 
Q 1838 1800 1838 1638 
L 1838 1253 
z
" transform="scale(0.015625)"/>
     </defs>
     <use xlink:href="#DejaVuSans-49"/>
     <use xlink:href="#DejaVuSans-55" transform="translate(35.203125 0)"/>
     <use xlink:href="#DejaVuSans-48" transform="translate(74.109375 0)"/>
     <use xlink:href="#DejaVuSans-48" transform="translate(135.640625 0)"/>
     <use xlink:href="#DejaVuSans-3" transform="translate(197.171875 0)"/>
     <use xlink:href="#DejaVuSans-55" transform="translate(228.953125 0)"/>
     <use xlink:href="#DejaVuSans-52" transform="translate(267.859375 0)"/>
     <use xlink:href="#DejaVuSans-58" transform="translate(329.046875 0)"/>
     <use xlink:href="#DejaVuSans-57" transform="translate(392.421875 0)"/>
     <use xlink:href="#DejaVuSans-48" transform="translate(431.625 0)"/>
     <use xlink:href="#DejaVuSans-22" transform="translate(493.15625 0)"/>
    </g>
   </g>
   <g id="text_8">
    <!-- Phase 2 — push -->
    <g style="fill: #fff7eb" transform="translate(206.000806 137.040159) scale(0.084 -0.084)">
     <defs>
      <path id="DejaVuSans-15" d="M 1228 531 
L 3431 531 
L 3431 0 
L 469 0 
L 469 531 
Q 828 903 1448 1529 
Q 2069 2156 2228 2338 
Q 2531 2678 2651 2914 
Q 2772 3150 2772 3378 
Q 2772 3750 2511 3984 
Q 2250 4219 1831 4219 
Q 1534 4219 1204 4116 
Q 875 4013 500 3803 
L 500 4441 
Q 881 4594 1212 4672 
Q 1544 4750 1819 4750 
Q 2544 4750 2975 4387 
Q 3406 4025 3406 3419 
Q 3406 3131 3298 2873 
Q 3191 2616 2906 2266 
Q 2828 2175 2409 1742 
Q 1991 1309 1228 531 
z
" transform="scale(0.015625)"/>
     </defs>
     <use xlink:href="#DejaVuSans-33"/>
     <use xlink:href="#DejaVuSans-4b" transform="translate(60.296875 0)"/>
     <use xlink:href="#DejaVuSans-44" transform="translate(123.671875 0)"/>
     <use xlink:href="#DejaVuSans-56" transform="translate(184.953125 0)"/>
     <use xlink:href="#DejaVuSans-48" transform="translate(237.046875 0)"/>
     <use xlink:href="#DejaVuSans-3" transform="translate(298.578125 0)"/>
     <use xlink:href="#DejaVuSans-15" transform="translate(330.359375 0)"/>
     <use xlink:href="#DejaVuSans-3" transform="translate(393.984375 0)"/>
     <use xlink:href="#DejaVuSans-af6" transform="translate(425.765625 0)"/>
     <use xlink:href="#DejaVuSans-3" transform="translate(525.765625 0)"/>
     <use xlink:href="#DejaVuSans-53" transform="translate(557.546875 0)"/>
     <use xlink:href="#DejaVuSans-58" transform="translate(621.03125 0)"/>
     <use xlink:href="#DejaVuSans-56" transform="translate(684.40625 0)"/>
     <use xlink:href="#DejaVuSans-4b" transform="translate(736.5 0)"/>
    </g>
   </g>
   <g id="text_9">
    <!-- Sokoban · crate-slots · 5s -->
    <g style="fill: #a89f94" transform="translate(204.279243 149.895506) scale(0.056 -0.056)">
     <defs>
      <path id="DejaVuSans-36" d="M 3425 4513 
L 3425 3897 
Q 3066 4069 2747 4153 
Q 2428 4238 2131 4238 
Q 1616 4238 1336 4038 
Q 1056 3838 1056 3469 
Q 1056 3159 1242 3001 
Q 1428 2844 1947 2747 
L 2328 2669 
Q 3034 2534 3370 2195 
Q 3706 1856 3706 1288 
Q 3706 609 3251 259 
Q 2797 -91 1919 -91 
Q 1588 -91 1214 -16 
Q 841 59 441 206 
L 441 856 
Q 825 641 1194 531 
Q 1563 422 1919 422 
Q 2459 422 2753 634 
Q 3047 847 3047 1241 
Q 3047 1584 2836 1778 
Q 2625 1972 2144 2069 
L 1759 2144 
Q 1053 2284 737 2584 
Q 422 2884 422 3419 
Q 422 4038 858 4394 
Q 1294 4750 2059 4750 
Q 2388 4750 2728 4690 
Q 3069 4631 3425 4513 
z
" transform="scale(0.015625)"/>
      <path id="DejaVuSans-4e" d="M 581 4863 
L 1159 4863 
L 1159 1991 
L 2875 3500 
L 3609 3500 
L 1753 1863 
L 3688 0 
L 2938 0 
L 1159 1709 
L 1159 0 
L 581 0 
L 581 4863 
z
" transform="scale(0.015625)"/>
     </defs>
     <use xlink:href="#DejaVuSans-36"/>
     <use xlink:href="#DejaVuSans-52" transform="translate(63.484375 0)"/>
     <use xlink:href="#DejaVuSans-4e" transform="translate(124.671875 0)"/>
     <use xlink:href="#DejaVuSans-52" transform="translate(179.015625 0)"/>
     <use xlink:href="#DejaVuSans-45" transform="translate(240.203125 0)"/>
     <use xlink:href="#DejaVuSans-44" transform="translate(303.6875 0)"/>
     <use xlink:href="#DejaVuSans-51" transform="translate(364.96875 0)"/>
     <use xlink:href="#DejaVuSans-3" transform="translate(428.34375 0)"/>
     <use xlink:href="#DejaVuSans-79" transform="translate(460.125 0)"/>
     <use xlink:href="#DejaVuSans-3" transform="translate(491.90625 0)"/>
     <use xlink:href="#DejaVuSans-46" transform="translate(523.6875 0)"/>
     <use xlink:href="#DejaVuSans-55" transform="translate(578.671875 0)"/>
     <use xlink:href="#DejaVuSans-44" transform="translate(619.78125 0)"/>
     <use xlink:href="#DejaVuSans-57" transform="translate(681.0625 0)"/>
     <use xlink:href="#DejaVuSans-48" transform="translate(720.265625 0)"/>
     <use xlink:href="#DejaVuSans-10" transform="translate(781.796875 0)"/>
     <use xlink:href="#DejaVuSans-56" transform="translate(817.875 0)"/>
     <use xlink:href="#DejaVuSans-4f" transform="translate(869.96875 0)"/>
     <use xlink:href="#DejaVuSans-52" transform="translate(897.75 0)"/>
     <use xlink:href="#DejaVuSans-57" transform="translate(958.9375 0)"/>
     <use xlink:href="#DejaVuSans-56" transform="translate(998.140625 0)"/>
     <use xlink:href="#DejaVuSans-3" transform="translate(1050.234375 0)"/>
     <use xlink:href="#DejaVuSans-79" transform="translate(1082.015625 0)"/>
     <use xlink:href="#DejaVuSans-3" transform="translate(1113.796875 0)"/>
     <use xlink:href="#DejaVuSans-18" transform="translate(1145.578125 0)"/>
     <use xlink:href="#DejaVuSans-56" transform="translate(1209.203125 0)"/>
    </g>
   </g>
   <g id="text_10">
    <!-- moves -->
    <g style="fill: #fff7eb" transform="translate(337.827604 90.955331) scale(0.084 -0.084)">
     <defs>
      <path id="DejaVuSans-50" d="M 3328 2828 
Q 3544 3216 3844 3400 
Q 4144 3584 4550 3584 
Q 5097 3584 5394 3201 
Q 5691 2819 5691 2113 
L 5691 0 
L 5113 0 
L 5113 2094 
Q 5113 2597 4934 2840 
Q 4756 3084 4391 3084 
Q 3944 3084 3684 2787 
Q 3425 2491 3425 1978 
L 3425 0 
L 2847 0 
L 2847 2094 
Q 2847 2600 2669 2842 
Q 2491 3084 2119 3084 
Q 1678 3084 1418 2786 
Q 1159 2488 1159 1978 
L 1159 0 
L 581 0 
L 581 3500 
L 1159 3500 
L 1159 2956 
Q 1356 3278 1631 3431 
Q 1906 3584 2284 3584 
Q 2666 3584 2933 3390 
Q 3200 3197 3328 2828 
z
" transform="scale(0.015625)"/>
      <path id="DejaVuSans-59" d="M 191 3500 
L 800 3500 
L 1894 563 
L 2988 3500 
L 3597 3500 
L 2284 0 
L 1503 0 
L 191 3500 
z
" transform="scale(0.015625)"/>
     </defs>
     <use xlink:href="#DejaVuSans-50"/>
     <use xlink:href="#DejaVuSans-52" transform="translate(97.40625 0)"/>
     <use xlink:href="#DejaVuSans-59" transform="translate(158.59375 0)"/>
     <use xlink:href="#DejaVuSans-48" transform="translate(217.78125 0)"/>
     <use xlink:href="#DejaVuSans-56" transform="translate(279.3125 0)"/>
    </g>
   </g>
   <g id="text_11">
    <!-- → executor -->
    <g style="fill: #a89f94" transform="translate(336.266604 103.810788) scale(0.056 -0.056)">
     <defs>
      <path id="DejaVuSans-c1c" d="M 5050 2147 
L 5050 1866 
L 3822 638 
L 3447 1013 
L 4175 1741 
L 366 1741 
L 366 2272 
L 4175 2272 
L 3447 3000 
L 3822 3375 
L 5050 2147 
z
" transform="scale(0.015625)"/>
      <path id="DejaVuSans-5b" d="M 3513 3500 
L 2247 1797 
L 3578 0 
L 2900 0 
L 1881 1375 
L 863 0 
L 184 0 
L 1544 1831 
L 300 3500 
L 978 3500 
L 1906 2253 
L 2834 3500 
L 3513 3500 
z
" transform="scale(0.015625)"/>
     </defs>
     <use xlink:href="#DejaVuSans-c1c"/>
     <use xlink:href="#DejaVuSans-3" transform="translate(83.796875 0)"/>
     <use xlink:href="#DejaVuSans-48" transform="translate(115.578125 0)"/>
     <use xlink:href="#DejaVuSans-5b" transform="translate(175.359375 0)"/>
     <use xlink:href="#DejaVuSans-48" transform="translate(231.46875 0)"/>
     <use xlink:href="#DejaVuSans-46" transform="translate(293 0)"/>
     <use xlink:href="#DejaVuSans-58" transform="translate(347.984375 0)"/>
     <use xlink:href="#DejaVuSans-57" transform="translate(411.359375 0)"/>
     <use xlink:href="#DejaVuSans-52" transform="translate(450.5625 0)"/>
     <use xlink:href="#DejaVuSans-55" transform="translate(511.75 0)"/>
    </g>
   </g>
   <g id="text_12">
    <!-- no_path -->
    <g style="fill: #fff7eb" transform="translate(334.866604 137.040159) scale(0.084 -0.084)">
     <defs>
      <path id="DejaVuSans-42" d="M 3263 -1063 
L 3263 -1509 
L -63 -1509 
L -63 -1063 
L 3263 -1063 
z
" transform="scale(0.015625)"/>
     </defs>
     <use xlink:href="#DejaVuSans-51"/>
     <use xlink:href="#DejaVuSans-52" transform="translate(63.375 0)"/>
     <use xlink:href="#DejaVuSans-42" transform="translate(124.5625 0)"/>
     <use xlink:href="#DejaVuSans-53" transform="translate(174.5625 0)"/>
     <use xlink:href="#DejaVuSans-44" transform="translate(238.046875 0)"/>
     <use xlink:href="#DejaVuSans-57" transform="translate(299.328125 0)"/>
     <use xlink:href="#DejaVuSans-4b" transform="translate(338.53125 0)"/>
    </g>
   </g>
   <g id="text_13">
    <!-- → revision -->
    <g style="fill: #a89f94" transform="translate(337.538854 149.895506) scale(0.056 -0.056)">
     <use xlink:href="#DejaVuSans-c1c"/>
     <use xlink:href="#DejaVuSans-3" transform="translate(83.796875 0)"/>
     <use xlink:href="#DejaVuSans-55" transform="translate(115.578125 0)"/>
     <use xlink:href="#DejaVuSans-48" transform="translate(154.484375 0)"/>
     <use xlink:href="#DejaVuSans-59" transform="translate(216.015625 0)"/>
     <use xlink:href="#DejaVuSans-4c" transform="translate(275.203125 0)"/>
     <use xlink:href="#DejaVuSans-56" transform="translate(302.984375 0)"/>
     <use xlink:href="#DejaVuSans-4c" transform="translate(355.078125 0)"/>
     <use xlink:href="#DejaVuSans-52" transform="translate(382.859375 0)"/>
     <use xlink:href="#DejaVuSans-51" transform="translate(444.046875 0)"/>
    </g>
   </g>
   <g id="text_14">
    <!-- yes -->
    <g style="fill: #6fd48d" transform="translate(361.942222 74.4275) scale(0.064 -0.064)">
     <use xlink:href="#DejaVuSans-5c"/>
     <use xlink:href="#DejaVuSans-48" transform="translate(59.1875 0)"/>
     <use xlink:href="#DejaVuSans-56" transform="translate(120.71875 0)"/>
    </g>
   </g>
   <g id="text_15">
    <!-- no clear path -->
    <g style="fill: #ef4e5f" transform="translate(282.979162 93.108767) rotate(-56) scale(0.062 -0.062)">
     <use xlink:href="#DejaVuSans-51"/>
     <use xlink:href="#DejaVuSans-52" transform="translate(63.375 0)"/>
     <use xlink:href="#DejaVuSans-3" transform="translate(124.5625 0)"/>
     <use xlink:href="#DejaVuSans-46" transform="translate(156.34375 0)"/>
     <use xlink:href="#DejaVuSans-4f" transform="translate(211.328125 0)"/>
     <use xlink:href="#DejaVuSans-48" transform="translate(239.109375 0)"/>
     <use xlink:href="#DejaVuSans-44" transform="translate(300.640625 0)"/>
     <use xlink:href="#DejaVuSans-55" transform="translate(361.921875 0)"/>
     <use xlink:href="#DejaVuSans-3" transform="translate(403.03125 0)"/>
     <use xlink:href="#DejaVuSans-53" transform="translate(434.8125 0)"/>
     <use xlink:href="#DejaVuSans-44" transform="translate(498.296875 0)"/>
     <use xlink:href="#DejaVuSans-57" transform="translate(559.578125 0)"/>
     <use xlink:href="#DejaVuSans-4b" transform="translate(598.78125 0)"/>
    </g>
   </g>
   <g id="text_16">
    <!-- plan -->
    <g style="fill: #6fd48d" transform="translate(288.977533 108.332789) scale(0.062 -0.062)">
     <use xlink:href="#DejaVuSans-53"/>
     <use xlink:href="#DejaVuSans-4f" transform="translate(63.484375 0)"/>
     <use xlink:href="#DejaVuSans-44" transform="translate(91.265625 0)"/>
     <use xlink:href="#DejaVuSans-51" transform="translate(152.546875 0)"/>
    </g>
   </g>
   <g id="text_17">
    <!-- empty / 5s timeout -->
    <g style="fill: #7a7268" transform="translate(267.968861 167.653617) scale(0.058 -0.058)">
     <defs>
      <path id="DejaVuSans-12" d="M 1625 4666 
L 2156 4666 
L 531 -594 
L 0 -594 
L 1625 4666 
z
" transform="scale(0.015625)"/>
     </defs>
     <use xlink:href="#DejaVuSans-48"/>
     <use xlink:href="#DejaVuSans-50" transform="translate(61.53125 0)"/>
     <use xlink:href="#DejaVuSans-53" transform="translate(158.9375 0)"/>
     <use xlink:href="#DejaVuSans-57" transform="translate(222.421875 0)"/>
     <use xlink:href="#DejaVuSans-5c" transform="translate(261.625 0)"/>
     <use xlink:href="#DejaVuSans-3" transform="translate(320.8125 0)"/>
     <use xlink:href="#DejaVuSans-12" transform="translate(352.59375 0)"/>
     <use xlink:href="#DejaVuSans-3" transform="translate(386.28125 0)"/>
     <use xlink:href="#DejaVuSans-18" transform="translate(418.0625 0)"/>
     <use xlink:href="#DejaVuSans-56" transform="translate(481.6875 0)"/>
     <use xlink:href="#DejaVuSans-3" transform="translate(533.78125 0)"/>
     <use xlink:href="#DejaVuSans-57" transform="translate(565.5625 0)"/>
     <use xlink:href="#DejaVuSans-4c" transform="translate(604.765625 0)"/>
     <use xlink:href="#DejaVuSans-50" transform="translate(632.546875 0)"/>
     <use xlink:href="#DejaVuSans-48" transform="translate(729.953125 0)"/>
     <use xlink:href="#DejaVuSans-52" transform="translate(791.484375 0)"/>
     <use xlink:href="#DejaVuSans-58" transform="translate(852.671875 0)"/>
     <use xlink:href="#DejaVuSans-57" transform="translate(916.046875 0)"/>
    </g>
   </g>
  </g>
 </g>
 <defs>
  <clipPath id="pd215addb77">
   <rect x="0" y="0" width="412.92" height="194.04"/>
  </clipPath>
 </defs>
</svg>
