<?xml version="1.0" encoding="utf-8" standalone="no"?>
<!DOCTYPE svg PUBLIC "-//W3C//DTD SVG 1.1//EN"
  "http://www.w3.org/Graphics/SVG/1.1/DTD/svg11.dtd">
<svg xmlns:xlink="http://www.w3.org/1999/xlink" width="421.56pt" height="202.68pt" viewBox="0 0 421.56 202.68" xmlns="http://www.w3.org/2000/svg" version="1.1">
 <metadata>
  <rdf:RDF xmlns:dc="http://purl.org/dc/elements/1.1/" xmlns:cc="http://creativecommons.org/ns#" xmlns:rdf="http://www.w3.org/1999/02/22-rdf-syntax-ns#">
   <cc:Work>
    <dc:type rdf:resource="http://purl.org/dc/dcmitype/StillImage"/>
    <dc:date>2026-06-23T11:55:06.955474</dc:date>
    <dc:format>image/svg+xml</dc:format>
    <dc:creator>
     <cc:Agent>
      <dc:title>Matplotlib v3.10.9, https://matplotlib.org/</dc:title>
     </cc:Agent>
    </dc:creator>
   </cc:Work>
  </rdf:RDF>
 </metadata>
 <defs>
  <style type="text/css">*{stroke-linejoin: round; stroke-linecap: butt}</style>
 </defs>
 <g id="figure_1">
  <g id="patch_1">
   <path d="M 0 202.68 
L 421.56 202.68 
L 421.56 0 
L 0 0 
L 0 202.68 
z
" style="fill: none; opacity: 0"/>
  </g>
  <g id="axes_1">
   <g id="patch_2">
    <path d="M 18.338889 71.02125 
L 71.865556 71.02125 
Q 78.237778 71.02125 78.237778 64.9575 
L 78.237778 40.7025 
Q 78.237778 34.63875 71.865556 34.63875 
L 18.338889 34.63875 
Q 11.966667 34.63875 11.966667 40.7025 
L 11.966667 64.9575 
Q 11.966667 71.02125 18.338889 71.02125 
z
" clip-path="url(#p0d81a3e4b5)" style="fill: #201d1b; stroke: #55c3ff; stroke-width: 1.5; stroke-linejoin: miter"/>
   </g>
   <g id="patch_3">
    <path d="M 102.452222 72.234 
L 171.272222 72.234 
Q 177.644444 72.234 177.644444 66.17025 
L 177.644444 39.48975 
Q 177.644444 33.426 171.272222 33.426 
L 102.452222 33.426 
Q 96.08 33.426 96.08 39.48975 
L 96.08 66.17025 
Q 96.08 72.234 102.452222 72.234 
z
" clip-path="url(#p0d81a3e4b5)" style="fill: #201d1b; stroke: #c99cff; stroke-width: 1.5; stroke-linejoin: miter"/>
   </g>
   <g id="patch_4">
    <path d="M 204.407778 72.234 
L 283.423333 72.234 
Q 289.795556 72.234 289.795556 66.17025 
L 289.795556 39.48975 
Q 289.795556 33.426 283.423333 33.426 
L 204.407778 33.426 
Q 198.035556 33.426 198.035556 39.48975 
L 198.035556 66.17025 
Q 198.035556 72.234 204.407778 72.234 
z
" clip-path="url(#p0d81a3e4b5)" style="fill: #201d1b; stroke: #ffb052; stroke-width: 1.5; stroke-linejoin: miter"/>
   </g>
   <g id="patch_5">
    <path d="M 326.754444 71.02125 
L 385.378889 71.02125 
Q 391.751111 71.02125 391.751111 64.9575 
L 391.751111 40.7025 
Q 391.751111 34.63875 385.378889 34.63875 
L 326.754444 34.63875 
Q 320.382222 34.63875 320.382222 40.7025 
L 320.382222 64.9575 
Q 320.382222 71.02125 326.754444 71.02125 
z
" clip-path="url(#p0d81a3e4b5)" style="fill: #201d1b; stroke: #55c3ff; stroke-width: 1.5; stroke-linejoin: miter"/>
   </g>
   <g id="patch_6">
    <path d="M 204.407778 164.403 
L 283.423333 164.403 
Q 289.795556 164.403 289.795556 158.33925 
L 289.795556 131.65875 
Q 289.795556 125.595 283.423333 125.595 
L 204.407778 125.595 
Q 198.035556 125.595 198.035556 131.65875 
L 198.035556 158.33925 
Q 198.035556 164.403 204.407778 164.403 
z
" clip-path="url(#p0d81a3e4b5)" style="fill: #201d1b; stroke: #c99cff; stroke-width: 1.5; stroke-linejoin: miter"/>
   </g>
   <g id="patch_7">
    <path d="M 326.754444 115.893 
L 385.378889 115.893 
Q 391.751111 115.893 391.751111 109.82925 
L 391.751111 87.99975 
Q 391.751111 81.936 385.378889 81.936 
L 326.754444 81.936 
Q 320.382222 81.936 320.382222 87.99975 
L 320.382222 109.82925 
Q 320.382222 115.893 326.754444 115.893 
z
" clip-path="url(#p0d81a3e4b5)" style="fill: #201d1b; stroke: #6fd48d; stroke-width: 1.5; stroke-linejoin: miter"/>
   </g>
   <g id="patch_8">
    <path d="M 326.754444 161.9775 
L 385.378889 161.9775 
Q 391.751111 161.9775 391.751111 155.91375 
L 391.751111 134.08425 
Q 391.751111 128.0205 385.378889 128.0205 
L 326.754444 128.0205 
Q 320.382222 128.0205 320.382222 134.08425 
L 320.382222 155.91375 
Q 320.382222 161.9775 326.754444 161.9775 
z
" clip-path="url(#p0d81a3e4b5)" style="fill: #201d1b; stroke: #ef4e5f; stroke-width: 1.5; stroke-linejoin: miter"/>
   </g>
   <g id="patch_9">
    <path d="M 78.237778 52.83 
Q 87.158889 52.83 94.850163 52.83 
" clip-path="url(#p0d81a3e4b5)" style="fill: none; stroke: #a89f94; stroke-width: 1.1; stroke-linecap: round"/>
    <path d="M 90.450163 50.63 
L 94.850163 52.83 
L 90.450163 55.03 
z
" clip-path="url(#p0d81a3e4b5)" style="fill: #a89f94; stroke: #a89f94; stroke-width: 1.1; stroke-linecap: round"/>
   </g>
   <g id="patch_10">
    <path d="M 177.644444 52.83 
Q 187.84 52.83 196.805718 52.83 
" clip-path="url(#p0d81a3e4b5)" style="fill: none; stroke: #a89f94; stroke-width: 1.1; stroke-linecap: round"/>
    <path d="M 192.405718 50.63 
L 196.805718 52.83 
L 192.405718 55.03 
z
" clip-path="url(#p0d81a3e4b5)" style="fill: #a89f94; stroke: #a89f94; stroke-width: 1.1; stroke-linecap: round"/>
   </g>
   <g id="patch_11">
    <path d="M 289.795556 52.83 
Q 305.088889 52.83 319.040581 52.83 
" clip-path="url(#p0d81a3e4b5)" style="fill: none; stroke: #ffb052; stroke-width: 1.2; stroke-linecap: round"/>
    <path d="M 314.640581 50.63 
L 319.040581 52.83 
L 314.640581 55.03 
z
" clip-path="url(#p0d81a3e4b5)" style="fill: #ffb052; stroke: #ffb052; stroke-width: 1.2; stroke-linecap: round"/>
   </g>
   <g id="patch_12">
    <path d="M 356.066667 71.02125 
Q 356.066667 76.478625 356.066667 80.482556 
" clip-path="url(#p0d81a3e4b5)" style="fill: none; stroke: #6fd48d; stroke-width: 1.3; stroke-linecap: round"/>
    <path d="M 358.266667 76.082556 
L 356.066667 80.482556 
L 353.866667 76.082556 
z
" clip-path="url(#p0d81a3e4b5)" style="fill: #6fd48d; stroke: #6fd48d; stroke-width: 1.3; stroke-linecap: round"/>
   </g>
   <g id="patch_13">
    <path d="M 320.382222 64.9575 
Q 283.356409 89.126767 289.600174 131.544162 
" clip-path="url(#p0d81a3e4b5)" style="fill: none; stroke: #ef4e5f; stroke-width: 1.2; stroke-linecap: round"/>
    <path d="M 291.135953 126.870686 
L 289.600174 131.544162 
L 286.78286 127.511453 
z
" clip-path="url(#p0d81a3e4b5)" style="fill: #ef4e5f; stroke: #ef4e5f; stroke-width: 1.2; stroke-linecap: round"/>
   </g>
   <g id="patch_14">
    <path d="M 289.795556 135.297 
Q 302.760409 121.9246 319.112878 116.327472 
" clip-path="url(#p0d81a3e4b5)" style="fill: none; stroke: #6fd48d; stroke-width: 1.2; stroke-linecap: round"/>
    <path d="M 314.237541 115.670901 
L 319.112878 116.327472 
L 315.662419 119.833799 
z
" clip-path="url(#p0d81a3e4b5)" style="fill: #6fd48d; stroke: #6fd48d; stroke-width: 1.2; stroke-linecap: round"/>
   </g>
   <g id="patch_15">
    <path d="M 289.795556 152.2755 
Q 305.088889 152.2755 319.040581 152.2755 
" clip-path="url(#p0d81a3e4b5)" style="fill: none; stroke: #7a7268; stroke-width: 1.2; stroke-linecap: round"/>
    <path d="M 314.640581 150.0755 
L 319.040581 152.2755 
L 314.640581 154.4755 
z
" clip-path="url(#p0d81a3e4b5)" style="fill: #7a7268; stroke: #7a7268; stroke-width: 1.2; stroke-linecap: round"/>
   </g>
   <g id="text_1">
    <!-- intention -->
    <g style="fill: #fff7eb" transform="translate(26.336097 49.326675) scale(0.084 -0.084)">
     <defs>
      <path id="DejaVuSans-69" d="M 603 3500 
L 1178 3500 
L 1178 0 
L 603 0 
L 603 3500 
z
M 603 4863 
L 1178 4863 
L 1178 4134 
L 603 4134 
L 603 4863 
z
" transform="scale(0.015625)"/>
      <path id="DejaVuSans-6e" d="M 3513 2113 
L 3513 0 
L 2938 0 
L 2938 2094 
Q 2938 2591 2744 2837 
Q 2550 3084 2163 3084 
Q 1697 3084 1428 2787 
Q 1159 2491 1159 1978 
L 1159 0 
L 581 0 
L 581 3500 
L 1159 3500 
L 1159 2956 
Q 1366 3272 1645 3428 
Q 1925 3584 2291 3584 
Q 2894 3584 3203 3211 
Q 3513 2838 3513 2113 
z
" transform="scale(0.015625)"/>
      <path id="DejaVuSans-74" d="M 1172 4494 
L 1172 3500 
L 2356 3500 
L 2356 3053 
L 1172 3053 
L 1172 1153 
Q 1172 725 1289 603 
Q 1406 481 1766 481 
L 2356 481 
L 2356 0 
L 1766 0 
Q 1100 0 847 248 
Q 594 497 594 1153 
L 594 3053 
L 172 3053 
L 172 3500 
L 594 3500 
L 594 4494 
L 1172 4494 
z
" transform="scale(0.015625)"/>
      <path id="DejaVuSans-65" d="M 3597 1894 
L 3597 1613 
L 953 1613 
Q 991 1019 1311 708 
Q 1631 397 2203 397 
Q 2534 397 2845 478 
Q 3156 559 3463 722 
L 3463 178 
Q 3153 47 2828 -22 
Q 2503 -91 2169 -91 
Q 1331 -91 842 396 
Q 353 884 353 1716 
Q 353 2575 817 3079 
Q 1281 3584 2069 3584 
Q 2775 3584 3186 3129 
Q 3597 2675 3597 1894 
z
M 3022 2063 
Q 3016 2534 2758 2815 
Q 2500 3097 2075 3097 
Q 1594 3097 1305 2825 
Q 1016 2553 972 2059 
L 3022 2063 
z
" transform="scale(0.015625)"/>
      <path id="DejaVuSans-6f" d="M 1959 3097 
Q 1497 3097 1228 2736 
Q 959 2375 959 1747 
Q 959 1119 1226 758 
Q 1494 397 1959 397 
Q 2419 397 2687 759 
Q 2956 1122 2956 1747 
Q 2956 2369 2687 2733 
Q 2419 3097 1959 3097 
z
M 1959 3584 
Q 2709 3584 3137 3096 
Q 3566 2609 3566 1747 
Q 3566 888 3137 398 
Q 2709 -91 1959 -91 
Q 1206 -91 779 398 
Q 353 888 353 1747 
Q 353 2609 779 3096 
Q 1206 3584 1959 3584 
z
" transform="scale(0.015625)"/>
     </defs>
     <use xlink:href="#DejaVuSans-69"/>
     <use xlink:href="#DejaVuSans-6e" transform="translate(27.783203 0)"/>
     <use xlink:href="#DejaVuSans-74" transform="translate(91.162109 0)"/>
     <use xlink:href="#DejaVuSans-65" transform="translate(130.371094 0)"/>
     <use xlink:href="#DejaVuSans-6e" transform="translate(191.894531 0)"/>
     <use xlink:href="#DejaVuSans-74" transform="translate(255.273438 0)"/>
     <use xlink:href="#DejaVuSans-69" transform="translate(294.482422 0)"/>
     <use xlink:href="#DejaVuSans-6f" transform="translate(322.265625 0)"/>
     <use xlink:href="#DejaVuSans-6e" transform="translate(383.447266 0)"/>
    </g>
   </g>
   <g id="text_2">
    <!-- + beliefs -->
    <g style="fill: #a89f94" transform="translate(32.64266 62.13685) scale(0.056 -0.056)">
     <defs>
      <path id="DejaVuSans-2b" d="M 2944 4013 
L 2944 2272 
L 4684 2272 
L 4684 1741 
L 2944 1741 
L 2944 0 
L 2419 0 
L 2419 1741 
L 678 1741 
L 678 2272 
L 2419 2272 
L 2419 4013 
L 2944 4013 
z
" transform="scale(0.015625)"/>
      <path id="DejaVuSans-20" transform="scale(0.015625)"/>
      <path id="DejaVuSans-62" d="M 3116 1747 
Q 3116 2381 2855 2742 
Q 2594 3103 2138 3103 
Q 1681 3103 1420 2742 
Q 1159 2381 1159 1747 
Q 1159 1113 1420 752 
Q 1681 391 2138 391 
Q 2594 391 2855 752 
Q 3116 1113 3116 1747 
z
M 1159 2969 
Q 1341 3281 1617 3432 
Q 1894 3584 2278 3584 
Q 2916 3584 3314 3078 
Q 3713 2572 3713 1747 
Q 3713 922 3314 415 
Q 2916 -91 2278 -91 
Q 1894 -91 1617 61 
Q 1341 213 1159 525 
L 1159 0 
L 581 0 
L 581 4863 
L 1159 4863 
L 1159 2969 
z
" transform="scale(0.015625)"/>
      <path id="DejaVuSans-6c" d="M 603 4863 
L 1178 4863 
L 1178 0 
L 603 0 
L 603 4863 
z
" transform="scale(0.015625)"/>
      <path id="DejaVuSans-66" d="M 2375 4863 
L 2375 4384 
L 1825 4384 
Q 1516 4384 1395 4259 
Q 1275 4134 1275 3809 
L 1275 3500 
L 2222 3500 
L 2222 3053 
L 1275 3053 
L 1275 0 
L 697 0 
L 697 3053 
L 147 3053 
L 147 3500 
L 697 3500 
L 697 3744 
Q 697 4328 969 4595 
Q 1241 4863 1831 4863 
L 2375 4863 
z
" transform="scale(0.015625)"/>
      <path id="DejaVuSans-73" d="M 2834 3397 
L 2834 2853 
Q 2591 2978 2328 3040 
Q 2066 3103 1784 3103 
Q 1356 3103 1142 2972 
Q 928 2841 928 2578 
Q 928 2378 1081 2264 
Q 1234 2150 1697 2047 
L 1894 2003 
Q 2506 1872 2764 1633 
Q 3022 1394 3022 966 
Q 3022 478 2636 193 
Q 2250 -91 1575 -91 
Q 1294 -91 989 -36 
Q 684 19 347 128 
L 347 722 
Q 666 556 975 473 
Q 1284 391 1588 391 
Q 1994 391 2212 530 
Q 2431 669 2431 922 
Q 2431 1156 2273 1281 
Q 2116 1406 1581 1522 
L 1381 1569 
Q 847 1681 609 1914 
Q 372 2147 372 2553 
Q 372 3047 722 3315 
Q 1072 3584 1716 3584 
Q 2034 3584 2315 3537 
Q 2597 3491 2834 3397 
z
" transform="scale(0.015625)"/>
     </defs>
     <use xlink:href="#DejaVuSans-2b"/>
     <use xlink:href="#DejaVuSans-20" transform="translate(83.789062 0)"/>
     <use xlink:href="#DejaVuSans-62" transform="translate(115.576172 0)"/>
     <use xlink:href="#DejaVuSans-65" transform="translate(179.052734 0)"/>
     <use xlink:href="#DejaVuSans-6c" transform="translate(240.576172 0)"/>
     <use xlink:href="#DejaVuSans-69" transform="translate(268.359375 0)"/>
     <use xlink:href="#DejaVuSans-65" transform="translate(296.142578 0)"/>
     <use xlink:href="#DejaVuSans-66" transform="translate(357.666016 0)"/>
     <use xlink:href="#DejaVuSans-73" transform="translate(392.871094 0)"/>
    </g>
   </g>
   <g id="text_3">
    <!-- build PDDL -->
    <g style="fill: #fff7eb" transform="translate(113.858691 49.326675) scale(0.084 -0.084)">
     <defs>
      <path id="DejaVuSans-75" d="M 544 1381 
L 544 3500 
L 1119 3500 
L 1119 1403 
Q 1119 906 1312 657 
Q 1506 409 1894 409 
Q 2359 409 2629 706 
Q 2900 1003 2900 1516 
L 2900 3500 
L 3475 3500 
L 3475 0 
L 2900 0 
L 2900 538 
Q 2691 219 2414 64 
Q 2138 -91 1772 -91 
Q 1169 -91 856 284 
Q 544 659 544 1381 
z
M 1991 3584 
L 1991 3584 
z
" transform="scale(0.015625)"/>
      <path id="DejaVuSans-64" d="M 2906 2969 
L 2906 4863 
L 3481 4863 
L 3481 0 
L 2906 0 
L 2906 525 
Q 2725 213 2448 61 
Q 2172 -91 1784 -91 
Q 1150 -91 751 415 
Q 353 922 353 1747 
Q 353 2572 751 3078 
Q 1150 3584 1784 3584 
Q 2172 3584 2448 3432 
Q 2725 3281 2906 2969 
z
M 947 1747 
Q 947 1113 1208 752 
Q 1469 391 1925 391 
Q 2381 391 2643 752 
Q 2906 1113 2906 1747 
Q 2906 2381 2643 2742 
Q 2381 3103 1925 3103 
Q 1469 3103 1208 2742 
Q 947 2381 947 1747 
z
" transform="scale(0.015625)"/>
      <path id="DejaVuSans-50" d="M 1259 4147 
L 1259 2394 
L 2053 2394 
Q 2494 2394 2734 2622 
Q 2975 2850 2975 3272 
Q 2975 3691 2734 3919 
Q 2494 4147 2053 4147 
L 1259 4147 
z
M 628 4666 
L 2053 4666 
Q 2838 4666 3239 4311 
Q 3641 3956 3641 3272 
Q 3641 2581 3239 2228 
Q 2838 1875 2053 1875 
L 1259 1875 
L 1259 0 
L 628 0 
L 628 4666 
z
" transform="scale(0.015625)"/>
      <path id="DejaVuSans-44" d="M 1259 4147 
L 1259 519 
L 2022 519 
Q 2988 519 3436 956 
Q 3884 1394 3884 2338 
Q 3884 3275 3436 3711 
Q 2988 4147 2022 4147 
L 1259 4147 
z
M 628 4666 
L 1925 4666 
Q 3281 4666 3915 4102 
Q 4550 3538 4550 2338 
Q 4550 1131 3912 565 
Q 3275 0 1925 0 
L 628 0 
L 628 4666 
z
" transform="scale(0.015625)"/>
      <path id="DejaVuSans-4c" d="M 628 4666 
L 1259 4666 
L 1259 531 
L 3531 531 
L 3531 0 
L 628 0 
L 628 4666 
z
" transform="scale(0.015625)"/>
     </defs>
     <use xlink:href="#DejaVuSans-62"/>
     <use xlink:href="#DejaVuSans-75" transform="translate(63.476562 0)"/>
     <use xlink:href="#DejaVuSans-69" transform="translate(126.855469 0)"/>
     <use xlink:href="#DejaVuSans-6c" transform="translate(154.638672 0)"/>
     <use xlink:href="#DejaVuSans-64" transform="translate(182.421875 0)"/>
     <use xlink:href="#DejaVuSans-20" transform="translate(245.898438 0)"/>
     <use xlink:href="#DejaVuSans-50" transform="translate(277.685547 0)"/>
     <use xlink:href="#DejaVuSans-44" transform="translate(337.988281 0)"/>
     <use xlink:href="#DejaVuSans-44" transform="translate(414.990234 0)"/>
     <use xlink:href="#DejaVuSans-4c" transform="translate(491.992188 0)"/>
    </g>
   </g>
   <g id="text_4">
    <!-- tiles · 1-way edges -->
    <g style="fill: #a89f94" transform="translate(110.553597 62.13685) scale(0.056 -0.056)">
     <defs>
      <path id="DejaVuSans-b7" d="M 684 2619 
L 1344 2619 
L 1344 1825 
L 684 1825 
L 684 2619 
z
" transform="scale(0.015625)"/>
      <path id="DejaVuSans-31" d="M 794 531 
L 1825 531 
L 1825 4091 
L 703 3866 
L 703 4441 
L 1819 4666 
L 2450 4666 
L 2450 531 
L 3481 531 
L 3481 0 
L 794 0 
L 794 531 
z
" transform="scale(0.015625)"/>
      <path id="DejaVuSans-2d" d="M 313 2009 
L 1997 2009 
L 1997 1497 
L 313 1497 
L 313 2009 
z
" transform="scale(0.015625)"/>
      <path id="DejaVuSans-77" d="M 269 3500 
L 844 3500 
L 1563 769 
L 2278 3500 
L 2956 3500 
L 3675 769 
L 4391 3500 
L 4966 3500 
L 4050 0 
L 3372 0 
L 2619 2869 
L 1863 0 
L 1184 0 
L 269 3500 
z
" transform="scale(0.015625)"/>
      <path id="DejaVuSans-61" d="M 2194 1759 
Q 1497 1759 1228 1600 
Q 959 1441 959 1056 
Q 959 750 1161 570 
Q 1363 391 1709 391 
Q 2188 391 2477 730 
Q 2766 1069 2766 1631 
L 2766 1759 
L 2194 1759 
z
M 3341 1997 
L 3341 0 
L 2766 0 
L 2766 531 
Q 2569 213 2275 61 
Q 1981 -91 1556 -91 
Q 1019 -91 701 211 
Q 384 513 384 1019 
Q 384 1609 779 1909 
Q 1175 2209 1959 2209 
L 2766 2209 
L 2766 2266 
Q 2766 2663 2505 2880 
Q 2244 3097 1772 3097 
Q 1472 3097 1187 3025 
Q 903 2953 641 2809 
L 641 3341 
Q 956 3463 1253 3523 
Q 1550 3584 1831 3584 
Q 2591 3584 2966 3190 
Q 3341 2797 3341 1997 
z
" transform="scale(0.015625)"/>
      <path id="DejaVuSans-79" d="M 2059 -325 
Q 1816 -950 1584 -1140 
Q 1353 -1331 966 -1331 
L 506 -1331 
L 506 -850 
L 844 -850 
Q 1081 -850 1212 -737 
Q 1344 -625 1503 -206 
L 1606 56 
L 191 3500 
L 800 3500 
L 1894 763 
L 2988 3500 
L 3597 3500 
L 2059 -325 
z
" transform="scale(0.015625)"/>
      <path id="DejaVuSans-67" d="M 2906 1791 
Q 2906 2416 2648 2759 
Q 2391 3103 1925 3103 
Q 1463 3103 1205 2759 
Q 947 2416 947 1791 
Q 947 1169 1205 825 
Q 1463 481 1925 481 
Q 2391 481 2648 825 
Q 2906 1169 2906 1791 
z
M 3481 434 
Q 3481 -459 3084 -895 
Q 2688 -1331 1869 -1331 
Q 1566 -1331 1297 -1286 
Q 1028 -1241 775 -1147 
L 775 -588 
Q 1028 -725 1275 -790 
Q 1522 -856 1778 -856 
Q 2344 -856 2625 -561 
Q 2906 -266 2906 331 
L 2906 616 
Q 2728 306 2450 153 
Q 2172 0 1784 0 
Q 1141 0 747 490 
Q 353 981 353 1791 
Q 353 2603 747 3093 
Q 1141 3584 1784 3584 
Q 2172 3584 2450 3431 
Q 2728 3278 2906 2969 
L 2906 3500 
L 3481 3500 
L 3481 434 
z
" transform="scale(0.015625)"/>
     </defs>
     <use xlink:href="#DejaVuSans-74"/>
     <use xlink:href="#DejaVuSans-69" transform="translate(39.208984 0)"/>
     <use xlink:href="#DejaVuSans-6c" transform="translate(66.992188 0)"/>
     <use xlink:href="#DejaVuSans-65" transform="translate(94.775391 0)"/>
     <use xlink:href="#DejaVuSans-73" transform="translate(156.298828 0)"/>
     <use xlink:href="#DejaVuSans-20" transform="translate(208.398438 0)"/>
     <use xlink:href="#DejaVuSans-b7" transform="translate(240.185547 0)"/>
     <use xlink:href="#DejaVuSans-20" transform="translate(271.972656 0)"/>
     <use xlink:href="#DejaVuSans-31" transform="translate(303.759766 0)"/>
     <use xlink:href="#DejaVuSans-2d" transform="translate(367.382812 0)"/>
     <use xlink:href="#DejaVuSans-77" transform="translate(403.466797 0)"/>
     <use xlink:href="#DejaVuSans-61" transform="translate(485.253906 0)"/>
     <use xlink:href="#DejaVuSans-79" transform="translate(546.533203 0)"/>
     <use xlink:href="#DejaVuSans-20" transform="translate(605.712891 0)"/>
     <use xlink:href="#DejaVuSans-65" transform="translate(637.5 0)"/>
     <use xlink:href="#DejaVuSans-64" transform="translate(699.023438 0)"/>
     <use xlink:href="#DejaVuSans-67" transform="translate(762.5 0)"/>
     <use xlink:href="#DejaVuSans-65" transform="translate(825.976562 0)"/>
     <use xlink:href="#DejaVuSans-73" transform="translate(887.5 0)"/>
    </g>
   </g>
   <g id="text_5">
    <!-- Phase 1 — no push -->
    <g style="fill: #fff7eb" transform="translate(203.754368 49.326675) scale(0.084 -0.084)">
     <defs>
      <path id="DejaVuSans-68" d="M 3513 2113 
L 3513 0 
L 2938 0 
L 2938 2094 
Q 2938 2591 2744 2837 
Q 2550 3084 2163 3084 
Q 1697 3084 1428 2787 
Q 1159 2491 1159 1978 
L 1159 0 
L 581 0 
L 581 4863 
L 1159 4863 
L 1159 2956 
Q 1366 3272 1645 3428 
Q 1925 3584 2291 3584 
Q 2894 3584 3203 3211 
Q 3513 2838 3513 2113 
z
" transform="scale(0.015625)"/>
      <path id="DejaVuSans-2014" d="M 313 1978 
L 6088 1978 
L 6088 1528 
L 313 1528 
L 313 1978 
z
" transform="scale(0.015625)"/>
      <path id="DejaVuSans-70" d="M 1159 525 
L 1159 -1331 
L 581 -1331 
L 581 3500 
L 1159 3500 
L 1159 2969 
Q 1341 3281 1617 3432 
Q 1894 3584 2278 3584 
Q 2916 3584 3314 3078 
Q 3713 2572 3713 1747 
Q 3713 922 3314 415 
Q 2916 -91 2278 -91 
Q 1894 -91 1617 61 
Q 1341 213 1159 525 
z
M 3116 1747 
Q 3116 2381 2855 2742 
Q 2594 3103 2138 3103 
Q 1681 3103 1420 2742 
Q 1159 2381 1159 1747 
Q 1159 1113 1420 752 
Q 1681 391 2138 391 
Q 2594 391 2855 752 
Q 3116 1113 3116 1747 
z
" transform="scale(0.015625)"/>
     </defs>
     <use xlink:href="#DejaVuSans-50"/>
     <use xlink:href="#DejaVuSans-68" transform="translate(60.302734 0)"/>
     <use xlink:href="#DejaVuSans-61" transform="translate(123.681641 0)"/>
     <use xlink:href="#DejaVuSans-73" transform="translate(184.960938 0)"/>
     <use xlink:href="#DejaVuSans-65" transform="translate(237.060547 0)"/>
     <use xlink:href="#DejaVuSans-20" transform="translate(298.583984 0)"/>
     <use xlink:href="#DejaVuSans-31" transform="translate(330.371094 0)"/>
     <use xlink:href="#DejaVuSans-20" transform="translate(393.994141 0)"/>
     <use xlink:href="#DejaVuSans-2014" transform="translate(425.78125 0)"/>
     <use xlink:href="#DejaVuSans-20" transform="translate(525.78125 0)"/>
     <use xlink:href="#DejaVuSans-6e" transform="translate(557.568359 0)"/>
     <use xlink:href="#DejaVuSans-6f" transform="translate(620.947266 0)"/>
     <use xlink:href="#DejaVuSans-20" transform="translate(682.128906 0)"/>
     <use xlink:href="#DejaVuSans-70" transform="translate(713.916016 0)"/>
     <use xlink:href="#DejaVuSans-75" transform="translate(777.392578 0)"/>
     <use xlink:href="#DejaVuSans-73" transform="translate(840.771484 0)"/>
     <use xlink:href="#DejaVuSans-68" transform="translate(892.871094 0)"/>
    </g>
   </g>
   <g id="text_6">
    <!-- crates = walls · 5s -->
    <g style="fill: #a89f94" transform="translate(218.173931 62.13685) scale(0.056 -0.056)">
     <defs>
      <path id="DejaVuSans-63" d="M 3122 3366 
L 3122 2828 
Q 2878 2963 2633 3030 
Q 2388 3097 2138 3097 
Q 1578 3097 1268 2742 
Q 959 2388 959 1747 
Q 959 1106 1268 751 
Q 1578 397 2138 397 
Q 2388 397 2633 464 
Q 2878 531 3122 666 
L 3122 134 
Q 2881 22 2623 -34 
Q 2366 -91 2075 -91 
Q 1284 -91 818 406 
Q 353 903 353 1747 
Q 353 2603 823 3093 
Q 1294 3584 2113 3584 
Q 2378 3584 2631 3529 
Q 2884 3475 3122 3366 
z
" transform="scale(0.015625)"/>
      <path id="DejaVuSans-72" d="M 2631 2963 
Q 2534 3019 2420 3045 
Q 2306 3072 2169 3072 
Q 1681 3072 1420 2755 
Q 1159 2438 1159 1844 
L 1159 0 
L 581 0 
L 581 3500 
L 1159 3500 
L 1159 2956 
Q 1341 3275 1631 3429 
Q 1922 3584 2338 3584 
Q 2397 3584 2469 3576 
Q 2541 3569 2628 3553 
L 2631 2963 
z
" transform="scale(0.015625)"/>
      <path id="DejaVuSans-3d" d="M 678 2906 
L 4684 2906 
L 4684 2381 
L 678 2381 
L 678 2906 
z
M 678 1631 
L 4684 1631 
L 4684 1100 
L 678 1100 
L 678 1631 
z
" transform="scale(0.015625)"/>
      <path id="DejaVuSans-35" d="M 691 4666 
L 3169 4666 
L 3169 4134 
L 1269 4134 
L 1269 2991 
Q 1406 3038 1543 3061 
Q 1681 3084 1819 3084 
Q 2600 3084 3056 2656 
Q 3513 2228 3513 1497 
Q 3513 744 3044 326 
Q 2575 -91 1722 -91 
Q 1428 -91 1123 -41 
Q 819 9 494 109 
L 494 744 
Q 775 591 1075 516 
Q 1375 441 1709 441 
Q 2250 441 2565 725 
Q 2881 1009 2881 1497 
Q 2881 1984 2565 2268 
Q 2250 2553 1709 2553 
Q 1456 2553 1204 2497 
Q 953 2441 691 2322 
L 691 4666 
z
" transform="scale(0.015625)"/>
     </defs>
     <use xlink:href="#DejaVuSans-63"/>
     <use xlink:href="#DejaVuSans-72" transform="translate(54.980469 0)"/>
     <use xlink:href="#DejaVuSans-61" transform="translate(96.09375 0)"/>
     <use xlink:href="#DejaVuSans-74" transform="translate(157.373047 0)"/>
     <use xlink:href="#DejaVuSans-65" transform="translate(196.582031 0)"/>
     <use xlink:href="#DejaVuSans-73" transform="translate(258.105469 0)"/>
     <use xlink:href="#DejaVuSans-20" transform="translate(310.205078 0)"/>
     <use xlink:href="#DejaVuSans-3d" transform="translate(341.992188 0)"/>
     <use xlink:href="#DejaVuSans-20" transform="translate(425.78125 0)"/>
     <use xlink:href="#DejaVuSans-77" transform="translate(457.568359 0)"/>
     <use xlink:href="#DejaVuSans-61" transform="translate(539.355469 0)"/>
     <use xlink:href="#DejaVuSans-6c" transform="translate(600.634766 0)"/>
     <use xlink:href="#DejaVuSans-6c" transform="translate(628.417969 0)"/>
     <use xlink:href="#DejaVuSans-73" transform="translate(656.201172 0)"/>
     <use xlink:href="#DejaVuSans-20" transform="translate(708.300781 0)"/>
     <use xlink:href="#DejaVuSans-b7" transform="translate(740.087891 0)"/>
     <use xlink:href="#DejaVuSans-20" transform="translate(771.875 0)"/>
     <use xlink:href="#DejaVuSans-35" transform="translate(803.662109 0)"/>
     <use xlink:href="#DejaVuSans-73" transform="translate(867.285156 0)"/>
    </g>
   </g>
   <g id="text_7">
    <!-- free route? -->
    <g style="fill: #fff7eb" transform="translate(333.12876 55.147875) scale(0.084 -0.084)">
     <defs>
      <path id="DejaVuSans-3f" d="M 1222 794 
L 1856 794 
L 1856 0 
L 1222 0 
L 1222 794 
z
M 1838 1253 
L 1241 1253 
L 1241 1734 
Q 1241 2050 1328 2253 
Q 1416 2456 1697 2725 
L 1978 3003 
Q 2156 3169 2236 3316 
Q 2316 3463 2316 3616 
Q 2316 3894 2111 4066 
Q 1906 4238 1569 4238 
Q 1322 4238 1042 4128 
Q 763 4019 459 3809 
L 459 4397 
Q 753 4575 1054 4662 
Q 1356 4750 1678 4750 
Q 2253 4750 2601 4447 
Q 2950 4144 2950 3647 
Q 2950 3409 2837 3195 
Q 2725 2981 2444 2713 
L 2169 2444 
Q 2022 2297 1961 2214 
Q 1900 2131 1875 2053 
Q 1856 1988 1847 1894 
Q 1838 1800 1838 1638 
L 1838 1253 
z
" transform="scale(0.015625)"/>
     </defs>
     <use xlink:href="#DejaVuSans-66"/>
     <use xlink:href="#DejaVuSans-72" transform="translate(35.205078 0)"/>
     <use xlink:href="#DejaVuSans-65" transform="translate(74.068359 0)"/>
     <use xlink:href="#DejaVuSans-65" transform="translate(135.591797 0)"/>
     <use xlink:href="#DejaVuSans-20" transform="translate(197.115234 0)"/>
     <use xlink:href="#DejaVuSans-72" transform="translate(228.902344 0)"/>
     <use xlink:href="#DejaVuSans-6f" transform="translate(267.765625 0)"/>
     <use xlink:href="#DejaVuSans-75" transform="translate(328.947266 0)"/>
     <use xlink:href="#DejaVuSans-74" transform="translate(392.326172 0)"/>
     <use xlink:href="#DejaVuSans-65" transform="translate(431.535156 0)"/>
     <use xlink:href="#DejaVuSans-3f" transform="translate(493.058594 0)"/>
    </g>
   </g>
   <g id="text_8">
    <!-- Phase 2 — push -->
    <g style="fill: #fff7eb" transform="translate(210.320806 141.495675) scale(0.084 -0.084)">
     <defs>
      <path id="DejaVuSans-32" d="M 1228 531 
L 3431 531 
L 3431 0 
L 469 0 
L 469 531 
Q 828 903 1448 1529 
Q 2069 2156 2228 2338 
Q 2531 2678 2651 2914 
Q 2772 3150 2772 3378 
Q 2772 3750 2511 3984 
Q 2250 4219 1831 4219 
Q 1534 4219 1204 4116 
Q 875 4013 500 3803 
L 500 4441 
Q 881 4594 1212 4672 
Q 1544 4750 1819 4750 
Q 2544 4750 2975 4387 
Q 3406 4025 3406 3419 
Q 3406 3131 3298 2873 
Q 3191 2616 2906 2266 
Q 2828 2175 2409 1742 
Q 1991 1309 1228 531 
z
" transform="scale(0.015625)"/>
     </defs>
     <use xlink:href="#DejaVuSans-50"/>
     <use xlink:href="#DejaVuSans-68" transform="translate(60.302734 0)"/>
     <use xlink:href="#DejaVuSans-61" transform="translate(123.681641 0)"/>
     <use xlink:href="#DejaVuSans-73" transform="translate(184.960938 0)"/>
     <use xlink:href="#DejaVuSans-65" transform="translate(237.060547 0)"/>
     <use xlink:href="#DejaVuSans-20" transform="translate(298.583984 0)"/>
     <use xlink:href="#DejaVuSans-32" transform="translate(330.371094 0)"/>
     <use xlink:href="#DejaVuSans-20" transform="translate(393.994141 0)"/>
     <use xlink:href="#DejaVuSans-2014" transform="translate(425.78125 0)"/>
     <use xlink:href="#DejaVuSans-20" transform="translate(525.78125 0)"/>
     <use xlink:href="#DejaVuSans-70" transform="translate(557.568359 0)"/>
     <use xlink:href="#DejaVuSans-75" transform="translate(621.044922 0)"/>
     <use xlink:href="#DejaVuSans-73" transform="translate(684.423828 0)"/>
     <use xlink:href="#DejaVuSans-68" transform="translate(736.523438 0)"/>
    </g>
   </g>
   <g id="text_9">
    <!-- Sokoban · crate-slots · 5s -->
    <g style="fill: #a89f94" transform="translate(208.600993 154.30585) scale(0.056 -0.056)">
     <defs>
      <path id="DejaVuSans-53" d="M 3425 4513 
L 3425 3897 
Q 3066 4069 2747 4153 
Q 2428 4238 2131 4238 
Q 1616 4238 1336 4038 
Q 1056 3838 1056 3469 
Q 1056 3159 1242 3001 
Q 1428 2844 1947 2747 
L 2328 2669 
Q 3034 2534 3370 2195 
Q 3706 1856 3706 1288 
Q 3706 609 3251 259 
Q 2797 -91 1919 -91 
Q 1588 -91 1214 -16 
Q 841 59 441 206 
L 441 856 
Q 825 641 1194 531 
Q 1563 422 1919 422 
Q 2459 422 2753 634 
Q 3047 847 3047 1241 
Q 3047 1584 2836 1778 
Q 2625 1972 2144 2069 
L 1759 2144 
Q 1053 2284 737 2584 
Q 422 2884 422 3419 
Q 422 4038 858 4394 
Q 1294 4750 2059 4750 
Q 2388 4750 2728 4690 
Q 3069 4631 3425 4513 
z
" transform="scale(0.015625)"/>
      <path id="DejaVuSans-6b" d="M 581 4863 
L 1159 4863 
L 1159 1991 
L 2875 3500 
L 3609 3500 
L 1753 1863 
L 3688 0 
L 2938 0 
L 1159 1709 
L 1159 0 
L 581 0 
L 581 4863 
z
" transform="scale(0.015625)"/>
     </defs>
     <use xlink:href="#DejaVuSans-53"/>
     <use xlink:href="#DejaVuSans-6f" transform="translate(63.476562 0)"/>
     <use xlink:href="#DejaVuSans-6b" transform="translate(124.658203 0)"/>
     <use xlink:href="#DejaVuSans-6f" transform="translate(178.943359 0)"/>
     <use xlink:href="#DejaVuSans-62" transform="translate(240.125 0)"/>
     <use xlink:href="#DejaVuSans-61" transform="translate(303.601562 0)"/>
     <use xlink:href="#DejaVuSans-6e" transform="translate(364.880859 0)"/>
     <use xlink:href="#DejaVuSans-20" transform="translate(428.259766 0)"/>
     <use xlink:href="#DejaVuSans-b7" transform="translate(460.046875 0)"/>
     <use xlink:href="#DejaVuSans-20" transform="translate(491.833984 0)"/>
     <use xlink:href="#DejaVuSans-63" transform="translate(523.621094 0)"/>
     <use xlink:href="#DejaVuSans-72" transform="translate(578.601562 0)"/>
     <use xlink:href="#DejaVuSans-61" transform="translate(619.714844 0)"/>
     <use xlink:href="#DejaVuSans-74" transform="translate(680.994141 0)"/>
     <use xlink:href="#DejaVuSans-65" transform="translate(720.203125 0)"/>
     <use xlink:href="#DejaVuSans-2d" transform="translate(781.726562 0)"/>
     <use xlink:href="#DejaVuSans-73" transform="translate(817.810547 0)"/>
     <use xlink:href="#DejaVuSans-6c" transform="translate(869.910156 0)"/>
     <use xlink:href="#DejaVuSans-6f" transform="translate(897.693359 0)"/>
     <use xlink:href="#DejaVuSans-74" transform="translate(958.875 0)"/>
     <use xlink:href="#DejaVuSans-73" transform="translate(998.083984 0)"/>
     <use xlink:href="#DejaVuSans-20" transform="translate(1050.183594 0)"/>
     <use xlink:href="#DejaVuSans-b7" transform="translate(1081.970703 0)"/>
     <use xlink:href="#DejaVuSans-20" transform="translate(1113.757812 0)"/>
     <use xlink:href="#DejaVuSans-35" transform="translate(1145.544922 0)"/>
     <use xlink:href="#DejaVuSans-73" transform="translate(1209.167969 0)"/>
    </g>
   </g>
   <g id="text_10">
    <!-- moves -->
    <g style="fill: #fff7eb" transform="translate(342.147604 95.411175) scale(0.084 -0.084)">
     <defs>
      <path id="DejaVuSans-6d" d="M 3328 2828 
Q 3544 3216 3844 3400 
Q 4144 3584 4550 3584 
Q 5097 3584 5394 3201 
Q 5691 2819 5691 2113 
L 5691 0 
L 5113 0 
L 5113 2094 
Q 5113 2597 4934 2840 
Q 4756 3084 4391 3084 
Q 3944 3084 3684 2787 
Q 3425 2491 3425 1978 
L 3425 0 
L 2847 0 
L 2847 2094 
Q 2847 2600 2669 2842 
Q 2491 3084 2119 3084 
Q 1678 3084 1418 2786 
Q 1159 2488 1159 1978 
L 1159 0 
L 581 0 
L 581 3500 
L 1159 3500 
L 1159 2956 
Q 1356 3278 1631 3431 
Q 1906 3584 2284 3584 
Q 2666 3584 2933 3390 
Q 3200 3197 3328 2828 
z
" transform="scale(0.015625)"/>
      <path id="DejaVuSans-76" d="M 191 3500 
L 800 3500 
L 1894 563 
L 2988 3500 
L 3597 3500 
L 2284 0 
L 1503 0 
L 191 3500 
z
" transform="scale(0.015625)"/>
     </defs>
     <use xlink:href="#DejaVuSans-6d"/>
     <use xlink:href="#DejaVuSans-6f" transform="translate(97.412109 0)"/>
     <use xlink:href="#DejaVuSans-76" transform="translate(158.59375 0)"/>
     <use xlink:href="#DejaVuSans-65" transform="translate(217.773438 0)"/>
     <use xlink:href="#DejaVuSans-73" transform="translate(279.296875 0)"/>
    </g>
   </g>
   <g id="text_11">
    <!-- → executor -->
    <g style="fill: #a89f94" transform="translate(340.587917 108.22135) scale(0.056 -0.056)">
     <defs>
      <path id="DejaVuSans-2192" d="M 5050 2147 
L 5050 1866 
L 3822 638 
L 3447 1013 
L 4175 1741 
L 366 1741 
L 366 2272 
L 4175 2272 
L 3447 3000 
L 3822 3375 
L 5050 2147 
z
" transform="scale(0.015625)"/>
      <path id="DejaVuSans-78" d="M 3513 3500 
L 2247 1797 
L 3578 0 
L 2900 0 
L 1881 1375 
L 863 0 
L 184 0 
L 1544 1831 
L 300 3500 
L 978 3500 
L 1906 2253 
L 2834 3500 
L 3513 3500 
z
" transform="scale(0.015625)"/>
     </defs>
     <use xlink:href="#DejaVuSans-2192"/>
     <use xlink:href="#DejaVuSans-20" transform="translate(83.789062 0)"/>
     <use xlink:href="#DejaVuSans-65" transform="translate(115.576172 0)"/>
     <use xlink:href="#DejaVuSans-78" transform="translate(175.349609 0)"/>
     <use xlink:href="#DejaVuSans-65" transform="translate(231.404297 0)"/>
     <use xlink:href="#DejaVuSans-63" transform="translate(292.927734 0)"/>
     <use xlink:href="#DejaVuSans-75" transform="translate(347.908203 0)"/>
     <use xlink:href="#DejaVuSans-74" transform="translate(411.287109 0)"/>
     <use xlink:href="#DejaVuSans-6f" transform="translate(450.496094 0)"/>
     <use xlink:href="#DejaVuSans-72" transform="translate(511.677734 0)"/>
    </g>
   </g>
   <g id="text_12">
    <!-- no_path -->
    <g style="fill: #fff7eb" transform="translate(339.186604 141.378862) scale(0.084 -0.084)">
     <defs>
      <path id="DejaVuSans-5f" d="M 3263 -1063 
L 3263 -1509 
L -63 -1509 
L -63 -1063 
L 3263 -1063 
z
" transform="scale(0.015625)"/>
     </defs>
     <use xlink:href="#DejaVuSans-6e"/>
     <use xlink:href="#DejaVuSans-6f" transform="translate(63.378906 0)"/>
     <use xlink:href="#DejaVuSans-5f" transform="translate(124.560547 0)"/>
     <use xlink:href="#DejaVuSans-70" transform="translate(174.560547 0)"/>
     <use xlink:href="#DejaVuSans-61" transform="translate(238.037109 0)"/>
     <use xlink:href="#DejaVuSans-74" transform="translate(299.316406 0)"/>
     <use xlink:href="#DejaVuSans-68" transform="translate(338.525391 0)"/>
    </g>
   </g>
   <g id="text_13">
    <!-- → revision -->
    <g style="fill: #a89f94" transform="translate(341.860167 154.30585) scale(0.056 -0.056)">
     <use xlink:href="#DejaVuSans-2192"/>
     <use xlink:href="#DejaVuSans-20" transform="translate(83.789062 0)"/>
     <use xlink:href="#DejaVuSans-72" transform="translate(115.576172 0)"/>
     <use xlink:href="#DejaVuSans-65" transform="translate(154.439453 0)"/>
     <use xlink:href="#DejaVuSans-76" transform="translate(215.962891 0)"/>
     <use xlink:href="#DejaVuSans-69" transform="translate(275.142578 0)"/>
     <use xlink:href="#DejaVuSans-73" transform="translate(302.925781 0)"/>
     <use xlink:href="#DejaVuSans-69" transform="translate(355.025391 0)"/>
     <use xlink:href="#DejaVuSans-6f" transform="translate(382.808594 0)"/>
     <use xlink:href="#DejaVuSans-6e" transform="translate(443.990234 0)"/>
    </g>
   </g>
   <g id="text_14">
    <!-- yes -->
    <g style="fill: #6fd48d" transform="translate(366.262222 78.851) scale(0.064 -0.064)">
     <use xlink:href="#DejaVuSans-79"/>
     <use xlink:href="#DejaVuSans-65" transform="translate(59.179688 0)"/>
     <use xlink:href="#DejaVuSans-73" transform="translate(120.703125 0)"/>
    </g>
   </g>
   <g id="text_15">
    <!-- no clear path -->
    <g style="fill: #ef4e5f" transform="translate(287.382085 97.484699) rotate(-56) scale(0.062 -0.062)">
     <use xlink:href="#DejaVuSans-6e"/>
     <use xlink:href="#DejaVuSans-6f" transform="translate(63.378906 0)"/>
     <use xlink:href="#DejaVuSans-20" transform="translate(124.560547 0)"/>
     <use xlink:href="#DejaVuSans-63" transform="translate(156.347656 0)"/>
     <use xlink:href="#DejaVuSans-6c" transform="translate(211.328125 0)"/>
     <use xlink:href="#DejaVuSans-65" transform="translate(239.111328 0)"/>
     <use xlink:href="#DejaVuSans-61" transform="translate(300.634766 0)"/>
     <use xlink:href="#DejaVuSans-72" transform="translate(361.914062 0)"/>
     <use xlink:href="#DejaVuSans-20" transform="translate(403.027344 0)"/>
     <use xlink:href="#DejaVuSans-70" transform="translate(434.814453 0)"/>
     <use xlink:href="#DejaVuSans-61" transform="translate(498.291016 0)"/>
     <use xlink:href="#DejaVuSans-74" transform="translate(559.570312 0)"/>
     <use xlink:href="#DejaVuSans-68" transform="translate(598.779297 0)"/>
    </g>
   </g>
   <g id="text_16">
    <!-- plan -->
    <g style="fill: #6fd48d" transform="translate(293.297533 112.752812) scale(0.062 -0.062)">
     <use xlink:href="#DejaVuSans-70"/>
     <use xlink:href="#DejaVuSans-6c" transform="translate(63.476562 0)"/>
     <use xlink:href="#DejaVuSans-61" transform="translate(91.259766 0)"/>
     <use xlink:href="#DejaVuSans-6e" transform="translate(152.539062 0)"/>
    </g>
   </g>
   <g id="text_17">
    <!-- empty / 5s timeout -->
    <g style="fill: #7a7268" transform="translate(272.288861 172.067187) scale(0.058 -0.058)">
     <defs>
      <path id="DejaVuSans-2f" d="M 1625 4666 
L 2156 4666 
L 531 -594 
L 0 -594 
L 1625 4666 
z
" transform="scale(0.015625)"/>
     </defs>
     <use xlink:href="#DejaVuSans-65"/>
     <use xlink:href="#DejaVuSans-6d" transform="translate(61.523438 0)"/>
     <use xlink:href="#DejaVuSans-70" transform="translate(158.935547 0)"/>
     <use xlink:href="#DejaVuSans-74" transform="translate(222.412109 0)"/>
     <use xlink:href="#DejaVuSans-79" transform="translate(261.621094 0)"/>
     <use xlink:href="#DejaVuSans-20" transform="translate(320.800781 0)"/>
     <use xlink:href="#DejaVuSans-2f" transform="translate(352.587891 0)"/>
     <use xlink:href="#DejaVuSans-20" transform="translate(386.279297 0)"/>
     <use xlink:href="#DejaVuSans-35" transform="translate(418.066406 0)"/>
     <use xlink:href="#DejaVuSans-73" transform="translate(481.689453 0)"/>
     <use xlink:href="#DejaVuSans-20" transform="translate(533.789062 0)"/>
     <use xlink:href="#DejaVuSans-74" transform="translate(565.576172 0)"/>
     <use xlink:href="#DejaVuSans-69" transform="translate(604.785156 0)"/>
     <use xlink:href="#DejaVuSans-6d" transform="translate(632.568359 0)"/>
     <use xlink:href="#DejaVuSans-65" transform="translate(729.980469 0)"/>
     <use xlink:href="#DejaVuSans-6f" transform="translate(791.503906 0)"/>
     <use xlink:href="#DejaVuSans-75" transform="translate(852.685547 0)"/>
     <use xlink:href="#DejaVuSans-74" transform="translate(916.064453 0)"/>
    </g>
   </g>
  </g>
 </g>
 <defs>
  <clipPath id="p0d81a3e4b5">
   <rect x="4.32" y="4.32" width="412.92" height="194.04"/>
  </clipPath>
 </defs>
</svg>
